<svg viewBox="0 0 949.52 314.17" xmlns="http://www.w3.org/2000/svg"><path d="M518.43 105.76l-1.21-.25-2.42 3.39c-13.55 21.3-26.86 39.69-55.66 40.17l-35.33-1.21 16-74.77 15.73.48c24 1 29 2.18 27.1 20.09l-.24 3.14 1.45.24L494 48.16l-1.45-.24-1.46 3.39c-7 15.24-11.37 18.63-33.63 19.36l-17.19.24 14.51-68.73H480c25.17 0 30.74 12.34 39.21 37.51l1 3.39 1.21-.25L518 0H415.09l.25 1.45 6.29.73c12.37 1.45 13.79 1.69 13.55 3.39L405.66 145c-.25 1.45-4.36 2.9-13.07 3.87l-9 1-.72 1.45h116.68zm98.49 18.87l-1.93-.72-10.65 19.36-7.75.24c-7.74 0-10.4-28.32-14.27-54.21C591 67 599 53 606.76 52.52c2.42 0 5.32 1.69 5.32 3.14-4.35 4.36-1 12.83 5.81 12.83 5.08 0 9.68-4.36 9.68-10.65 0-7.26-6.53-12.59-14-12.59-14 0-20.33 11.86-31.71 39.69h-.48c-3.63-21-9.2-39.69-21.06-39.69-6.77 0-16.45 7.51-25.65 29.77l1.94.73L547 56.15h8c7.5 0 10.16 24.44 13.55 49.12-9.92 24.2-20.81 42.35-29 42.84-2.42.24-5.56-2.42-5.56-3.88 4.83-5.32 1.93-13.55-5.09-13.55-5.32 0-9.92 4.36-9.92 10.65 0 7.5 6.54 12.83 14.28 12.83 14.52 0 22.26-12.83 35.57-44h.49c3.63 22.75 9.19 44.05 22 44.05 6.97-.05 16.41-7.56 25.6-29.58zm5.81-27.59h99.71l2.42-7.26h-99.71zM70.34 160.28H0V163l4.7.22c11.2.45 13.22 2.91 13.22 33.82v77.51c0 30.91-2 33.37-13.22 33.82l-4.7.22v2.69h60.93v-2.69l-4.71-.22c-17.92-.9-19.93-2.91-19.93-33.82v-26.24h34.94c34.72 0 52.42-17.92 52.42-42.11 0-26.88-21.51-45.92-53.31-45.92zm1.79 85.34H36.29V197c0-30.24.67-33.82 10.53-33.82H71c22.17 0 29.57 23.52 29.57 42.34.01 20.39-6.71 40.1-28.44 40.1zm130.59-88.25c-47.27 0-73.25 37.4-73.25 78.17s26 78.63 73.25 78.63c47 0 73.24-37.86 73.24-78.63s-26.2-78.17-73.24-78.17zm0 153.88c-39.65 0-52.19-37-52.19-75.48 0-39 12.54-75.49 52.19-75.49 39.42 0 52 37 52 75.49-.03 38.97-12.58 75.48-52 75.48zm97.44-126.78c0-14.78 10.52-24.19 28.44-24.19 17.25 0 35.17 11.87 41.67 32.25l2.46 7.62h2v-42.78H373c-5.83 7.61-9.19 10.08-12.77 10.08-2.69 0-4.48-1.35-7.62-3.14a49.28 49.28 0 00-24.86-6.94c-23.52 0-42.79 15.9-42.79 39.2 0 49.5 82 40.54 82 85.34 0 20.38-15 29.34-34.05 29.34-28.22 0-44.13-21.95-49.5-38.3l-2.69-8.29h-2v49.51h1.79c5.16-7.17 9.64-11.88 14.56-11.88 2.47 0 4 .67 7.4 2.92 10.75 6.71 20.16 9 30.68 9 28.68 0 50.18-16.58 50.18-40.77-.07-52.23-83.17-43.05-83.17-88.97zM391.77 163l4.7.22c11.2.45 13.22 2.91 13.22 33.82v77.51c0 30.91-2 33.37-13.22 33.82l-4.7.22v2.69H446v-2.69l-4.71-.22c-11.19-.45-13.21-2.91-13.21-33.82V197c0-30.91 2-33.37 13.21-33.82L446 163v-2.69h-54.23zm63.61 41.41h2l2.46-7.62c10.08-31.58 22.4-33.6 33.38-33.6h4.93c10.08 0 10.75 3.14 10.75 33.38v77.95c0 30.91-2 33.37-13.22 33.82l-4.7.22v2.69h54.21v-2.69l-4.71-.22c-11.2-.45-13.21-2.91-13.21-33.82v-77.95c0-30.24.67-33.38 10.53-33.38h5.2c11 0 23.07 2 33.37 33.6l2.47 7.62h2v-44.13H455.38zm171.36 70.11V197c0-30.91 2-33.37 13.22-33.82l4.7-.22v-2.69h-54.21V163l4.71.22c11.2.45 13.21 2.91 13.21 33.82v77.51c0 30.91-2 33.37-13.21 33.82l-4.71.22v2.69h54.21v-2.69l-4.7-.22c-11.2-.48-13.22-2.94-13.22-33.85z"/><path d="M717.23 157.37c-47.26 0-73.24 37.4-73.24 78.17s26 78.63 73.24 78.63c47 0 73.25-37.86 73.25-78.63s-26.21-78.17-73.25-78.17zm0 153.88c-39.65 0-52.19-37-52.19-75.48 0-39 12.54-75.49 52.19-75.49 39.43 0 52 37 52 75.49-.03 38.97-12.57 75.48-52 75.48z"/><path d="M900.91 160.28V163l4.71.22c14.11.67 22 25.54 22 48.38v73.25L823.63 160.28h-34.94V163l4 .22c10.3.45 14.56 2.91 14.56 31.81v62.94c0 33.6-4.93 49.5-16.13 50.4l-2.46.22v2.69h48.64v-2.69l-4.71-.22c-13.66-.67-22-26.21-22-50.4v-82.91l117.87 138.43h2.47V211.57c0-31.58 4.48-47.48 16.13-48.38l2.46-.22v-2.69z"/></svg>