<svg xmlns="http://www.w3.org/2000/svg" viewBox="0 0 1007.75 630.98"><g id="Layer_2" data-name="Layer 2"><g id="Text"><g id="_2" data-name="2"><path d="M506.61,160.6h14.12c23.29,0,37,1.57,47.26,33.6l2.46,7.62h2V157.69H459.8v2.69l4.7.22c11.2.45,13.22,2.92,13.22,33.83v77.5c0,30.91-2,33.38-13.22,33.83l-4.7.22v2.69h60.93V306l-4.71-.22c-17.92-.9-19.93-2.92-19.93-33.83V237h17.47c10.53,0,20.38.67,26.43,23.29l1.34,4.93h2V210.56h-2L540,215.48c-4.93,18.37-15.9,18.82-26.43,18.82H496.09V194.43C496.09,164.19,496.76,160.6,506.61,160.6Z"/><path d="M577.4,157.69v2.69l4.7.22c11.2.45,13.22,2.92,13.22,33.83v77.5c0,30.91-2,33.38-13.22,33.83l-4.7.22v2.69H685.74V306l-4.71-.23c-11.2-.44-13.21-2.91-13.21-33.82V234.75h13.42A43.57,43.57,0,0,1,701.15,240c16.61,9.43,12.89,34.2,20.55,49.13,7.22,14.05,18.38,20.69,32,21.43,14.48.79,29,.93,43.47,1,11.62.06,23.18.52,34.34-3.29,16.46-5.62,29.18-19.46,29.18-37.45,0-52.19-83.11-43-83.11-88.93,0-14.78,10.53-24.19,28.45-24.19,17.25,0,35.17,11.87,41.66,32.26l2.47,7.61h2V154.78h-1.8c-5.82,7.61-9.18,10.08-12.77,10.08-2.68,0-4.48-1.34-7.61-3.14a49.39,49.39,0,0,0-24.87-6.94c-23.52,0-42.78,15.9-42.78,39.2,0,49.5,82,40.54,82,85.34,0,20.33-14.91,29.3-33.87,29.35h-.17a31.46,31.46,0,0,1-18.26-6c-7-5.1-16.62-12.5-21.9-18.39-.35.12-2,1-2.23,1.09q.2.39.36.78c1.91,4.22,7,17.47,2.45,21.17-4.27,3.49-11.06.26-15.12-2.64-8.19-5.87-13.43-17.3-16.68-26.51-2.94-8.3-5.14-17.08-10.07-24.5-5.55-8.37-13.27-15.43-22.76-19a68.46,68.46,0,0,0,21.33-4.18c14.34-5.6,25.31-18.37,25.31-34.72,0-25.31-22.4-38.08-48.61-38.08H577.4Zm90.42,36.74c0-30.24.67-33.83,10.52-33.83H705c16.8,0,26.88,12.55,26.88,35.62,0,19-4.93,35.84-31.81,35.84H667.82Zm-18.37,0v77.5c0,30.91-2,33.38-13.22,33.82l-4.64.23-4.69-.22c-11.2-.45-13.21-2.92-13.21-33.83v-77.5c0-30.91,2-33.38,13.21-33.83l4.66-.22,4.67.22C647.43,161.05,649.45,163.52,649.45,194.43Z"/><path d="M866.05,194.2c10.08-31.58,22.4-33.6,33.38-33.6h4.93c10.08,0,10.75,3.14,10.75,33.38v78c0,30.91-2,33.38-13.22,33.83l-4.7.22v2.69H951.4V306l-4.71-.22c-11.2-.45-13.21-2.92-13.21-33.83V194c0-30.24.67-33.38,10.53-33.38h5.15c11,0,23.07,2,33.37,33.6l2.47,7.62h2V157.69H861.57v44.13h2Z"/><path d="M410,278.31l-1.7-.72c-11.61,18.87-19.84,25.65-31.7,25.65-12.82,0-19.6-9.92-19.6-27.1a80.68,80.68,0,0,1,3.63-22.27c40.66-6.78,61-16.21,61-31.94,0-10.17-9.93-16.94-23.48-16.94-27.5,0-56.87,38.33-58,73.34h0l0,0-16.94,26.38-12.35-1.45S323.15,272.51,329,258c6.78-16.7,12.59-31.71,12.59-38,0-7.5-8.47-14.52-16-14.52-5.09,0-11.62,2.9-16.94,8.47-8.48,8.47-26.63,35.33-40.18,62.2l-1.45-.49C277.16,251,286.12,221.93,302.33,166l4.46-15h37.5V148.3l-4.71-.23c-13.66-.67-21.95-26.21-21.95-50.4V14.79L435.45,153.22h2.47V51.3c0-31.58,4.48-47.48,16.12-48.38a34.06,34.06,0,0,1,4.63-.1l2.09.1C472,3.37,474,5.83,474,36.74v77.51c0,30.91-2,33.37-13.22,33.82l-4.7.23V151h71.68c48.16,0,75.93-34.49,75.93-75.71,0-41-26.2-75.26-76.16-75.26H407.9V2.7l4.71.22c14.11.67,21.95,25.54,21.95,48.38v73.25L330.62,0H140L91.39,86.47,36.07,0H0V2.7l4,.22c10.31.45,14.56,3.14,14.56,33.82V97.67c0,32.93-4.47,49.51-16.12,50.4L0,148.3V151H48.61V148.3l-4.7-.23c-16.8-.89-22-32.93-22-50.4V13.9L81.76,106h2.91l54-96.77V114.25c0,30.91-2,33.37-13.22,33.82l-4.7.23V151H288.29V104.62h-2l-2.46,7.61c-10.31,31.59-22.85,35.84-45.7,35.84h-15.9c-9.86,0-10.53-3.58-10.53-33.82V74.82H224.9c10.08,0,21.5.45,26.43,18.82l1.34,4.93h2V48.39h-2l-1.34,4.93C246.4,71.69,235,72.14,224.9,72.14H211.68V36.74c0-30.24.67-33.82,10.53-33.82h11.42c20.83,0,37.19,2.46,45.7,29.12l2.46,7.62h2V14.56A11.86,11.86,0,0,1,295.68,2.69h0l4,.22c10.3.45,14.56,2.91,14.56,31.81V97.67c0,33.6-4.93,49.51-16.13,50.4l-2.46.23V151h6.89L267,154.65l-.48,1.45,19.36.73c1.69,0,1.93,2.9,1.21,5.56,0,0-2.52,8.93-6.4,22.28q-1,2.82-2.09,5.64c-3.79,10-7.83,19.95-11.92,29.85Q254.35,249.77,241.15,279l-16,25.67-15.49-1.45,27.83-87.12h21.78l1-7.75-20.33-.24L249.58,176h-16l-9.92,32.18-17.67.24-2.91,7.26,17.91.49L194.4,304.93c-1,3.15,15,9,19.85,9,6.53,0,16.94-9.92,28.8-34.85l0,0q13.1-28.9,25.38-58.15,3-7.23,5.95-14.48c-6.17,20.84-13.59,45.29-19.92,64.42l-13.8,39.69,15.73,1.21,9-23c21.54-45.74,43.07-73.57,50.33-73.57,5.33,0,10.41,3.87,10.41,8.47,0,3.63-7.26,21-12.34,34.37-7.75,20.32-17.91,44-17.91,46.7,0,3.15,11.13,9.2,16,9.2,6,0,16.78-9.15,28.34-32h0c.57,17.07,11.34,32,28.53,32S399.85,296.22,410,278.31Zm-29.53-62.43c5.33-5.09,10.65-8.23,15.25-8.23,7.26,0,10.41,5.56,10.41,12.82,0,16.7-10.89,25.17-44.29,31.22l-.48-.24C365.73,237.41,373,223.38,380.49,215.88ZM492.35,36.74c0-30.24.67-33.82,10.52-33.82h24.64c36.52,0,55.11,34.94,55.11,72.58,0,35.84-15.46,72.57-55.11,72.57H502.87c-9.85,0-10.52-3.58-10.52-33.82Zm-299,77.51c0,30.91-2,33.37-13.21,33.82l-4.5.22h-.86l-4.5-.22C159,147.62,157,145.16,157,114.25V36.74c0-30.91,2-33.37,13.21-33.82L175,2.7h.44l4.71.22c11.2.45,13.21,2.91,13.21,33.82Z"/><path d="M449.33,553.26c17-3.81,42.56-13.44,42.56-37.19,0-24.86-23.08-36.06-52-36.06H374.29v2.69l4.7.22c11.2.45,13.22,2.91,13.22,33.82v77.51c0,30.91-2,33.37-13.22,33.82l-4.7.22V631h65c35.16,0,60.92-11,60.92-37.85C500.17,564.45,467.92,555.49,449.33,553.26Zm-38.76-36.52c0-30.24.68-33.82,10.53-33.82h19.49c15.9,0,30.46,9.86,30.46,33.15,0,24.19-12.09,36.07-32.25,36.07H410.57Zm27.56,111.33h-17c-9.85,0-10.53-3.58-10.53-33.82V554.82H438.8c26.21,0,40.54,13.67,40.54,37C479.34,617.54,464.33,628.07,438.13,628.07Z"/><path d="M953.09,480v2.69l4.71.22c14.56.67,15,17.7-4.71,39.2l-13.21,14.34c-17.7,19.26-24.19,22.17-33.6,22.17h-7.39V516.74c0-30.91,2-33.37,13.21-33.82l4.71-.22V480H862.6v2.69l4.7.22c11.2.45,13.22,2.91,13.22,33.82v77.51c0,30.91-2,33.37-13.22,33.82l-4,.19-1.55-.19c-9.18-1.12-12.09-3.81-25.08-35.84l-47-114.69h-2.24l-40.1,104.61c-.32.84-.64,1.66-1,2.47h0l-2.14,5.55-.15.39c-6.77,16.88-11.4,26.07-15.52,31.13l0,0c-4,4.93-7.52,5.95-12,6.36H697l-2,0h-15.9c-9.86,0-10.53-3.58-10.53-33.82V554.82h13.21c10.08,0,21.51.45,26.44,18.82l1.34,4.93h2V528.39h-2l-1.34,4.93c-4.93,18.37-16.36,18.82-26.44,18.82H668.62v-35.4c0-30.24.67-33.82,10.53-33.82h11.42c20.83,0,37.18,2.46,45.7,29.12l2.46,7.62h2V480H632.33v2.69l4.71.22c11.2.45,13.21,2.91,13.21,33.82v77.51c0,30.91-2,33.37-13.21,33.82l-.92,0h0l-.83,0c-8.52-.45-15.68-9.18-24.64-23.74-2.24-3.81-8.29-14.11-12.1-20.16-9.18-14.34-18.59-21.06-38.75-27.11,10.3.23,19.49-.44,29.79-4.25,14.34-5.6,25.31-18.37,25.31-34.72,0-25.31-22.4-38.08-48.61-38.08H493.68v2.69l4.7.22c11.2.45,13.22,2.91,13.22,33.82v77.51c0,30.91-2,33.37-13.22,33.82l-4.7.22V631h54.21v-2.69l-4.71-.22C532,627.62,530,625.16,530,594.25V557.06h14.56c15.68,0,21.72,4.48,34.49,26.66,4.26,6.94,11,20.38,15.46,28.67,4.7,8.74,7.39,14.34,9.41,18.59H761.13v-2.69l-4.71-.22c-9.4-.45-11.42-6.72-11.42-15.23a87.69,87.69,0,0,1,5.83-30.91l4.92-13.22h52.42L818,593.8c10.76,27.33,12.32,33.82-.22,34.27l-5.82.22V631H916.81v-2.69l-4.71-.22c-11.2-.45-13.21-2.91-13.21-33.82V561.32h13c10.3,0,14.56,4.93,26,22.17,4.71,7.4,12.77,20.39,17.7,28.68,4.93,8.73,7.84,14.33,9.85,18.81h35.4v-2.69l-4-.22c-7.39-.45-14.56-6.72-24-22-2.92-4.48-10.31-15.9-16.36-24.86-12.76-19.49-17.92-26-27.32-29.35L941,539.82l11.87-12.77c32.93-35.62,41.66-43.68,51.29-44.13l3.59-.22V480ZM530,554.38V516.74c0-30.24.67-33.82,10.53-33.82h26.65c16.8,0,26.88,12.54,26.88,35.62,0,19-4.93,35.84-31.81,35.84ZM756.87,566l24.87-65.4L807.05,566Z"/></g></g></g></svg>