<svg width="244" height="303" viewBox="0 0 244 303" fill="none" xmlns="http://www.w3.org/2000/svg">
<path d="M105.011 269.968C89.8607 241.587 56.2787 219.854 47.9364 188.385C39.9293 158.18 84.9709 150.902 105.908 151.352C131.986 151.913 166.437 176.983 139.211 202.973C110.472 230.408 60.4675 228.399 23.8281 235.629C22.968 235.799 2.70985 241.44 5.21428 236.976C14.8856 219.735 38.4038 205.649 53.3187 193.771C82.4459 170.574 112.342 147.395 144.257 128.123C163.776 116.336 185.995 105.865 209.069 104.108C243.159 101.512 240.032 146.509 237.663 169.981C234.218 204.109 207.597 237.232 171.842 239.22C141.819 240.889 117.591 214.369 96.7136 196.128C82.3311 183.562 66.9975 168.225 66.6623 148.098C66.5826 143.312 66.8823 140.008 66.5502 147.986C65.8659 164.421 64.4909 180.779 64.644 197.25C64.994 234.911 76.4149 267.808 106.581 291.739C125.262 306.559 132.98 292.967 134.838 272.886C136.455 255.41 135.976 237.256 117.121 230.018C109.371 227.043 90.8601 224.417 82.8093 227.998C80.0279 229.235 96.0592 229.569 98.9562 229.569" stroke="#DBFF00" stroke-width="10" stroke-linecap="round" stroke-linejoin="round"/>
<path d="M139.835 202.31C164.484 165.79 142.118 120.428 96.2977 102.827C68.4748 92.1396 10.5434 82.8977 10.0678 120.082C9.88966 134.013 9.77371 147.68 13.6725 161.331C16.0581 169.684 20.0084 177.401 23.7542 185.37C29.9449 198.541 38.5492 209.078 48.0856 220.913C57.7341 232.887 85.4789 230.273 96.8609 221.452C127.098 198.018 102.535 159.634 83.6251 137.786C75.1744 128.021 70.4826 116.704 64.4754 105.883C55.3276 89.4029 53.9943 71.994 55.1259 54.1188C56.088 38.9221 57.1126 23.1302 70.2204 11.0723C78.7914 3.18776 88.8132 2.89073 96.692 10.7128C110.534 24.4551 116.681 44.1929 111.899 61.5329C104.415 88.6718 46.5 103.327 37 146" stroke="#DBFF00" stroke-width="10" stroke-linecap="round" stroke-linejoin="round"/>
</svg>
