<svg xmlns="http://www.w3.org/2000/svg" xmlns:xlink="http://www.w3.org/1999/xlink" viewBox="0 0 46.86333 55.11392"><defs><style>.a{fill:url(#a);}</style><linearGradient id="a" y1="27.55696" x2="46.86333" y2="27.55696" gradientUnits="userSpaceOnUse"><stop offset="0" stop-color="#fff"/><stop offset="0" stop-color="#424242"/><stop offset="0.18963" stop-color="#373737"/><stop offset="0.51884" stop-color="#1b1b1b"/><stop offset="0.75841" stop-color="#020202"/></linearGradient></defs><title>2_1_Detail2</title><path class="a" d="M46.86333,16.227a16.83835,16.83835,0,0,0-5.67507,1.98134A23.70285,23.70285,0,0,1,27.95061,21.2792c-3.07512-.25234-3.98489.84847-4.07124,4.228-.07652,2.99512.0498,5.996-.05107,8.98963-.03624,1.07566.89115,2.87434-1.50846,2.82956-.14433-.0027-.46073.82616-.43242,1.25043.30537,4.57658-.623,9.18264.4497,13.7703.17408.74448-1.11441,1.97837-1.96011,2.72012-.24.21051-1.58035-.32968-1.93894-.85272-1.07553-1.56878-1.12769-3.63685-1.79542-5.23566-.795-1.90363-.79047-3.93586-1.60891-5.831-.78785-1.8243.00216-4.2726-.21017-6.41612-.33269-3.35855,1.12544-6.8896-.93924-10.093a1.3219,1.3219,0,0,1,.045-.95923c.23575-.70083.544-1.37728.82294-2.06359-.94533-.12964-2.1229-.68331-2.79546-.31494-2.79525,1.531-5.74619.70037-8.61794.92063-.49659.03809-1.1289.19781-1.47138-.03409C1.12176,23.6826.02933,22.98287.00064,22.3227a2.67034,2.67034,0,0,1,1.65779-2.00132,22.91571,22.91571,0,0,1,4.47449-.1011c1.11246-.02013,2.23837.26575,3.17042-.85146a8.63463,8.63463,0,0,1,2.36754-1.44936c-.80355-.56415-1.544-1.42576-2.42745-1.61329-.99-.21014-1.455-.40389-1.39884-1.47369.04494-.85674-.038-1.58724,1.19989-1.65647.54489-.03048,1.035-.66691,1.59686-.927.27423-.127.82822-.16264.96133.00048.98251,1.204,2.351-.09075,3.43676.61393,1.0316.66954,2.28228.80164,3.00392-.37876.77083-1.26083,3.66457-.88136,2.74413-3.20357-.52951-1.33591,1.74663-1.954.3849-3.35749-.68053-.70138-.77072-1.98074-1.11023-3.00455a4.59526,4.59526,0,0,1-.19472-.91756C19.65842.1803,20.48059-.36095,22.548.227c2.66911.75909,2.71779.84235,2.32161,3.64367a4.14153,4.14153,0,0,0-.00124.99761,43.10112,43.10112,0,0,1,.44816,4.36978,35.53526,35.53526,0,0,1-.45593,4.29271c-.14894,1.21884.2127,1.75875,1.59731,1.74419,1.40992-.01483,3.41094-.92474,3.75519,1.71183.02047.15675,1.19.156,1.82309.2415,3.27368.44242,6.41224-.42336,9.57121-1.02742a2.5656,2.5656,0,0,0,1.59893-.87959c1.23031-2.00092,2.42811-.75435,3.657-.09428Z"/></svg>