<svg xmlns="http://www.w3.org/2000/svg" xmlns:xlink="http://www.w3.org/1999/xlink" viewBox="0 0 90.26451 92.36204"><defs><style>.a{fill:url(#a);}.b{fill:url(#b);}.c{fill:url(#c);}.d{fill:url(#d);}.e{fill:url(#e);}.f{fill:url(#f);}</style><linearGradient id="a" x1="32.60988" y1="18.9989" x2="54.16887" y2="18.9989" gradientUnits="userSpaceOnUse"><stop offset="0" stop-color="#fff"/><stop offset="0" stop-color="#424242"/><stop offset="0.18963" stop-color="#373737"/><stop offset="0.51884" stop-color="#1b1b1b"/><stop offset="0.75841" stop-color="#020202"/></linearGradient><linearGradient id="b" x1="0" y1="55.97301" x2="41.00489" y2="55.97301" xlink:href="#a"/><linearGradient id="c" x1="55.88742" y1="44.88021" x2="90.26451" y2="44.88021" xlink:href="#a"/><linearGradient id="d" x1="16.37381" y1="86.77132" x2="58.63375" y2="86.77132" xlink:href="#a"/><linearGradient id="e" x1="69.09375" y1="76.12198" x2="81.66435" y2="76.12198" xlink:href="#a"/><linearGradient id="f" x1="40.98919" y1="55.49231" x2="45.4923" y2="55.49231" xlink:href="#a"/></defs><title>2_3_Detail</title><path class="a" d="M41.68286,1.04419c0-.17325-.03662-.48775.00547-.49866.67809-.17577,1.293-.65091,2.0278-.52438a1.03232,1.03232,0,0,1,.66114.45053A5.35319,5.35319,0,0,1,45.09438,2.241a5.63021,5.63021,0,0,0,.61827,2.00972,4.28416,4.28416,0,0,1,.45386,1.87778c.00925,1.29695.62809,2.5263.377,3.8419a.69033.69033,0,0,0,.05416.32122c.17624.5338,1.053,1.559,1.213,1.42491a2.467,2.467,0,0,0,.82885-1.73421,4.21739,4.21739,0,0,0-.80766-2.96881,1.55661,1.55661,0,0,1-.13449-.36494c.15637.00407.3703-.05685.45994.02255a2.99858,2.99858,0,0,1,1.176,2.28641,11.63864,11.63864,0,0,1-.57142,3.23488,3.08,3.08,0,0,0-.11051,1.49409,1.54786,1.54786,0,0,0,1.33438,1.20026c.70469.04707.87739.43611,1.17009.95449.30732.54428.1026.84019-.04276,1.34172a4.59824,4.59824,0,0,1-.90153,1.89318,1.13716,1.13716,0,0,0-.17735.77248c.00755.1011.35881.28709.48775.2428.19629-.06742.3186-.324.502-.46047a1.20727,1.20727,0,0,1,1.40044-.0315c.14547.08154.23029.26928.3745.35545.4485.268.91218.51056,1.37.763a13.92154,13.92154,0,0,1-1.29341,1.53378c-.55394.50009-1.39764.69193-1.56651,1.58495-.02793.14768-.23313.26561-.2517.41069-.134,1.047-.23345,2.09841-.35989,3.14647-.065.5389.16145,1.09019-.30276,1.62476a1.09071,1.09071,0,0,0,.1963,1.263.796.796,0,0,1,.05286.77542c-.31213.35547-.35862,1.01092-1.16481.88886-.79138-.1198-.76389.00667-.86928.76154-.19692,1.41052-.45385,2.81265-.68141,4.219-.01822.11255.0469.28447-.01063.33712-.30543.27952-.649.74977-.95775.73393-.37831-.01941-.49035-.55589-.42021-.983a22.84444,22.84444,0,0,1,.45388-2.586c.3566-1.24707.555-2.52841.88783-3.7814.21523-.81018.16368-.88416-.7874-.79808a8.69039,8.69039,0,0,0-2.224.47564,1.51417,1.51417,0,0,1-1.20945-.01594,2.24878,2.24878,0,0,0-2.2365.20872c-.56933.44056-.92859,1.115-1.63455,1.412-.12429.0523-.19783.39875-.17559.5959.09945.88157-.26161,1.79022.27317,2.6602.24107.39218-.42042,1.21251-.88255,1.23545-.05761.00286-.11549.00039-.17324.00039a4.60908,4.60908,0,0,0-1.7115.04837c-.436.18943-.68667.79545-1.03192,1.20695-.23291.2776-.38835.3767-.874.22681-.73251-.22608-1.03634-.22889-.79324-.81351.59184-1.42331.48393-2.93646.7531-4.3843.23185-1.24714.15446-2.45987.26981-3.68252.04145-.4394-.10071-.63819-.56676-.585a2.55512,2.55512,0,0,1-.863-.0048A1.72844,1.72844,0,0,1,32.69764,27.195a5.542,5.542,0,0,1-.00919-1.89514,1.05847,1.05847,0,0,1,.494-.643c.35935-.22036.80932-.29472,1.16395-.52042.26685-.16985.52723-.35566.69909-.037a1.2216,1.2216,0,0,1-.066.798c-.04359.14605-.225.34714-.35427.35475-.546.03215-.61622.34238-.57843.78949.02908.344-.00426.693.01218,1.03872a.87653.87653,0,0,0,.13292.2891c.08167-.05893.161-.12146.24539-.17622a1.71667,1.71667,0,0,0,1.03773-1.81151c-.19833-1.72148.5476-3.36621.68789-5.077.03608-.44.5345-.828.63431-1.281.09014-.409.07527-1.12328-.15742-1.263-.49159-.29512-.71743.38542-1.04295.65853a2.17545,2.17545,0,0,0-.84441,1.72065c.00065.097.08481.19336.13031.29a1.17307,1.17307,0,0,0,.20746-.18749c.18221-.26622.35252-.54059.52734-.81187.283.36147.1058.67214.00981,1.07a15.77136,15.77136,0,0,0-.1961,2.3538c-.01011.11957-.13594.22936-.20824.34367q-.065-.14634-.12991-.29269c-.32393-.73208-.69175-1.449-.95214-2.203a1.93231,1.93231,0,0,1-.01634-1.14938c.31209-.963.73694-1.88886,1.07488-2.84438.23232-.65689.40634-1.33553.58349-2.01047a7.37557,7.37557,0,0,1,.42842-1.725,9.30072,9.30072,0,0,0,1.09625-2.84626A24.78512,24.78512,0,0,1,38.30744,7.423c.301-.95077.29229-2.11046,1.29441-2.75152a2.08915,2.08915,0,0,1,.35605-1.58233,4.84264,4.84264,0,0,1,.68445-.65767,9.23918,9.23918,0,0,1-.14808,1.67077c-.06667.25575-.35826.48081-.04766.69956.10489.07387.39144-.06668.57278-.15487a3.09361,3.09361,0,0,0,.82819-.49114.861.861,0,0,1,1.437.04487,1.24137,1.24137,0,0,0,.38983.30586c.36629.16686.69439-.12721.79849-.51487.19407-.72272-.30681-1.27258-.38494-1.93071C43.90748.54108,43.68613.45937,42.19807,1.03638A1.52064,1.52064,0,0,1,41.68286,1.04419ZM40.37921,22.60311a13.5688,13.5688,0,0,0,3.13439-.79669c1.14-.59348,2.38923-1.30426,2.01291-3.06425-.16017-.74908.37869-1.88012,1.00545-3.02587a1.52947,1.52947,0,0,0,.041-1.808,5.376,5.376,0,0,1-.78571-2.10079,31.02346,31.02346,0,0,0-1.27639-3.95422c-.32494-1.01384-.7206-1.88635-2.04757-1.61194a.71845.71845,0,0,1-.31953-.05627c-.30772-.09091-.67114-.34011-.90574-.24969a1.627,1.627,0,0,0-.8621.78752c-.32238.78857-.96022,1.48556-.78376,2.44879a1.44256,1.44256,0,0,1-.29989,1.08968,2.93131,2.93131,0,0,0-.35937,1.56146,1.64884,1.64884,0,0,1-.64962,1.47474A.82329.82329,0,0,0,38.06,14.60106c.44194.58289.71536-.12714,1.085-.1399.23054-.008.3606-.36216.47709.1525.102.4507.50843.76664.178,1.35979-.548.98371.14027,2.23044-.54509,3.22988.68839.79889.30663,1.75111.31537,2.62413C39.5771,22.49707,39.79313,22.64548,40.37921,22.60311Zm3.40048,6.62224a3.7904,3.7904,0,0,0,2.66167-.78271,8.80092,8.80092,0,0,0,1.40172-1.16614c.38836-.46666-.20272-.8984-.26306-1.36617a.5058.5058,0,0,1,.00061-.172c.1854-.82181-.34962-.76287-.89308-.77157-.64434-.01031-1.24615-.01684-1.64432.629a1.78924,1.78924,0,0,1-1.92138.77408,4.57209,4.57209,0,0,0-3.18906,1.03543c-.11881.08382-.33146.2227-.31428.28282.23464.82135-.41078,1.49687-.35412,2.2751.014.19164.097.47183.23266.53776a.73716.73716,0,0,0,.64972-.02978c.403-.319.71192-.759,1.12136-1.067a2.05076,2.05076,0,0,1,1.06738-.45325A6.355,6.355,0,0,1,43.77969,29.22535Zm4.38251-13.961c-.53909-.033-.74465.27122-.94888.74332-.47415,1.09609-.03124,2.15639.05329,3.21676.05088.63822,1.04152.767,1.48359.23464.3117-.37535.82175-.80851.79856-1.18874-.03742-.61339.97213-1.10057.15191-1.78878C49.38734,16.21866,48.46636,15.29367,48.1622,15.26436Z"/><path class="b" d="M2.14381,69.83709c0-.98245-.04308-1.96742.01444-2.94649.04157-.70774.31832-1.40921.30741-2.11063a27.95633,27.95633,0,0,0-.32061-2.80421c-.10343-.87845.22294-1.79381-.3239-2.64567-.15763-.24555-.01868-.67807-.02539-1.02469a2.78576,2.78576,0,0,0-.329-1.77566,2.33661,2.33661,0,0,1-.34953-1.05952,9.31739,9.31739,0,0,1-.01245-1.38517c.06123-2.67614-.568-5.3187-.37134-8.00655a9.53,9.53,0,0,0-.31459-1.76292A3.50705,3.50705,0,0,0,.103,42.70189a1.80556,1.80556,0,0,1,.06436-1.32058.88047.88047,0,0,1,1.00591-.46868c.08072.008.28459-.24036.26125-.32113-.22169-.767.83223-.92365.74838-1.6081.85157-.27858.97937-1.27371,1.69075-1.70267a16.13331,16.13331,0,0,1,2.93753-.87345,2.75163,2.75163,0,0,1,2.08636.78991,3.20965,3.20965,0,0,1,.46474,4.66452c-.24345.24689-.49047.49026-.73524.73587a3.133,3.133,0,0,0-.6122,2.18166c-.06989.75173.824.91938.821,1.59433a1.25525,1.25525,0,0,0,.76891.06919c1.1025-.6791,2.301-1.12579,3.01074-2.45469a12.54654,12.54654,0,0,1,2.71629-2.86,1.5423,1.5423,0,0,1,1.1554-.459,2.16917,2.16917,0,0,1,1.2296.90862,5.8366,5.8366,0,0,1,.77441,1.93866c.18367,1.06224.5121,2.11732.62273,3.19066a32.24606,32.24606,0,0,1,.0247,3.29153c0,.23116-.01537.46384.00721.69278.00966.098.09208.26221.15239.26733a.6977.6977,0,0,0,.4608-.0869c.35315-.28683.667-.6217,1.01528-.91517.05592-.04712.22017.00324.31445.04927.03393.01657.03682.1654.00653.2325a2.13012,2.13012,0,0,1-.37211.70665,1.63,1.63,0,0,0-.24815,2.26029.98132.98132,0,0,1,.04741.4975c-.02.43664.27162.39619.56484.41293.375.02141.51848-.12933.48055-.49572A4.39466,4.39466,0,0,1,23.265,49.8189c.68167-.62461.993-1.77795,2.25249-1.62357.05359.00657.12459-.26509.2134-.38849a1.98663,1.98663,0,0,1,2.87962-.70383,3.68606,3.68606,0,0,1,2.41378,2.41117c.04812.20441.2222.38637.24329.58858.06441.61778-.11872,1.36622.17046,1.82877.35011.56-.17175,1.32145.53346,1.697-.10877.53727.20754,1.09755-.24648,1.64255-.294.35292-.0183.70232.41177.55956a6.81566,6.81566,0,0,1,3.014-.70532c1.0268.11741,2.07823.003,3.11765.03214.76822.02153,1.33419-.08159,1.35025-1.059.0116-.70556.8766-.58567,1.19619-1.02838.0581.0575.14907.10644.16677.17445.02818.10825.03216.32382.004.33115-1.14709.29866-.83674,1.51016-1.353,2.206-.10921.14722.25259.58528.25422.8901.00157.29288-.25865.58336-.27189.88077-.05788,1.3-.96525,1.90358-1.95138,2.43394-.08826.04747-.46255-.17356-.46531-.27632a1.59527,1.59527,0,0,1,.2742-1.2772,3.23749,3.23749,0,0,0,.39026-1.3832c.07328-.34294-.05907-.51144-.45007-.52051a10.905,10.905,0,0,1-3.16879-.281,1.12745,1.12745,0,0,0-1.61349,1.07557c-.03238.58485-1.03468.7202-1.01275,1.47513-.11328-.0155-.31876-.01227-.32627-.04926-.16123-.7938-.87638-1.387-.73853-2.31515a1.86581,1.86581,0,0,0-.34992-1.38031,1.65842,1.65842,0,0,0-1.60939-.58934c-.254.06441-.50577.35273-.72175.31695-1.2089-.2003-2.31867.45536-3.50022.36205-1.04847-.08279-1.92744-.01083-2.20728,1.286-.10692.49553-1.04385.37854-1.077,1.08668-.00032.0068-.36126.0666-.43851-.01187-.38393-.39-.94639-.67742-.82851-1.391.03948-.239.13347-.65788-.336-.60222-.34858.04133-.93442-.315-1.0139.26653-.13982,1.02288-1.401,1.14576-1.549,2.1096-.62027-.05082-.56679.3727-.56521.77957.00036.0937-.09689.18778-.14922.28169-.06328-.07842-.17732-.15392-.182-.2357a3.58065,3.58065,0,0,1,.6622-2.322,7.72535,7.72535,0,0,0,1.13131-3.01319,44.624,44.624,0,0,0,.2961-5.24342,9.80354,9.80354,0,0,0-.49954-2.93438,4.82919,4.82919,0,0,1-.19788-1.11367,2.45309,2.45309,0,0,0-.62224-1.47606.83652.83652,0,0,0-.72356-.26715,4.24128,4.24128,0,0,0-1.14941.56007.66374.66374,0,0,0-.19068,1.02709,2.18162,2.18162,0,0,1,.522,2.527,11.03528,11.03528,0,0,0-.28089,2.30328c-.02067.2714-.04774.7512-.14513.77074a2.361,2.361,0,0,1-1.149-.04108c-.42674-.13775-.50684-.84543-1.10936-.774-.43715.05181-.874.11323-1.30678.19325-1.20127.22213-2.31764-.35635-3.49738-.37006a1.03359,1.03359,0,0,1-.67371-.42737,6.39286,6.39286,0,0,1-.42337-5.24009,7.41393,7.41393,0,0,1,1.33054-1.695c.69206-.64263.37318-1.41426.33586-2.10019a1.32806,1.32806,0,0,0-.92823-.88007,3.6474,3.6474,0,0,0-3.129.76773c-.83337.78685-1.60527,1.58733-1.44856,2.87418a.9427.9427,0,0,1-.14444.45521,8.109,8.109,0,0,0-.86551,3.96583c.08363,1.39876-.39475,2.84592.314,4.19666-.51429.487-.49341.81757.262.97867.0517.011.09591.30738.05834.4483a8.18319,8.18319,0,0,0-.02238,4.43182,4.62534,4.62534,0,0,1,.05865,1.01678,3.10385,3.10385,0,0,0,.55542,2.37544.5162.5162,0,0,1,.1259.44962,2.29162,2.29162,0,0,0-.01765,1.80819,10.12557,10.12557,0,0,1,.03172,2.0737A8.33334,8.33334,0,0,1,3.156,66.112a19.09377,19.09377,0,0,0-.31217,4.89168c-.00474.83623.02791.80493,1.12551.89416a1.47375,1.47375,0,0,1,.94239.44821c.58449.7191,1.08732,1.5054,1.60647,2.27593a.8847.8847,0,0,1,.12544.463,1.97461,1.97461,0,0,1-.1077.47169c-.07672-.10375-.15913-.20383-.22918-.31191a6.08207,6.08207,0,0,0-.89528-1.34394c-.59969-.5225-1.08615-.447-2.10322.022-.22566.10408-.59493.2921-.68872.208a1.34175,1.34175,0,0,1-.45512-.82725C2.11428,72.15,2.14381,70.9929,2.14381,69.83709ZM30.86537,52.85467c-.02078-.02393-.095-.10223-.16123-.18676a3.86771,3.86771,0,0,1-.499-2.05232,8.00712,8.00712,0,0,0-.75166-2.27464,1.61826,1.61826,0,0,0-.9347-.607c-.40164-.13024-.95641-.30495-1.25952-.13333a3.75522,3.75522,0,0,0-2.26168,3.52577c.01212.37372.51984,1.22161-.37059,1.19731-.54969-.015-.15656-.75865-.29-1.14877a4.68254,4.68254,0,0,0-.25777-.53356c-.18844.10231-.4572.15675-.55158.31511a16.14928,16.14928,0,0,0-1.203,2.26837c-.10622.26789.12736.71636.2953,1.03508.19389.368.381-.13814.45459-.09153a1.286,1.286,0,0,0,1.7841-.056c.992.84,1.547-.09953,2.27432-.50952.61334-.34576,1.28163-1.02481,2.03-.08783.15983.20012.60327.19562.92233.23688a.55141.55141,0,0,0,.4473-.13511A4.03591,4.03591,0,0,0,30.86537,52.85467Z"/><path class="c" d="M80.7704,39.86374c.1505-1.56615.21741-3.14645.47939-4.69372a5.74837,5.74837,0,0,1,1.58337-2.98388c.40179-.42315.84863-.23811,1.28088-.26718.66559-.04476,1.24061-.34781,1.24216-.94793.00375-1.45358.98545-2.49774,1.38337-3.76895a1.78124,1.78124,0,0,1,.92418-1.13643,3.1078,3.1078,0,0,1,1.70413-.00851.94725.94725,0,0,1,.49434.7838c-.1596,1.09821.42263,2.08273.38523,3.1547-.03625,1.03884-.05449,2.08294.01238,3.11872a1.617,1.617,0,0,1-.38242,1.23031c-.85832.931-.96047,2.15074-1.37941,3.25037a4.643,4.643,0,0,0-.34236,2.113,5.05516,5.05516,0,0,1-.32061,2.11752c-.226.66623.00813,1.37879-.29044,2.13351a11.44439,11.44439,0,0,0-.39925,2.429A41.17581,41.17581,0,0,1,85.23,53.74918c-.48064,1.41838-1.10841,2.788-1.46408,4.24592a21.9545,21.9545,0,0,1-.44414,2.24357c-.14493.40888.16289.61389.59443.32836.3617-.23931.5385-.25839.86377.0253.35957.3136.01332.41214-.06086.63442-.06431.19268.51845.4311.70425.29973.22389-.1583.42619-.40029.673-.45946.30053-.072.74016-.1432.67576.44133-.00629.05708.006.11643-.00192.1731-.06592.4722-.13456.944-.20238,1.41593-.04779-.44247-.08282-.88695-.15186-1.32608-.0185-.11755-.14083-.21876-.21549-.32747a1.81674,1.81674,0,0,0-.24156.24757c-.08906.13281-.2469.31125-.21324.42.25688.8301-.70513.571-.87237,1.0064-.29848-.25869-.62385-.49095-.5426-.97692.01825-.10914-.12421-.24516-.19268-.36881a1.64249,1.64249,0,0,0-.13851.28889c-.16179.61781-.68994.97539-1.0087,1.46774-.22467.347-.44.2676-.68857.28786-.44992.03665-.3829-.29969-.38663-.57684a14.34916,14.34916,0,0,1,.62721-3.3753,54.5693,54.5693,0,0,1,2.07077-6.94659c.19587-.52656.07085-1.33589.46042-1.69284.572-.52406.25132-1.16663.49181-1.729a12.86719,12.86719,0,0,0,.4901-2.73792,29.24954,29.24954,0,0,0,.71536-5.42936c.59566-.59106.10748-1.44741.47261-2.05416.39865-.66247.10342-1.33742.22792-1.991a1.82215,1.82215,0,0,1,.2463-.58909c.61716-1.00979.64955-2.34219,1.71187-3.10538a7.898,7.898,0,0,0-.07962-2.304c-.11079-.34277.35236-.46882.04954-.78075a1.27114,1.27114,0,0,1-.18256-.94087,1.2462,1.2462,0,0,0-.578-1.15661c-.52-.46925-1.07749-.44344-1.41508.12467a5.7915,5.7915,0,0,0-.44941,1.198,6.84849,6.84849,0,0,1-.36869,1.23184c-.22678.40935-.562.70808-.00015,1.12488.39863.29571-.64249.55429-.08133.96052.2087.1511.64149.33737.18226.75951-.06653.06115.33405.59341.47616.92576a1.14975,1.14975,0,0,1-1.02479,1.70393c-.45083.00275-.53614-.17159-.6265-.56417-.13071-.56795-.41845-1.098-.583-1.66058-.09972-.34091-.12347-.68222-.61235-.56445-.32477.07824-.78375-.24835-.8743.47626-.05413.43319-.5156.814-.78883,1.22183a4.0901,4.0901,0,0,0-.26884,1.55125,7.00794,7.00794,0,0,1-.13755.93865c-.03383.311-.16638.71555-.025.91816.24286.34808.30357.54577-.00547.87114a.67221.67221,0,0,0-.10427.62476c.96335,1.4815-.30661,2.92646-.04609,4.40905.1412.8036-.80516.80322-1.27165,1.09688a.79182.79182,0,0,1-1.10249-.52282,21.45923,21.45923,0,0,1-1.11227-3.01914,5.771,5.771,0,0,0-1.7617-3.23921.57284.57284,0,0,0-.56284.02441c-.289.32079-.718.714-.70705,1.06713.02674.86209-.40164,1.80821.43,2.59231.36622.3453.44281,1.26034.77444,1.33019.96884.20406.22485.8856.49279,1.22037.24885.31092.56231.57011.8114.88086a1.62879,1.62879,0,0,1-.10636,2.59138,1.188,1.188,0,0,0-.323,1.38787c.7914.988-.52117,1.42536-.4351,2.1818a3.16393,3.16393,0,0,1-2.70235-.74507c-.39281-.29318-.559-.07486-.85824.12029-.64046.41777-.64,1.16451-.83992,1.73862a12.66677,12.66677,0,0,1-.63129,1.47518A2.09016,2.09016,0,0,1,69.167,56.05359c-.55933-.22078-.94069-.31714-1.317.16125-1.14339,1.45365-2.93206,1.84414-4.449,2.6651-.94583.51189-1.58084-.03357-1.6-1.17862-.01062-.63544.0044-1.27128-.00372-1.9068-.0078-.61155.18475-1.30594-.52737-1.68034-1.05924-.55691-2.10142-1.28509-3.37047-1.00067-.2679.06-.507.6644-.5848,1.05292a5.49618,5.49618,0,0,0-.0171,1.5546,10.27431,10.27431,0,0,1-.77629,4.88263c-.1009.24719-.18806.50055-.26988.75482-.10781.335.2384.76828-.22157,1.02874-.0423-.32918-.09443-.65745-.12516-.98771-.12642-1.35907.48378-2.64166.36889-4.01856-.11012-1.31983-.03605-2.65622-.01872-3.985a2.17876,2.17876,0,0,1,1.59243-1.71287,3.12169,3.12169,0,0,1,3.04226,1.01084c.43637.57652,1.28264.24539,1.72347.94843.31007.4945.68466.87658.57779,1.50552a3.01638,3.01638,0,0,0-.00417.51931c.011,1.61638.24033,1.76727,1.672,1.108a1.61116,1.61116,0,0,1,.595-.22357c.35193-.00191.5333-.08612.51238-.475-.02169-.40332-.00858-.80876-.00418-1.21319.01711-1.56786,1.007-2.21657,2.44579-1.59868.24551.10542.46979.26127.71691.36179a1.40118,1.40118,0,0,0,1.88093-.56332,7.3601,7.3601,0,0,0,1.35528-2.38885,1.29937,1.29937,0,0,1,1.59782-1.08944,1.70136,1.70136,0,0,0,.93582-.12283,4.06569,4.06569,0,0,0-.13379-1.27827c-.05161-.22049-.38189-.50843-.32416-.59923.27253-.42868.26574-1.18376,1.05291-1.10056.71126.07518.61388-.47077.50283-.78039a6.04046,6.04046,0,0,0-.77443-1.23751c-.30538-.45289-.64057-.88665-.92913-1.34971-1.1018-1.76807-.77932-3.33817.45243-4.969a2.34155,2.34155,0,0,1,2.1713-1.04171c.36033.00857.35816.27667.52518.45392.80555.85489,1.07537,2.04933,1.989,2.855a2.35907,2.35907,0,0,1,.40257,2.06166c-.06324.51552.21953.54238.61293.54348.41442.00116.44288-.2207.43771-.54414-.01386-.86653-.00473-1.73342-.00473-2.60017Z"/><path class="d" d="M49.875,92.32424c-2.83031-.10741-5.01286-.6266-7.234-.40961a10.63469,10.63469,0,0,0-4.56147-.74455,1.97578,1.97578,0,0,1-1.02692-.32427c-.67634-1.01807-1.838-.9264-2.7581-1.36049-.96623-.45583-1.91172-.95934-2.89444-1.37549a20.13906,20.13906,0,0,1-2.83153-1.08933,4.98329,4.98329,0,0,0-2.67993-.6942c-.54509-.01459-1.06592-.5609-1.62274-.61646a10.09226,10.09226,0,0,0-1.75959.288,1.57526,1.57526,0,0,1-.73221-.297c-.52225-.27518-1.36575-.47295-1.48093-.87389-.21711-.75575-.863-.55527-1.22424-.8882-.29017-.26739-.72181-.46785-.86076-.79551-.335-.79-.76677-1.34066-1.69876-1.327-.04711.00069-.15339-.19332-.133-.27047.03654-.13819.16415-.37327.22669-.365a10.92219,10.92219,0,0,1,1.92822.35636c.2534.08212.41928.46125.60545.71936a4.3863,4.3863,0,0,0,3.76667,2.03291,3.40911,3.40911,0,0,1,2.55168.54848,1.00136,1.00136,0,0,0,.94686.11044c.50534-.41776.93428-.11466,1.26425.09476A31.064,31.064,0,0,0,30.745,86.39658c1.34971.66893,2.84056.93853,4.1724,1.65057.38854.20771.82308.61336,1.394.41165a.69394.69394,0,0,1,.46214.11425,7.98315,7.98315,0,0,0,2.91281.91485,4.61065,4.61065,0,0,1,1.10321.24695,5.1079,5.1079,0,0,0,2.42227.45854,6.68581,6.68581,0,0,1,2.57278.46961,16.77567,16.77567,0,0,0,5.22225.073c.378-.03855.74874-.19069,1.12467-.19816a6.82666,6.82666,0,0,0,2.62971-.49065,6.87012,6.87012,0,0,1,3.23316-.55559,4.26454,4.26454,0,0,1,.6394.12462c-.22934.07247-.46573.128-.68688.22017-1.28015.53338-2.52825,1.16239-3.84185,1.59193C52.54051,91.93991,50.95977,92.51623,49.875,92.32424Z"/><path class="e" d="M81.66435,67.1231a4.04119,4.04119,0,0,1-.46177,1.33386c-1.0798,1.18614-1.19454,2.75532-1.66243,4.15855a7.8853,7.8853,0,0,1-1.18491,2.64106c-.73031.922-1.24175,2.01994-1.96608,2.98258-1.05913,1.4076-3.65158,4.653-4.69194,5.28832a3.76334,3.76334,0,0,0-1.2297,1.55816,1.35655,1.35655,0,0,1-.19658.21346.90323.90323,0,0,1-.141-.28527,3.00227,3.00227,0,0,1-.00138-.69032.95471.95471,0,0,0-.61487-1.079c-.13783-.0662-.27985-.12369-.41995-.18518a1.65734,1.65734,0,0,0,.44741-.16775,15.08532,15.08532,0,0,1,2.5421-1.3818c.19118-.09483.46217-.13609.56226-.28952.576-.883,1.50607-1.47248,1.98831-2.42842a1.70372,1.70372,0,0,1,.33131-.54983c1.42522-1.20363,2.194-2.90087,3.27455-4.36082a5.58838,5.58838,0,0,0,.90776-2.55938,8.84871,8.84871,0,0,1,.99143-3.22568,5.95233,5.95233,0,0,1,.946-1.13731C81.14231,66.89812,81.42515,67.05074,81.66435,67.1231Z"/><path class="f" d="M41.99972,52.37443a1.72423,1.72423,0,0,1,1.42218,1.30624,12.366,12.366,0,0,0,.26757,2.80818,2.40966,2.40966,0,0,0,1.527,1.78578,1.5664,1.5664,0,0,1,.27579.16481c-.14357.05972-.31994.20493-.4251.16457a9.69,9.69,0,0,1-1.4447-.66237,1.38623,1.38623,0,0,1-.57428-1.31219c-.025-.70119-.22837-1.39426-.318-2.09554-.057-.446.11849-1.05086-.11489-1.30759-.21941-.24135-.83985-.10941-1.28117-.16353a1.20586,1.20586,0,0,1-.345-.16566,2.94456,2.94456,0,0,1,.272-.173C41.4987,52.60582,41.74066,52.49635,41.99972,52.37443Z"/></svg>