<svg xmlns="http://www.w3.org/2000/svg" viewBox="0 0 458.67 163.55"><g id="Layer_2" data-name="Layer 2"><g id="Layer_1-2" data-name="Layer 1"><path d="M36.21,152.18l-.64-.42.67-1.16c1.6-2.7,1.27-3.6-6.09-8.37l-18.59-12c-7.36-4.76-8.32-4.7-10.13-2.14l-.78,1.1L0,128.74l8.66-13.38.64.42-.67,1.16c-1.6,2.71-1.27,3.61,6.09,8.37l18.59,12c7.36,4.77,8.32,4.7,10.13,2.14l.79-1.1.64.42Z"/><path d="M58.8,121l-.59-.49.77-1c1.41-1.91,1.69-2.34-4.72-7.65l-7.24-6c-4.83-4-9-3.85-11.72-.49A8.67,8.67,0,0,0,34,114.58l10.64,8.82c6.4,5.31,6.78,4.95,8.39,3.21l.86-.94.6.49-8.7,10.49-.59-.49.77-1c1.41-1.91,1.68-2.34-4.72-7.65l-7.74-6.41c-6.4-5.31-6.78-5-8.39-3.22l-.86,1-.59-.49,6-7.2,3.4,2.82a10,10,0,0,1,1.85-10.26c3.84-4.63,9.79-6.69,15.5-2l7.24,6c6.41,5.31,6.78,5,8.39,3.21l.87-.94.59.49Z"/><path d="M81.16,97.45l-.46-.61,1-.86c2.43-2,2.43-3-2.84-10L65.58,68.33c-5.27-7-6.19-7.28-8.78-5.49l-1.11.75L55.23,63,68,53.4l.46.62-1,.86c-2.43,2-2.43,2.94,2.84,9.95l13.31,17.7c5.2,6.9,6,7.6,8.22,5.91l3.32-2.5c5.68-4.27,7.15-7.21,3.43-18.11l-.74-2.17.46-.34,9.27,12.32Z"/><path d="M122.61,70.18c-8,4.41-16.19.58-20-6.37S100,48,108,43.6s16.22-.66,20,6.29S130.68,65.74,122.61,70.18ZM108.39,44.33c-5.89,3.24-4.12,9.64-.32,16.54s8.25,11.82,14.14,8.58,4.15-9.58.36-16.48S114.28,41.09,108.39,44.33Z"/><path d="M148.35,57.86,132,41c-4.16-4.28-5.22-5-7.16-4.54l-.44.1-.28-.71,11.43-4.51.29.72-1,.48c-1.62.77-1.52,2.25,2.32,6.24l11.39,11.81V37.11c-.08-3.69-2.22-9-4.41-8.24l-1,.34-.28-.71,8.75-3.45.28.71-.45.25c-1.6.83-2,2.5-2,10.74l0,20.72Z"/><path d="M161.54,52.34l-.22-.73,1.21-.42c2.24-.78,2.72-1,.39-9l-2.8-9.65c-2.32-8-2.83-7.91-5.14-7.37l-1.25.3-.21-.74,9.1-2.64L168,40.73c2.32,8,2.83,7.91,5.14,7.37l1.24-.3.22.74Zm-3.82-37.21a3,3,0,0,1-3.8-2.3,3,3,0,0,1,2-4,3,3,0,0,1,3.86,2.28A3,3,0,0,1,157.72,15.13Z"/><path d="M196.4,44.13l-.13-.76,1.25-.28c2.31-.53,2.8-.68,1.39-8.88l-1.6-9.27c-1.07-6.18-4.3-8.74-8.59-8a8.7,8.7,0,0,0-7,6.21l2.35,13.62c1.41,8.2,1.93,8.17,4.28,7.9l1.28-.16.13.76-13.44,2.32-.13-.76,1.25-.28c2.32-.53,2.81-.68,1.39-8.88l-1.7-9.9c-1.42-8.2-1.93-8.17-4.29-7.9l-1.27.16-.13-.76,9.21-1.59.75,4.35a10,10,0,0,1,8.08-6.59c5.93-1,11.78,1.28,13,8.6l1.6,9.27c1.42,8.2,1.93,8.17,4.29,7.9l1.27-.16.13.76Z"/><path d="M213,48.59a3.26,3.26,0,1,1,6.52-.21c.05,1.92-1.1,2.39-1.07,3.67,0,1,1.78,2.07,5.75,2,7.61-.17,8.53-4.61,8.36-12.16v-.51a20.53,20.53,0,0,1-5.55.89c-9.86.23-15.83-6.35-16-14.48-.24-10.49,7.66-14.83,15.65-15l14.72-.34,0,.77-1.28.09c-2.37.18-2.87.26-2.68,8.58l.46,19.9c.19,8.12-3.86,12.89-13.65,13.11C217.36,55,213.06,51.67,213,48.59Zm18.9-35.13-5.31.12c-6.85.16-9.57,7-9.41,14.05.21,8.83,3.21,13.94,9.8,13.79a19.5,19.5,0,0,0,5.54-1Z"/><path d="M294.55,50.05l.18-.74,1.32.25c3.08.62,3.82,0,5.9-8.51l7.06-29L287.82,35.24l-1.24-.31-10-29.45-5.61,23c-1.2,4.91-1.95,14.21,2.72,15.61l1.29.38-.19.75-13.61-3.32.18-.75.7.11c3.29.54,5.74-3.81,8-13l4.1-16.79c2.07-8.52,1-9.57-1.82-10.39L271.2.75l.18-.75L282,2.58l9.16,27.53,19-20.66,10.13,2.47-.18.75-1.32-.26c-3.08-.62-3.82,0-5.9,8.51L307.6,42.43c-2.07,8.52-1.69,9.41,1.32,10.27l1.29.38-.18.75Z"/><path d="M324.85,62.25c-8.71-3.9-10.23-12.72-7.09-19.73,4.32-9.64,12.07-11.28,18.62-8.35,8.41,3.76,9.41,10.45,6.24,17.52L324.1,43.4l-.52,1.17c-2.49,5.54-4.84,13.47,3,17,4.67,2.1,8.73,1.32,11.77-2.65l.74.54C335.77,63.84,330.86,64.94,324.85,62.25ZM336,34.93c-5.5-2.46-8.76,1.54-11.62,7.77l13,5.83C339.8,43.27,341.35,37.31,336,34.93Z"/><path d="M372.05,89.4l.44-.63,1.09.68c2,1.24,2.47,1.48,7.21-5.36l5.36-7.73c3.71-5.37,3.09-9.31-.22-11.6s-6.92-1.6-10,.16a14.9,14.9,0,0,1-1.71,3.25l-5.32,7.68c-4.74,6.84-4.35,7.19-2.48,8.64l1,.78-.44.63-11.21-7.76.44-.63,1.09.68c2,1.24,2.48,1.48,7.21-5.36l5.36-7.73c3.72-5.37,3.09-9.31-.22-11.6-3.05-2.11-6.25-1.76-9.21-.31l-7.87,11.37c-4.74,6.84-4.35,7.18-2.48,8.64l1,.78-.44.63-11.21-7.76.44-.63,1.09.67c2,1.24,2.48,1.48,7.21-5.36l5.72-8.26c4.74-6.84,4.36-7.18,2.48-8.63l-1-.78.43-.64,7.68,5.32L361,52.17a10,10,0,0,1,10.27.81c3.73,2.58,5.91,6.74,4.93,11a10.35,10.35,0,0,1,11.32.29c4.79,3.31,7.28,8.93,3,15.19l-5.32,7.68c-4.74,6.84-4.36,7.19-2.48,8.64l1,.78-.43.63Z"/><path d="M392.94,109.66c-6.44-6.52-5-15.42.67-21s14.48-6.84,20.91-.33,5.06,15.42-.58,21S399.41,116.21,392.94,109.66Zm21-20.74c-4.73-4.78-10.41-1.33-16,4.2s-9.12,11.17-4.39,15.95,10.35,1.38,16-4.16S418.65,93.7,413.93,88.92Z"/><path d="M405.16,121.4l.61-.47.83,1c1.55,1.79,1.92,2.16,8.49-2.94l8-6.15c6.57-5.1,6.31-5.54,5-7.49l-.73-1,.6-.47,5.73,7.38-3.49,2.71c3.88-.74,6.64.11,8.48,2.49s1.9,5.58-.48,7.42a3.07,3.07,0,0,1-4.64-.45,3,3,0,0,1,.39-4.2c1.77-1.37,3.07-.11,4-.81.36-.28.48-.86-.23-1.77-1.49-1.92-4.11-2.8-8.34-1.87l-10.92,8.46c-6.58,5.1-6.31,5.54-4.57,8l1.12,1.55-.61.48Z"/><path d="M412.19,153.48l.66-.4.42.57c2.09,2.84,4.4,2.94,11-1.07l2-1.22,13.28-19c3.43-4.85,3.94-6.35,3.34-7.71l-.21-.47.66-.4,6.49,10.73-.65.4-.66-.95c-1.46-2.18-2.55-1.38-5.82,3.22l-9.18,12.89L446.2,148c4.68-.81,8.79-3.15,7.58-5.41l-.48-.91.66-.4,4.71,7.78-.66.4-.32-.41c-1.15-1.4-3.31-1.51-11-.23l-19.92,3.3-2,1.23c-6.63,4-7.68,6-6.13,9.17l.31.63-.65.4Z"/></g></g></svg>