<svg xmlns="http://www.w3.org/2000/svg" xmlns:xlink="http://www.w3.org/1999/xlink" viewBox="0 0 36.60264 19.16305"><defs><style>.a{fill:url(#a);}</style><linearGradient id="a" y1="9.58153" x2="36.60264" y2="9.58153" gradientUnits="userSpaceOnUse"><stop offset="0" stop-color="#fff"/><stop offset="0" stop-color="#424242"/><stop offset="0.18963" stop-color="#373737"/><stop offset="0.51884" stop-color="#1b1b1b"/><stop offset="0.75841" stop-color="#020202"/></linearGradient></defs><title>3_25_Detail2</title><path class="a" d="M23.95454,12.05378c-.9732.205-1.48468-.95868-2.45525-.34829A19.66422,19.66422,0,0,0,25.863,14.72171c.67321.37469.74586.33959,2.23218.25469l-3.75692-2.37968c2.71309.53514,4.78285,2.86438,7.77454,2.5515-.62026-4.17566-8.05968-8.78322-12.345-8.93922l-2.2783-1.44488A2.27368,2.27368,0,0,1,18.93658,2.1558a2.182,2.182,0,0,1,2.54372.49393,9.93113,9.93113,0,0,0,2.42523,1.3348,25.994,25.994,0,0,1,7.06976,4.40488,21.00881,21.00881,0,0,1,2.74089,3.15505c.62664.77238,1.18756,1.59808,1.83648,2.4797l-.17827.80259,1.22825,1.45538c-1.581.5285-1.09712,2.52884-2.79536,2.88092-1.23721-.60514-2.73757-.792-4.05861-1.60369-1.22776-.7544-2.77116-.87435-3.95448-1.83707a15.988,15.988,0,0,0-2.437-1.445c-.86534-.47649-1.77523-.87591-2.62093-1.38351-2.85141-1.71144-5.712-3.41083-8.509-5.20816-1.27384-.81853-2.39208-1.87588-3.60932-2.78694A25.00219,25.00219,0,0,0,5.8234,2.99456,7.45554,7.45554,0,0,0,3.931,2.52427c-.763,1.28485-1.38864,2.39755-.77966,3.838A7.26563,7.26563,0,0,1,3.53009,8.312c.29877,2.48723,3.30119,6.3148,5.05217,7.32029a15.10609,15.10609,0,0,0,1.66647.71228l1.34893-.712.49014-1.50765.30883-.0301.86452,2.82751c-.8414,1.50973-2.34186,1.72128-3.90263,2.10819a11.027,11.027,0,0,1-5.20523-3.51831C1.87142,12.85157.9714,9.71912.21327,6.50262A5.21874,5.21874,0,0,1,1.29905,1.43731,21.49928,21.49928,0,0,1,2.99435,0a1.87,1.87,0,0,0,.709.18588c2.05735-.331,3.58954.796,5.11824,1.85746,2.69821,1.87354,5.30014,3.891,8.04952,5.68383,1.97954,1.29086,4.13923,2.304,6.20238,3.46969A5.25331,5.25331,0,0,1,23.95454,12.05378Z"/></svg>