<svg xmlns="http://www.w3.org/2000/svg" xmlns:xlink="http://www.w3.org/1999/xlink" viewBox="0 0 31.25223 35.25933"><defs><style>.a{fill:url(#a);}.b{fill:url(#b);}</style><linearGradient id="a" y1="7.47473" x2="31.25223" y2="7.47473" gradientUnits="userSpaceOnUse"><stop offset="0" stop-color="#fff"/><stop offset="0" stop-color="#424242"/><stop offset="0.31209" stop-color="#3f3f3f"/><stop offset="0.53571" stop-color="#363636"/><stop offset="0.73164" stop-color="#262626"/><stop offset="0.91067" stop-color="#101010"/><stop offset="1" stop-color="#020202"/></linearGradient><linearGradient id="b" x1="14.52156" y1="22.97222" x2="27.5716" y2="22.97222" xlink:href="#a"/></defs><title>3_25_Detail1</title><path class="a" d="M22.10421,10.91973a9.5366,9.5366,0,0,0-1.50772-1.58455,1.57188,1.57188,0,0,0-1.41314-.04231c-1.61862,1.041-3.21214,2.13561-4.71837,3.33226a7.79168,7.79168,0,0,1-4.38682,1.6484c-1.83316.14218-3.67255.21705-5.51064.28016C.7816,14.68367-.56383,11.94273.21,8.81181A8.69891,8.69891,0,0,1,6.36677,2.45415a41.14484,41.14484,0,0,1,11.547-2.0175c2.03092-.039,4.05543-.37541,6.087-.43595A2.50959,2.50959,0,0,1,25.759.74383c.26141.29756.096,1.10678-.07948,1.61821-.2407.7014-.8568.60685-1.50552.52362-1.08447-.13913-2.18883-.12319-3.17785-.16772,1.07654,2.6063,1.501,5.36526,3.75791,7.00035,2.08125,1.50783,4.25068,2.89393,6.49816,4.41263-.24148,1.13319-1.28329.83959-2.04344.58292a26.62494,26.62494,0,0,1-3.94618-1.73306c-1.09162-.57993-2.08611-1.34269-3.12355-2.02461ZM18.62321,3.198a13.49068,13.49068,0,0,0-1.51654.12984c-2.71978.51654-5.45277.98242-8.1453,1.61788a9.0643,9.0643,0,0,0-5.634,3.87148,4.30313,4.30313,0,0,0-.5558,1.64985.90738.90738,0,0,0,1.02926,1.13684c2.26968-.06724,4.54051-.14256,6.806-.28974,1.97851-.12855,3.20675-1.67812,4.73224-2.6589C17.26057,7.41989,19.06988,6.10352,18.62321,3.198Z"/><path class="b" d="M22.13906,10.95617l.325,7.25531c.93558.22092,1.92949.5263,2.94624.67042.65813.09328,1.12647.36681,1.02093.974-.05115.29423-.6529.60885-1.05461.7021-.8616.2-1.75518.26223-2.5989.37592-.5711,1.68039-.34945,2.02471,1.22009,2.20305a9.58253,9.58253,0,0,1,3.5738.74925c-.59153,1.17554-1.49367,1.13384-2.382,1.16131-2.77655.08589-2.8592.09466-2.766,2.80587a55.131,55.131,0,0,0,.6246,5.60264c.09868.716.332,1.41534-.59446,1.724a1.44427,1.44427,0,0,1-1.90085-1.1738c-.35575-1.74372-.59316-3.5135-.82679-5.27942-.11452-.86566-.10934-1.74716-.17277-2.879-1.04812.36446-1.8861.61562-2.69149.94617-.98471.40414-1.79388.22811-2.17288-.55015a1.61126,1.61126,0,0,1,.94031-2.25532,30.69824,30.69824,0,0,1,3.17408-.7505c.6-.12161,1.06568-.32181,1.00038-1.03489-.071-.77531-.64785-.76557-1.21671-.72742-.39677.02662-.79136.0988-1.1881.11036-1.20462.03509-1.85934-.52629-1.8989-1.60638-.041-1.1194.722-1.44457,1.61884-1.56.77452-.09965,1.56093-.10686,2.6107-.17147-.16033-1.60837-.30213-3.067-.454-4.52453-.03086-.2961-.12288-.58634-.14727-.88252-.15141-1.83858.58091-2.45465,2.38833-2.02547.19319.04587.39159.06982.58758.10394Z"/></svg>