<svg xmlns="http://www.w3.org/2000/svg" viewBox="0 0 1490.2 897.37"><defs><style>.cls-1,.cls-10,.cls-7{font-size:224px;font-family:AWConquerorStdDidot-Light, AWConqueror Std Didot;font-weight:300;}.cls-1{letter-spacing:-0.12em;}.cls-2{letter-spacing:-0.1em;}.cls-3{letter-spacing:-0.09em;}.cls-10,.cls-4{letter-spacing:-0.06em;}.cls-5{letter-spacing:-0.12em;}.cls-6{letter-spacing:-0.04em;}.cls-7{letter-spacing:-0.11em;}.cls-8{letter-spacing:-0.18em;}.cls-9{letter-spacing:-0.16em;}.cls-11{letter-spacing:-0.12em;}.cls-12{letter-spacing:-0.08em;}.cls-13{letter-spacing:-0.11em;}.cls-14{letter-spacing:-0.14em;}.cls-15{font-size:242px;font-family:FreightBigProBook-Italic, FreightBig Pro;font-style:italic;}.cls-16{letter-spacing:-0.19em;}.cls-17{letter-spacing:-0.06em;}.cls-18{fill:none;stroke:#000;stroke-miterlimit:10;stroke-width:3px;}</style></defs><g id="Layer_2" data-name="Layer 2"><g id="Text"><g id="_4" data-name="4"><text class="cls-1" transform="translate(118.01 187.49)">C<tspan class="cls-2" x="122.98" y="0">ON</tspan><tspan class="cls-3" x="417.98" y="0">Q</tspan><tspan class="cls-4" x="564.47" y="0">U</tspan><tspan class="cls-5" x="724.19" y="0">E</tspan><tspan class="cls-6" x="836.41" y="0">R</tspan></text><text class="cls-7" transform="translate(0 345.86)">E<tspan class="cls-4" x="114.46" y="0">V</tspan><tspan class="cls-5" x="252.89" y="0">E</tspan><tspan class="cls-8" x="365.11" y="0">R</tspan><tspan class="cls-9" x="478.01" y="0">Y</tspan><tspan class="cls-6" x="584.41" y="0">–</tspan></text><text class="cls-10" transform="translate(210.91 507.49)">THI<tspan class="cls-11" x="340.47" y="0">N</tspan><tspan class="cls-6" x="486.52" y="0">G</tspan></text><text class="cls-10" transform="translate(253.52 827.49)">UN<tspan class="cls-12" x="319.2" y="0">DE</tspan><tspan class="cls-13" x="587.32" y="0">R</tspan><tspan class="cls-14" x="713.88" y="0">T</tspan><tspan x="823.19" y="0">A</tspan><tspan class="cls-6" x="961.39" y="0">KE</tspan></text><path d="M816.2,345.88h-.49v0Z"/><text class="cls-15" transform="translate(1176.4 507.49)"><tspan class="cls-16">Y</tspan><tspan class="cls-17" x="101.64" y="0">o</tspan><tspan x="178.11" y="0">u</tspan></text><path class="cls-18" d="M1351.83,441.21a16.89,16.89,0,0,1-17.15,8.23s-29.86-12.26-9.19-40.93"/></g></g></g></svg>