<svg xmlns="http://www.w3.org/2000/svg" viewBox="0 0 1385.31 670.4"><defs><style>.cls-1,.cls-5{font-size:224px;font-family:AWConquerorStdDidot-Light, AWConqueror Std Didot;font-weight:300;}.cls-1{letter-spacing:-0.1em;}.cls-2{letter-spacing:-0.08em;}.cls-3{letter-spacing:-0.04em;}.cls-4{letter-spacing:-0.04em;}.cls-5{letter-spacing:-0.06em;}.cls-6{letter-spacing:-0.12em;}.cls-7{letter-spacing:-0.1em;}.cls-8{fill:none;stroke:#000;stroke-miterlimit:10;stroke-width:2px;}</style></defs><g id="Layer_2" data-name="Layer 2"><g id="Text"><g id="_5" data-name="5"><text class="cls-1" transform="translate(414.14 187.49)">C<tspan class="cls-2" x="127.46" y="0">O</tspan><tspan class="cls-3" x="276.41" y="0">P</tspan><tspan class="cls-4" x="409.24" y="0">T</tspan><tspan class="cls-2" x="539.83" y="0">I</tspan><tspan class="cls-4" x="590.01" y="0">C</tspan></text><path d="M0,281.79c0-39.64,32-79.07,78.18-79.07,40.54,0,66.52,30.69,66.52,67.65A78.06,78.06,0,0,1,67,348.77C25.76,348.77,0,318.53,0,281.79ZM126.56,261c0-32.48-17.7-56-47.49-56-37,0-60.93,44.35-60.93,86.46,0,32.49,17.48,55.11,47.49,55.11C100.8,346.53,126.56,305.31,126.56,261Z"/><path d="M141.79,345.41l13.44-37L170,257.15l-10.53-.89-15.23,24.41-1.35-.67c11.2-23.07,20.16-32.48,28.67-32.48,4.26,0,11,7.62,11,14.79,0,6.27-4.93,20.83-13.22,43H170c15.68-29.79,24.41-45.47,31.36-52,3.8-3.58,7.16-6,12.54-5.82a13.37,13.37,0,0,1,13,13.66c-.45,6.28-5.82,10.76-10.75,10.53-7.17-.45-12.1-9.18-3.36-16.35L207,252.9c-5.38,2.68-10.08,6.94-38.31,59.36L156.8,346.53Z"/><path d="M357.55,315.62l-2.07,3.22q.22,1.57.54,3.09,1.43-2.67,2.87-5.64Z"/><path d="M341.87,340l-11.43-1.34s11.43-28.45,16.8-41.89c6.27-15.46,11.65-29.34,11.65-35.17,0-6.94-7.84-13.44-14.78-13.44-4.71,0-10.76,2.69-15.68,7.84-7.84,7.84-24.64,32.71-37.19,57.57l-1.34-.45c6-14.57,11.55-30.79,18.67-54.06l1.62-1c1-.62,1.95-1.22,2.86-1.92l2.78-2,2.64-2.2c.44-.37.89-.72,1.31-1.11l1.24-1.18,2.5-2.33,2.35-2.48,1.17-1.24c.37-.43.72-.87,1.09-1.31l2.16-2.63c.74-.85,1.36-1.81,2-2.71l2-2.74c.65-.94,1.25-1.91,1.81-2.9a34.21,34.21,0,0,0,4.28-12.9,25.77,25.77,0,0,0-.07-6.85A16.52,16.52,0,0,0,337.9,205a16.26,16.26,0,0,0-5.21-4.89,24.74,24.74,0,0,0-5.83-2.77h-2.2s-14.52,3.71-16.72,11.53c-3.43,12.18-9,31.67-14.81,51.54h0c-1.05.26-2.13.41-3.18.61s-2.11.28-3.16.41c-1.57.15-3.23.36-4.8.39v0l-18.81-.22,12.11-40.72-15.24.87-11.88,39.85-16.35.22-2.69,6.72,16.58.45-21.49,71.28c-.9,2.91,13.89,8.28,18.37,8.28,6,0,6.81.58,12.07-8.19l-2-.32-14.34-1.34L260.94,269h16a46.38,46.38,0,0,0,14.18-2.17l.1,0c-4.51,15.19-9.1,30.18-13,41.89l-12.77,36.74L280,346.53l8.29-21.28c19.94-42.34,39.87-68.1,46.59-68.1,4.93,0,9.63,3.59,9.63,7.84,0,3.36-6.72,19.49-11.42,31.81C326,315.62,316.55,337.57,316.55,340c0,2.91,10.31,8.51,14.79,8.51,5.32,0,14.58-7.67,24.68-26.61q-.31-1.51-.54-3.09ZM322.6,211.68l.11-.35h0l0-.06c.34-1,4-11.32,9.48-9.16a3.82,3.82,0,0,1,.51.23h0a12.48,12.48,0,0,1,4.16,3.42,13.71,13.71,0,0,1,2.59,5.93,20.57,20.57,0,0,1,.14,6.6A29.78,29.78,0,0,1,335,230.61c-.59.94-1.22,1.84-1.89,2.72l-2.1,2.59c-.72.85-1.36,1.76-2.14,2.56l-2.26,2.44a67.26,67.26,0,0,1-16.46,12.87C313.82,241.78,317.87,228,322.6,211.68Z"/><path d="M401.67,248.19c-21.73,0-46.81,33.83-46.81,62.05a59.42,59.42,0,0,0,.62,8.6q.22,1.57.54,3.09c3,14.72,11.88,26.39,26.16,26.39,23.3,0,48.61-31.58,48.61-60.7C430.79,264.77,418.47,248.19,401.67,248.19Zm10.53,58.69c-6.72,21.73-19.49,39-32.7,39-6.95,0-11.43-8.52-11.43-22.18a105.64,105.64,0,0,1,4.71-28c6.94-21.73,20.6-44.8,32.25-44.8,7.39,0,11.65,8.29,11.65,24.19C416.68,283.58,415.11,297.7,412.2,306.88Z"/><path d="M477.16,337.12c0-4.48,2.69-13.44,9.63-31.81h-.45c-16.8,27.55-26.21,43-37.85,43-9.86,0-18.15-8.29-18.15-20.83,0-24.42,19.72-51.74,34.5-66.53,7.17-7.39,15-12.77,22.85-12.77,7.39,0,10.08,9,10.3,22.85h.45l19-62.72c.45-2.46.45-5.15-1.12-5.15L494,202.5l.45-1.35,41.66-3.8-26.88,81.08-19.26,60.26,11.2,1.34,15.45-24.41,1.35.67c-11.2,23.07-20.39,32.25-27.78,32.25C485.89,348.54,477.16,342.05,477.16,337.12Zm11.42-41.21c4-8.07,6.95-16.81,6.95-20.84,0-8.06-6.95-17.69-16.8-17.69-4.71,0-8.07,2-11.43,5.37-10.75,10.75-21.73,39.87-21.73,58.47,0,11,5.16,16.12,10.53,16.12C464.61,337.34,477.16,319.2,488.58,295.91Z"/><path d="M514.34,310.24c0-28.22,25.09-62.05,46.82-62.05,16.8,0,29.12,16.58,29.12,39.43,0,29.12-25.31,60.7-48.61,60.7C523.75,348.32,514.34,330,514.34,310.24Zm57.35-3.36c2.91-9.18,4.48-23.3,4.48-31.81,0-15.9-4.26-24.19-11.65-24.19-11.65,0-25.31,23.07-32.26,44.8a106,106,0,0,0-4.7,28c0,13.66,4.48,22.18,11.42,22.18C552.2,345.86,565,328.61,571.69,306.88Z"/><path d="M579.3,336.67c0-5.82,4.26-9.85,9.18-9.85,6.5,0,9.19,7.61,4.71,12.54,0,1.35,2.91,3.81,5.15,3.58,7.62-.44,17.7-17.24,26.88-39.64-3.14-22.85-5.6-45.47-12.54-45.47h-7.4L595.65,276l-1.79-.67c8.51-20.61,17.47-27.55,23.74-27.55,11,0,16.13,17.24,19.49,36.73h.45c10.53-25.76,16.35-36.73,29.34-36.73,7,0,13,4.92,13,11.64,0,5.83-4.26,9.86-9,9.86-6.28,0-9.41-7.84-5.38-11.87,0-1.35-2.69-2.91-4.93-2.91-7.17.44-14.56,13.44-22.62,34,3.58,24,6,50.18,13.21,50.18l7.17-.23,9.86-17.92,1.79.68c-8.51,20.38-17.25,27.32-23.74,27.32-11.88,0-17-19.71-20.39-40.76h-.45c-12.32,28.89-19.48,40.76-32.92,40.76C585.35,348.54,579.3,343.62,579.3,336.67Z"/><path d="M873.41,293.22c0,29.57-37.63,55.77-77.95,55.77-41.89,0-72.13-23.07-72.13-54.65,0-21.51,15.68-40.55,37.18-47.27a41.27,41.27,0,0,1-1.12-9.18c0-19.49,14.56-35.39,32.71-35.17,16.8,0,30.69,16.8,27.77,37l-2.46-.45c.9-12.32-6.94-26.2-21.5-26.2-12.77,0-21.73,10.52-21.73,26a39.27,39.27,0,0,0,.45,5.38h3.58c15.9,0,27.55,8.51,27.55,18.81,0,7.17-5.82,11.87-15,11.87-12.76,0-24.86-11.42-29.56-25.31-15,5.38-24.2,17.92-24.2,33.6,0,33.82,27.11,53.76,73.48,53.76,35.16,0,60.47-19.71,60.47-44.13,0-14.78-10.75-26.65-23.74-26.65-10.75,0-24,10.3-24,18.37,0,8.28,6.5,13.21,17.7,13.66-6.27-1.79-5.38-14.11,3.36-14.11a7.5,7.5,0,0,1,7.61,7.39c0,4.93-4,9.41-10.3,9.41-13.21,0-23.52-8.74-23.52-22.85,0-30,62.27-23.74,62.27-50.4,0-10.53-7.61-17.47-19.49-17.7,6.28,1.8,6.73,14.79-2.91,14.79a7.84,7.84,0,0,1-8.06-7.84c0-5.38,5.38-9.86,11.42-9.86,13.44,0,24.64,13,24.64,29.35,0,13-9,20.38-32.7,27.77C865.79,267.68,873.41,278.21,873.41,293.22Zm-77.28-25.54a6,6,0,0,0,6-6.05c0-7.61-11-14.78-23.75-14.78h-3.36C777.76,259.17,786.72,267.68,796.13,267.68Z"/><text class="cls-5" transform="translate(311.48 507.49)">T<tspan class="cls-2" x="126.11" y="0">H</tspan><tspan class="cls-4" x="281.34" y="0">E </tspan><tspan class="cls-6" x="467.48" y="0">B</tspan><tspan class="cls-7" x="591.35" y="0">L</tspan><tspan x="703.79" y="0">IN</tspan><tspan class="cls-4" x="917.93" y="0">D</tspan></text><path d="M718.92,670.4c-10.53,0-19.94-2.24-30.69-9-3.36-2.24-4.93-2.92-7.39-2.92-4.93,0-9.41,4.71-14.56,11.88h-1.79V620.89h2l2.69,8.29c5.38,16.35,21.28,38.31,49.5,38.31,19,0,34-9,34-29.35,0-44.8-82-35.84-82-85.34,0-23.3,19.26-39.2,42.78-39.2a49.39,49.39,0,0,1,24.87,6.94c3.13,1.79,4.92,3.14,7.61,3.14,3.59,0,7-2.47,12.77-10.08h1.79v42.78h-2l-2.47-7.62c-6.49-20.38-24.41-32.25-41.66-32.25-17.92,0-28.45,9.41-28.45,24.19,0,45.92,83.1,36.74,83.1,88.93C769.09,653.82,747.59,670.4,718.92,670.4Z"/><path d="M787.17,345.88h-.49v0Z"/><path d="M127.31,232.3a52.29,52.29,0,0,0-22.15,16.15,60.88,60.88,0,0,0-7.57,12.07,71.06,71.06,0,0,0-2.71,6.7,33.76,33.76,0,0,0-1,3.41,26.89,26.89,0,0,0-.52,3.47A21.11,21.11,0,0,0,97,287.58a23.16,23.16,0,0,0,11.31,8.7,22.72,22.72,0,0,0,7.1,1.34,21.47,21.47,0,0,0,7.09-1.06,20.61,20.61,0,0,0,6.22-3.37,22.26,22.26,0,0,0,4.66-5.25l2.75,2.3c-.45.44-.94.88-1.44,1.31s-.95.89-1.49,1.27-1,.81-1.57,1.17L130,295.06a26.09,26.09,0,0,1-7.11,2.9,25.67,25.67,0,0,1-14.88-.9,26.83,26.83,0,0,1-12.06-8.73,24.28,24.28,0,0,1-5-14.28,28.13,28.13,0,0,1,.16-3.89c.2-1.29.41-2.58.69-3.79.49-2.48,1.17-4.91,1.88-7.35a84.91,84.91,0,0,1,5.8-14.27A82.09,82.09,0,0,1,108,231.49a109.14,109.14,0,0,1,11-11.92Z"/><line class="cls-8" x1="587.69" y1="292.09" x2="596.02" y2="272.91"/><path d="M774.16,664.62h0l-3.75.17v2.69h7v-2.69Zm110.11-43.5-2.14,5.55c.71-1.77,1.44-3.61,2.19-5.55Z"/><path d="M852,664.59h0Zm149.32.17-.65,0v2.69h.9v-2.69Z"/><path d="M999.74,664.57c-9.18-1.12-12.09-3.81-25.08-35.84L927.62,514h-2.24l-40.1,104.61c-.32.84-.64,1.66-1,2.47-.75,1.94-1.48,3.78-2.19,5.55l-.15.39c-6.77,16.88-11.4,26.07-15.52,31.13l0,0c-4,4.93-7.52,5.95-12,6.36H835.08l-2,0h-15.9c-9.86,0-10.53-3.58-10.53-33.82V591.32h13.21c10.08,0,21.51.45,26.44,18.82l1.34,4.93h2V564.89h-2l-1.34,4.93c-4.93,18.37-16.36,18.82-26.44,18.82H806.66v-35.4c0-30.24.67-33.82,10.53-33.82h11.42c20.83,0,37.18,2.46,45.7,29.12l2.46,7.62h2V516.51H770.37v2.69l4.71.22c11.2.45,13.21,2.91,13.21,33.82v77.51c0,30.91-2,33.37-13.21,33.82l-.92,0,3.16.17v2.69H899.17v-2.69l-4.71-.22c-9.4-.45-11.42-6.72-11.42-15.23a87.69,87.69,0,0,1,5.83-30.91l4.92-13.22h52.42l9.85,25.09c10.76,27.33,12.32,33.82-.22,34.27l-5.82.22v2.69h50.62v-2.69l.65,0ZM894.91,602.52l24.87-65.4,25.31,65.4Z"/><rect x="435.07" y="356.51" width="25.37" height="2.69"/></g></g></g></svg>