<svg viewBox="0 0 1223.02 476.8" xmlns="http://www.w3.org/2000/svg"><path d="M448.45 255.39c0 31.94-40.66 60.26-84.22 60.26-45.25 0-77.93-24.93-77.93-59 0-23.23 16.94-43.8 40.18-51.07a44.23 44.23 0 01-1.21-9.92c0-21.05 15.73-38.23 35.33-38 18.15 0 33.15 18.15 30 39.93l-2.66-.49c1-13.31-7.51-28.31-23.24-28.31-13.79 0-23.47 11.37-23.47 28.07a43.62 43.62 0 00.48 5.81h3.88c17.18 0 29.76 9.2 29.76 20.33 0 7.74-6.29 12.83-16.21 12.83-13.8 0-26.86-12.35-31.95-27.35-16.21 5.81-26.13 19.36-26.13 36.3 0 36.54 29.28 58.08 79.37 58.08 38 0 65.35-21.3 65.35-47.67 0-16-11.62-28.8-25.66-28.8-11.61 0-25.89 11.13-25.89 19.84 0 9 7 14.28 19.12 14.76-6.78-1.93-5.81-15.24 3.63-15.24a8.11 8.11 0 018.22 8c0 5.33-4.35 10.17-11.13 10.17-14.28 0-25.41-9.44-25.41-24.69 0-32.43 67.28-25.65 67.28-54.45 0-11.37-8.23-18.87-21.05-19.12 6.77 1.94 7.26 16-3.15 16a8.47 8.47 0 01-8.71-8.47c0-5.81 5.8-10.65 12.34-10.65 14.52 0 26.62 14 26.62 31.7 0 14-9.68 22-35.33 30 13.56 3.56 21.79 14.93 21.79 31.15zM365 227.8a6.5 6.5 0 006.53-6.53c0-8.23-11.86-16-25.65-16h-3.63c2.86 13.33 12.54 22.53 22.75 22.53zm344.68 84.46c-2-4.26-4.7-9.86-9.4-18.59-4.48-8.29-11.2-21.73-15.46-28.68-12.77-22.17-18.82-26.65-34.5-26.65h-14.55v37.18c0 30.91 2 33.38 13.21 33.83l4.71.22v2.69h-54.21v-2.69l4.7-.22c11.2-.45 13.22-2.92 13.22-33.83V198c0-30.91-2-33.38-13.22-33.83l-4.7-.22v-2.69h72.57c26.21 0 48.61 12.77 48.61 38.08 0 16.36-11 29.12-25.31 34.72-10.31 3.81-19.49 4.48-29.79 4.26 20.16 6 29.56 12.77 38.75 27.1 3.81 6.05 9.85 16.35 12.09 20.16 9 14.56 16.13 23.3 24.64 23.75l4 .22v2.69zM673 164.19h-26.71c-9.85 0-10.52 3.59-10.52 33.83v37.63H668c26.88 0 31.81-16.8 31.81-35.84.02-23.07-10.06-35.62-26.81-35.62z"/><path d="M738.13 312.26v-2.69l4.7-.22c11.2-.45 13.22-2.92 13.22-33.83V198c0-30.91-2-33.38-13.22-33.83l-4.7-.22v-2.69h108.42v39.65h-2l-2.47-7.62c-8.51-26.65-24.86-29.12-45.69-29.12H785c-9.86 0-10.53 3.59-10.53 33.83v35.39h13.21c10.08 0 21.51-.45 26.43-18.82l1.35-4.92h2v50.17h-2l-1.35-4.93c-4.92-18.36-16.35-18.81-26.43-18.81h-13.26v39.42c0 30.24.67 33.83 10.53 33.83h15.9c22.85 0 35.39-4.26 45.7-35.84l2.46-7.62h2v46.37zm122.97-50.18v-4h112v4zM119.84 476.8c-7.17-8.74-11.2-10.75-15.23-10.75-2.91 0-5.38 1.34-9.19 3.58a48.76 48.76 0 01-25.76 7.17C23.07 476.8 0 438.27 0 398.62 0 358.53 23.52 320 69 320a51.46 51.46 0 0125.76 6.94c3.14 1.79 5.15 3.14 7.62 3.14 3.81 0 6.94-2.47 13-10.08h1.79v42.56h-2l-2.47-7.62c-5.37-16.8-20.61-32.25-43.68-32.25-35.39 0-47.93 38.75-47.93 75.71 0 37.18 13.21 75.71 48.6 75.71 24.42 0 40.1-18.37 47.27-39l2.69-7.61h2v49.3zm80.86 0c-47.26 0-73.24-37.86-73.24-78.63S153.44 320 200.7 320c47 0 73.25 37.41 73.25 78.17s-26.21 78.63-73.25 78.63zm0-153.89c-39.64 0-52.19 36.51-52.19 75.49 0 38.53 12.55 75.49 52.19 75.49 39.43 0 52-36.52 52-75.49-.03-38.53-12.57-75.49-52-75.49z"/><path d="M268.57 473.89v-2.69l4.71-.23c11.2-.44 13.21-2.91 13.21-33.82v-77.5c0-30.92-2-33.38-13.21-33.83l-4.71-.22v-2.69h54v2.69l-4.71.22c-11 .45-13 2.91-13 33.83v77.5c0 30.24.67 33.82 10.53 33.82h15.23c24.64 0 34.95-4 47.49-42.78l2.46-7.62h2v53.32z"/><path d="M381 473.89v-2.69l4.7-.23c11.2-.44 13.22-2.91 13.22-33.82v-77.5c0-30.92-2-33.38-13.22-33.83l-4.7-.22v-2.69h54v2.69l-4.7.22c-11 .45-13 2.91-13 33.83v77.5c0 30.24.67 33.82 10.53 33.82h15.23c24.64 0 34.94-4 47.49-42.78l2.46-7.62h2v53.32z"/><path d="M493.47 473.89v-2.69l4.7-.23c11.2-.44 13.22-2.91 13.22-33.82v-77.5c0-30.92-2-33.38-13.22-33.83l-4.7-.22v-2.69h108.41v39.65h-2l-2.46-7.62c-8.51-26.65-24.86-29.12-45.69-29.12h-11.45c-9.85 0-10.53 3.59-10.53 33.83V395H543c10.08 0 21.5-.45 26.43-18.82l1.35-4.93h2v50.18h-2l-1.35-4.93c-4.93-18.37-16.35-18.81-26.43-18.81h-13.25v39.42c0 30.24.68 33.82 10.53 33.82h15.91c22.84 0 35.39-4.25 45.69-35.84l2.47-7.61h2v46.37zm242.14 2.91c-7.17-8.74-11.2-10.75-15.24-10.75-2.91 0-5.37 1.34-9.18 3.58a48.76 48.76 0 01-25.76 7.17c-46.59 0-69.66-38.53-69.66-78.18 0-40.09 23.52-78.62 69-78.62a51.46 51.46 0 0125.76 6.94c3.13 1.79 5.15 3.14 7.61 3.14 3.81 0 7-2.47 13-10.08h1.79v42.56h-2l-2.46-7.62c-5.38-16.8-20.61-32.25-43.68-32.25-35.39 0-47.94 38.75-47.94 75.71 0 37.18 13.22 75.71 48.61 75.71 24.42 0 40.1-18.37 47.26-39l2.69-7.61h2v49.3zm46.81-2.91v-2.69l4.71-.23c11.2-.44 13.21-2.91 13.21-33.82V359.2c0-30.24-.67-33.38-10.75-33.38h-4.93c-11 0-23.29 2-33.37 33.6l-2.47 7.58h-2v-44.09h125.43V367h-2l-2.46-7.62c-10.31-31.58-22.4-33.6-33.38-33.6h-5.15c-9.86 0-10.53 3.14-10.53 33.38v77.95c0 30.91 2 33.38 13.22 33.82l4.7.23v2.69zm90.5 0v-2.69l4.7-.23c11.2-.44 13.22-2.91 13.22-33.82v-77.5c0-30.92-2-33.38-13.22-33.83l-4.7-.22v-2.69h54.2v2.69l-4.7.22c-11.2.45-13.22 2.91-13.22 33.83v77.5c0 30.91 2 33.38 13.22 33.82l4.7.23v2.69z"/><path d="M995.22 476.8C948 476.8 922 438.94 922 398.17S948 320 995.22 320c47 0 73.24 37.41 73.24 78.17s-26.2 78.63-73.24 78.63zm0-153.89c-39.65 0-52.2 36.51-52.2 75.49 0 38.53 12.55 75.49 52.2 75.49 39.42 0 52-36.52 52-75.49-.04-38.53-12.58-75.49-52-75.49z"/><path d="M1202 476.13l-117.86-138.44v82.88c0 24.2 8.29 49.73 22 50.4l4.7.23v2.69h-48.61v-2.69l2.46-.23c11.2-.89 16.13-16.8 16.13-50.4v-62.94c0-28.9-4.25-31.36-14.56-31.81l-4-.22v-2.69h35l103.93 124.54v-73.24c0-22.85-7.84-47.72-22-48.39l-4.71-.22v-2.69H1223v2.69l-2.46.22c-11.65.9-16.13 16.8-16.13 48.39v101.92zM654.26 312.28h-.49zM167.2 156.8c-10.53 0-19.94-2.24-30.69-9-3.36-2.24-4.93-2.91-7.39-2.91-4.93 0-9.41 4.7-14.56 11.87h-1.8V107.3h2l2.69 8.28c5.37 16.36 21.28 38.31 49.5 38.31 19 0 34.05-9 34.05-29.35 0-44.8-82-35.84-82-85.34C119 15.9 138.3 0 161.82 0a49.38 49.38 0 0124.86 6.94c3.14 1.8 4.93 3.14 7.62 3.14 3.58 0 6.94-2.46 12.77-10.08h1.79v42.78h-2l-2.46-7.61C197.88 14.78 180 2.91 162.72 2.91c-17.92 0-28.45 9.41-28.45 24.19 0 45.92 83.1 36.74 83.1 88.93 0 24.19-21.5 40.77-50.17 40.77z"/><path d="M216.92 153.89v-2.69l4.71-.22c11.2-.45 13.21-2.92 13.21-33.83v-77.5c0-30.91-2-33.38-13.21-33.83l-4.71-.22V2.91h108.42v39.65h-2l-2.46-7.62C312.35 8.29 296 5.82 275.16 5.82h-11.42c-9.86 0-10.53 3.59-10.53 33.83V75h13.22c10.08 0 21.5-.45 26.43-18.82l1.34-4.92h2v50.17h-2l-1.34-4.93c-4.93-18.36-16.35-18.81-26.43-18.81h-13.22v39.42c0 30.24.67 33.83 10.53 33.83h15.9c22.85 0 35.39-4.26 45.7-35.84l2.46-7.62h2v46.37zm187.94-62.95h-34.95v26.21c0 30.91 2 32.93 19.94 33.83l4.7.22v2.69h-60.93v-2.69l4.71-.22c11.2-.45 13.21-2.92 13.21-33.83v-77.5c0-30.91-2-33.38-13.21-33.83l-4.71-.22V2.91H404c31.81 0 53.31 19 53.31 45.92-.04 24.17-17.73 42.11-52.45 42.11zm-.23-85.12h-24.19c-9.86 0-10.53 3.59-10.53 33.83v48.61h35.84c21.73 0 28.45-19.72 28.45-40.1 0-18.82-7.39-42.34-29.57-42.34zm67.87 98.34V39.65c0-30.91-2-33.38-13.21-33.83l-4.71-.22V2.91h54.21V5.6l-4.7.22c-11.2.45-13.22 2.92-13.22 33.83v64.29c0 28.44 17.69 46.81 51.29 46.81 32.93 0 50.63-21.73 50.63-48.83V54.21c0-22.85-7.84-47.71-21.95-48.39l-4.71-.22V2.91H615V5.6l-2.46.22c-11.87.9-16.35 16.8-16.35 48.39v47.71c0 32.26-22.85 54.43-61.38 54.43-38.34 0-62.31-20.16-62.31-52.19z"/><path d="M614.29 153.89v-2.69l4.71-.2c11.2-.45 13.21-2.92 13.21-33.83V39.65c0-30.91-2-33.38-13.21-33.83l-4.71-.22V2.91h54V5.6l-4.71.22c-11 .45-13 2.92-13 33.83v77.5c0 30.24.67 33.83 10.53 33.83h15.23c24.64 0 34.94-4 47.49-42.79l2.46-7.61h2v53.31zm236.32 2.91c-7.17-8.74-11.2-10.75-15.23-10.75-2.91 0-5.38 1.34-9.19 3.58a48.76 48.76 0 01-25.76 7.17c-46.59 0-69.66-38.53-69.66-78.18 0-40.09 23.52-78.62 69-78.62a51.46 51.46 0 0125.76 6.94c3.14 1.8 5.15 3.14 7.62 3.14 3.81 0 6.94-2.46 13-10.08h1.79v42.56h-2l-2.47-7.62c-5.37-16.8-20.61-32.25-43.68-32.25-35.39 0-47.93 38.75-47.93 75.71 0 37.18 13.21 75.71 48.6 75.71 24.42 0 40.1-18.37 47.27-39l2.69-7.62h2v49.31zm261.15-5.8l-3.74.17v2.69h6.98v-2.66z"/><path d="M1110.93 151c-8.51-.45-15.68-9.19-24.64-23.75-2.24-3.8-8.29-14.11-12.09-20.16-9.19-14.33-18.6-21-38.76-27.1 10.31.22 19.49-.45 29.8-4.26 14.33-5.6 25.31-18.36 25.31-34.72 0-25-21.89-37.78-47.71-38.07h-78.21V5.6l4.7.23c11.2.44 13.22 2.91 13.22 33.82V75h-86.69V39.65c0-30.91 2-33.38 13.22-33.82l4.7-.23V2.91h-54.21V5.6l4.71.23c11.2.44 13.21 2.91 13.21 33.82v77.5c0 30.92-2 33.38-13.21 33.83l-4.71.22v2.69h54.21v-2.69l-4.7-.22c-11.2-.45-13.22-2.91-13.22-33.83V77.73h86.69v39.42c0 30.92-2 33.38-13.22 33.83l-4.7.22v2.69h54.2v-2.69l-4.7-.22c-11.2-.45-13.22-2.91-13.22-33.83V80h19.3c15.68 0 21.73 4.48 34.5 26.66 4.25 6.94 11 20.38 15.45 28.67 4.71 8.73 7.4 14.33 9.41 18.59H1108v-2.72l3.74-.17zm-110-73.7V39.65c0-30.91 2-33.38 13.22-33.82l4.7-.23 24 .23c16.8 0 26.88 12.54 26.88 35.61 0 19-4.93 35.84-31.81 35.84z"/><path d="M1218.9 107.52l-2.47 7.62c-10.3 31.58-22.85 35.84-45.69 35.84h-15.91c-9.85 0-10.52-3.59-10.52-33.83V77.73h13.21c10.08 0 21.5.45 26.43 18.82l1.35 4.92h2V51.3h-2l-1.3 4.93c-5 18.36-16.4 18.77-26.48 18.77h-13.21V39.65c0-30.24.67-33.82 10.52-33.82h11.43c20.83 0 37.18 2.46 45.69 29.12l2.47 7.61h2V2.91H1108V5.6l4.7.23c11.2.44 13.22 2.91 13.22 33.82v77.5c0 30.92-2 33.38-13.22 33.83l-1 .05-3.74.17v2.69h112.89v-46.37z"/></svg>