<?xml version="1.0" encoding="UTF-8"?><svg xmlns="http://www.w3.org/2000/svg" viewBox="0 0 29.79 28.63"><defs><style>.d{fill:#231f20;}</style></defs><g id="a"/><g id="b"><g id="c"><path class="d" d="M19.86,27.43c-1.58-2.16-.79-5.47-4.97-11.31-4.25,5.83-3.38,9.14-4.97,11.31-.79,1.01-2.38,1.8-4.1,.58-1.87-1.3-1.51-3.1-.79-4.18,1.58-2.16,4.97-2.3,9.22-8.14-6.91-2.23-9.72-.43-12.24-1.22-1.22-.43-2.52-1.73-1.8-3.74,.65-2.16,2.45-2.38,3.67-1.94,2.52,.79,3.74,3.96,10.66,6.12-.07-7.2-2.66-9.36-2.66-11.95,0-1.3,.86-2.95,3.02-2.95s3.02,1.66,3.02,2.95c0,2.66-2.66,4.75-2.66,11.95,6.91-2.23,8.14-5.33,10.66-6.12,1.22-.43,3.1-.14,3.67,1.94,.72,2.09-.58,3.31-1.8,3.74-2.59,.79-5.4-1.01-12.24,1.22,4.25,5.83,7.63,6.05,9.14,8.14,.79,1.08,1.08,2.88-.72,4.18-1.73,1.22-3.38,.43-4.1-.58Z"/></g></g></svg>