<svg xmlns="http://www.w3.org/2000/svg" viewBox="0 0 105.72 13.79"><g id="Layer_2" data-name="Layer 2"><g id="Layer_1-2" data-name="Layer 1"><path d="M35.56,6c0-1.36,0-2.36,0-3.36a1.46,1.46,0,0,0-.83-1.3c-.45-.28-.83,0-1.19.2-.53.33-.53.61,0,1,1.7,1.24,1.78,2.88.2,4.24a1.2,1.2,0,0,1-.6.33,6.08,6.08,0,0,1-3.5-.69c-.36-.2-.29-.44,0-.63a1.59,1.59,0,0,1,1.55-.18,1.48,1.48,0,0,0,1.8-.44,1.08,1.08,0,0,0-.35-1.73l-.32-.16c-1.19-.56-1.41-1.34-.12-2.06C32.84.82,33.33.05,34.22,0a1.87,1.87,0,0,1,1.1.15c.86.68,1.65,1.41,1.47,2.69a19.78,19.78,0,0,0-.16,3,5.68,5.68,0,0,1-.42,2.82c-.19.35-.07.61.25.89.74.61.73.83-.06,1.2a.92.92,0,0,0-.58,1,5.47,5.47,0,0,1,0,.81c-.11,1-.8,1.31-1.62.7a18.94,18.94,0,0,1-1.67-1.44c-.49-.44-.93-.92-1.42-1.36s-.56-.83.06-1.3a2.91,2.91,0,0,1,2.74-.56c.92.27,1,.25,1.25-.68A17.3,17.3,0,0,0,35.56,6ZM33,9.6c-.09,0-.45.12-.46.22a.9.9,0,0,0,.25.68,11.37,11.37,0,0,0,1.33.94c.11.07.34.11.41.05s.1-.28.08-.42C34.47,10.1,34,9.68,33,9.6Z"/><path d="M99.55,12.27c-.23,0-.47,0-.7,0-.75,0-.81-.12-.54-.8.07-.17.11-.36.18-.54.26-.64.6-.76,1-.22a.88.88,0,0,0,1.2.34c1-.33,2.09-.64,3.09-1a1.12,1.12,0,0,0,.58-.88,6.21,6.21,0,0,0-.65-2.17c-.52-.91-1.34-.94-2.13-.17a2.54,2.54,0,0,1-2.08.85,1,1,0,0,1-1-.74,7.76,7.76,0,0,0-.86-1.76.93.93,0,0,0-.73-.44.94.94,0,0,0-.6.6,1.9,1.9,0,0,1-2,1.64c-.78,0-.85.64-.87,1.26a1.37,1.37,0,0,1-.17.43L93,8.26a2.1,2.1,0,0,1,.34-2.73,1.25,1.25,0,0,1,1-.33c.49.1.63.06.6-.46a2.61,2.61,0,0,1,1.39-2.06,2.1,2.1,0,0,1,2,1.09c.39.67.76,1.35,1.13,2,.17.31.41.45.61.11.78-1.31,2.06-1,3.15-.84a2.92,2.92,0,0,1,2.22,2.19,4.42,4.42,0,0,1,.1,2.62,1.69,1.69,0,0,1-.6.79A10.09,10.09,0,0,1,99.55,12.27Z"/><path d="M22,5.72a1.13,1.13,0,0,1-1.2-1,2.63,2.63,0,0,0-.37-.82c-.48-.8-.4-1.14.45-1.55a4,4,0,0,1,4,.27c.35.21.46.84.62,1.3a4.28,4.28,0,0,1,.08.81c.12.8.32,1,1.13,1,1.08,0,1.43.26,1.56,1.27.22,1.8.4,3.61.55,5.41,0,.54.2,1.26-.62,1.42-.48.09-1-.75-.81-1.56.37-1.36-.11-2.6-.27-3.89a1.06,1.06,0,0,0-.1-.45,4,4,0,0,0-.58-.49c-.14.2-.4.4-.39.59a11.4,11.4,0,0,0,.21,1.83c.07.42.11.81-.38.95a.65.65,0,0,1-.89-.53C24.86,9,23.61,8.47,23.24,7.4c-.07-.23-.66-.37-1-.4-.79-.07-.82-.06-.49-.77L22,5.71a10.8,10.8,0,0,1,1.43-.46c.83-.16,1-.29.88-1.1s-.64-1.1-1.67-1c-.64.09-1,.71-.6,1.14S22.35,5.27,22,5.72Z"/><path d="M3.23,11.76c1.17.42,1.77.11,1.79-.9a8.53,8.53,0,0,0-.35-1.92.61.61,0,0,0-.9-.44c-.11,0-.25.12-.34.09-.29-.11-.57-.27-.86-.41A2.72,2.72,0,0,1,3,7.47c.2-.19.73-.2.5-.61A7.32,7.32,0,0,0,2.39,5.57s-.31.12-.34.23c-.09.33-.11.67-.18,1s-.09.73-.2.75c-.3.06-.85,0-.94-.15a11.74,11.74,0,0,1-.72-2c0-.11.08-.3.17-.41a3.74,3.74,0,0,1,4-.65,1,1,0,0,1,.34.54c.1.39.15.81.23,1.22A1,1,0,0,0,6.13,7a.78.78,0,0,1,1,.56.71.71,0,0,1-.6.95c-.61.11-.43.5-.37.88a3.68,3.68,0,0,1-.35,3,1.91,1.91,0,0,1-1.91.84c-1.52-.18-2.09-.7-2.1-1.94a1,1,0,0,1,.29-.69,8.41,8.41,0,0,1,1-.77.91.91,0,0,1,1.27,0,1,1,0,0,1-.18,1.44A7.18,7.18,0,0,1,3.23,11.76Z"/><path d="M64.48,9.19c.59,0,1.13-.07,1.68-.12A1.07,1.07,0,0,1,67.5,10c.2.7.4,1.4.61,2.1a1,1,0,0,1-.5,1.26c-.5.17-.91-.11-1.07-.75-.09-.33-.13-.68-.2-1a1.43,1.43,0,0,0-1.69-1.36c-.82,0-1.64.1-2.46.09-.45,0-.55.19-.51.55a11.08,11.08,0,0,1,.13,1.38,1.17,1.17,0,0,1-.34.86.72.72,0,0,1-1-.46,3.17,3.17,0,0,1,0-1.23c0-.53.39-1.19-.69-1.13-.4,0-.46-.56,0-.74,1.11-.43.66-1.33.72-2.08a.5.5,0,0,0-.13-.31,5.18,5.18,0,0,0-2.76-.67.67.67,0,0,0-.15.65,8.72,8.72,0,0,0,.74.89c.1.13.2.37.14.49a.6.6,0,0,1-.47.23c-.92,0-2.24-1.82-2-2.68a.79.79,0,0,1,.46-.47,6.29,6.29,0,0,1,1.81-.3c1,.06,2.08.28,3.12.41.47.06.7.24.63.75s-.12,1.23-.15,1.84c0,.41.17.64.61.68C63.05,9,63.78,9.12,64.48,9.19Z"/><path d="M81.22,7.69a.32.32,0,0,0,.18,0c.43-.13,1.11-.16,1.23-.43a1.83,1.83,0,0,0-.2-1.39c-.5-1-.33-1.58.72-1.75a8,8,0,0,1,2.54,0A1.84,1.84,0,0,1,87.13,7c-.46.81-.62,1.35.19,2.1a5.33,5.33,0,0,1,.85,2,.79.79,0,0,1,0,.34c-.16.87-.87,1-1.56,1.18s-1.56.32-2-.46a5.26,5.26,0,0,1-.51-1.76.79.79,0,0,1,.39-.64.82.82,0,0,1,.72.14c.33.29.82.5.74,1.1,0,.13.22.31.34.46.16-.17.42-.34.45-.54a1.45,1.45,0,0,0-.59-1.42c-1-.77-1-1-.63-2.16.12-.37.24-.74.35-1.11s.25-.68-.22-.88-1.43-.12-1.53.18a2.2,2.2,0,0,0-.06,1c0,.33.29.64.35,1s.17.82,0,1.05a1.37,1.37,0,0,1-1,.32c-.85,0-1.71-.09-2.56-.09-.41,0-.84.07-.86-.49s.36-.73.86-.68Z"/><path d="M17.82,10.43a8.16,8.16,0,0,1,0,1.43c-.08.39-.22.92-.5,1.05a1.37,1.37,0,0,1-1.11-.33A4.89,4.89,0,0,1,14.9,7.44a.87.87,0,0,0,0-.26l-4.15-.31c-.35,0-.77,0-.79-.48s.27-.67.75-.7c1.32-.07,2.64-.17,4-.25,1.09-.06,1.64.68,2.08,1.46a5.93,5.93,0,0,0,2.2,2.49,1.33,1.33,0,0,1,.8,1,1,1,0,0,1-.19.78,1,1,0,0,1-.84,0A3.79,3.79,0,0,1,17.82,10.43Z"/><path d="M42.61,12.72a3.63,3.63,0,0,1-3.47-2.28,1.35,1.35,0,0,0-.2-.54c-1-1.21-.26-2.17.45-3.1a1.57,1.57,0,0,1,1.79-.53,1.89,1.89,0,0,1,.87,1.12c.28.78-.27,1.3-1.12,1.18a8.26,8.26,0,0,0-1-.06A5.1,5.1,0,0,0,40.1,9.7a3.39,3.39,0,0,0,.72,1.05,2.37,2.37,0,0,0,.66.38c.05-.21.11-.42.14-.64A1.86,1.86,0,0,1,44,8.77a1.59,1.59,0,0,1,1.22,1.84A2.94,2.94,0,0,1,42.61,12.72Z"/><path d="M53,13a3.89,3.89,0,0,1-2.92-1.31,6.3,6.3,0,0,1-1.57-4.36,1.54,1.54,0,0,1,1-1.54c.21-.09.62-.1.72,0s.28.69.17.79A2.34,2.34,0,0,0,50,9.05a4.73,4.73,0,0,0,1.29,2,3.85,3.85,0,0,0,1.68.63c.13,0,.39-.17.5-.34s-.14-.33-.28-.43-.38-.11-.53-.22a1.2,1.2,0,0,1-.19-1.75c.33-.41,1.52-.76,1.79-.46a2.24,2.24,0,0,1,.36.93A12.51,12.51,0,0,0,55,11c.29.72.24,1.18-.45,1.51A10,10,0,0,1,53,13Z"/><path d="M76.71,12.32c-1.56.09-2.13-1-2.67-2.09a3.94,3.94,0,0,1,.14-3.67.85.85,0,0,1,1.25-.47c.56.25.64.61.24,1.06a3,3,0,0,0-.29,3.29,1.53,1.53,0,0,0,2.06.43c.08,0,.17-.19.15-.26a.43.43,0,0,0-.26-.18c-.18,0-.42,0-.57-.09s-.65-.45-.65-.67.34-.59.62-.73a2,2,0,0,1,2.43,1.28c.27.59,0,1.23-.9,1.63A10.27,10.27,0,0,1,76.71,12.32Z"/><path d="M12.06,11.27a5.07,5.07,0,0,1-1,.46c-.09,0-.38-.33-.4-.53,0-.47.28-.7.73-.6a2.57,2.57,0,0,1,.71.38Z"/><path d="M96.36,8.12c-.26-.34-.49-.52-.54-.74s.52-.74.94-.62c.16,0,.41.38.38.44A8.74,8.74,0,0,1,96.36,8.12Z"/><path d="M21,7.6c.22.42.48.68.44.89s-.35.41-.55.61c-.2-.24-.52-.45-.57-.72S20.62,8,21,7.6Z"/></g></g></svg>