<svg xmlns="http://www.w3.org/2000/svg" viewBox="0 0 106.82 16.22"><g id="Layer_2" data-name="Layer 2"><g id="Layer_1-2" data-name="Layer 1"><path d="M25,8.92l.82.07a1.55,1.55,0,0,0,1.9-1.52,3.78,3.78,0,0,1,.18-.9.71.71,0,0,1,.86-.44c.42.06.35.38.46.67.43,1.24,0,1.88-1.05,2.68a2.76,2.76,0,0,1-2.61.72A13.79,13.79,0,0,0,23.19,10c-.08,0-.22.23-.24.36a14.48,14.48,0,0,0-.11,1.73,1.08,1.08,0,0,0,.28.78,1,1,0,0,1,.29,1,.8.8,0,0,1-.75.77c-.52,0-.6-.39-.63-.8-.16-2-.31-4-.47-5.94a2.78,2.78,0,0,0,0-.58c-.22-.83-.59-.92-1.29-.42a13.36,13.36,0,0,1-2,1.18,1.37,1.37,0,0,1-1.83-.61c-.56-.83-1-1.72-1.56-2.59s-1.31-1.18-2.18-.42c-.66.59-1.22,1.29-1.84,1.92-.26.26-.51.75-.93.45-.16-.11-.14-.67,0-1a4.67,4.67,0,0,1,1-1.56,4.39,4.39,0,0,1,3-1.54,2.47,2.47,0,0,1,2.3,1.49c.31.59.52,1.22.83,1.8.43.79.89.92,1.62.39a6.36,6.36,0,0,1,2.92-1.4c.17,0,.3-.32.47-.46s.46-.36.52-.31a1.16,1.16,0,0,1,.4.6A7.31,7.31,0,0,1,23,6c.05.82.16.91,1,.77.3,0,.59-.27.82.12s.2.88-.39,1.08c-.4.15-.83.19-1.24.31-.13,0-.21.18-.32.27.11.1.2.28.32.29.58.06,1.17.07,1.75.11Z"/><path d="M37.06,10.49c.09,1.07-.46,1.47-1.55,1.95-.6.27-1.19.57-1.78.86s-.45.57-.13.93a7.84,7.84,0,0,1,.54.61c.2.29.41.63.1.94s-.56.49-.73.43-.75-.44-.79-.72a2.12,2.12,0,0,0-1.49-2c-.38-.14-.63-1-.69-1.5s-.16-.34-.46-.21a12.59,12.59,0,0,1-1.63.58.45.45,0,0,1-.4-.12.66.66,0,0,1,.05-.52,8.42,8.42,0,0,1,1.22-1.24,2.69,2.69,0,0,0,.94-2,24.36,24.36,0,0,1,.58-3.18,3,3,0,0,1,2.48-1.65,3,3,0,0,1,1.5,1,9.2,9.2,0,0,1,1.33,2.42C36.55,8.17,36.76,9.34,37.06,10.49Zm-1.47.28c-.18-1-.25-1.74-.47-2.47a13.5,13.5,0,0,0-1-2.36,1.14,1.14,0,0,0-1.26-.65c-.55.11-.69.54-.76,1a3.6,3.6,0,0,1-.27,1,1.45,1.45,0,0,0,.09,1.44A1.46,1.46,0,0,1,31.56,11a.59.59,0,0,0-.23.46c.06.51,1.4,1.16,1.87.91.65-.34,1.3-.69,1.93-1.08A1.88,1.88,0,0,0,35.59,10.77Z"/><path d="M65.25,7.08a1.48,1.48,0,0,1-1,1.82.7.7,0,0,0-.46.91c.14.71-.46,1.11-1,1.45s-.72.09-.82-.43a3,3,0,0,1,1-2.71,2.41,2.41,0,0,0,.77-1.85,3.35,3.35,0,0,1,2-2.47,2.75,2.75,0,0,1,1,.12c.34.08.65.25,1,.33a1.25,1.25,0,0,1,1.1,1.67l-.06.23c-.11.33-.36.69-.28,1s.64.16.87.35a2.13,2.13,0,0,1,.77,1,8.82,8.82,0,0,1,.22,4.7A2.82,2.82,0,0,1,68.24,15a2.48,2.48,0,0,1-2.13-1.58,2.11,2.11,0,0,1,0-1.22.94.94,0,0,1,.73-.4c.19,0,.47.24.57.45a4.66,4.66,0,0,1,.24,1c.12.56.46.75.88.39a2.18,2.18,0,0,0,.84-1.19,16.94,16.94,0,0,0-.13-2.75A.72.72,0,0,0,68.36,9a5.43,5.43,0,0,1-.7,0c-1-.07-1.4-.67-1.06-1.58a4.51,4.51,0,0,1,.61-1c.39-.54.37-.71-.2-1-1.1-.48-1.72-.08-1.76,1.12Z"/><path d="M45.79,9a3.69,3.69,0,0,0,.34,1.08,5.25,5.25,0,0,1,.76,2.41c.28,1.6-.67,2.36-2.23,1.85a5.81,5.81,0,0,0-1.11-.14c-.19,0-.49,0-.54-.07a10.22,10.22,0,0,1-1-1.92c-.15-.41.37-.91.83-.94a.66.66,0,0,1,.76.69,1.22,1.22,0,0,0,1.16,1.24c.51.1.9-.16.85-.65a2.75,2.75,0,0,0-1.26-2.47c-.58-.31-.58-.68-.33-1.24a2.89,2.89,0,0,0,.16-1.43c0-.3-.35-.57-.55-.85-.19.22-.4.42-.57.66a13.91,13.91,0,0,1-1,1.43,5,5,0,0,1-1.39,1.17c-.53.26-.92-.16-.77-.73.07-.26.23-.5.3-.76a1,1,0,0,0-.81-1.18c-.35,0-.83.62-.78,1.1,0,.19.16.36.19.55a.59.59,0,0,1-.59.71c-.43,0-.41-.29-.37-.65a4.43,4.43,0,0,0-.1-1.25c-.21-1.35.59-2,1.89-1.49.62.25,1.38.31,1.7,1.11.14.36.36,0,.47-.16a22,22,0,0,1,1.2-2c.67-.85,1.49-.78,1.89.23S45.66,7.76,46,9Z"/><path d="M91.06,7.74l.22,1.44c.41-.26.8-.55,1.22-.79a2.35,2.35,0,0,0,1.19-1.63A1.07,1.07,0,0,1,94.83,6a1,1,0,0,1,.58,1.13,1.64,1.64,0,0,1-.86,1.42c-.64.36-1.23.81-1.84,1.23a1.57,1.57,0,0,0-.71,1.9c.16.52.13,1.09.3,1.6a1.14,1.14,0,0,1-.61,1.46,8,8,0,0,1-1.48.69c-.38.15-.72.05-.77-.42a16.18,16.18,0,0,1-.17-2.3,5.16,5.16,0,0,0,0-1.67c-.12-.5.38-1.14.52-1.74a12.14,12.14,0,0,0,.23-1.8A.57.57,0,0,0,89.78,7a.55.55,0,0,0-.48.19c-.33.53-1.17.69-1.15,1.5,0,.07-.38.25-.45.19s-.35-.37-.31-.53a3.45,3.45,0,0,1,.47-1.29,3.54,3.54,0,0,1,1.85-1.51,1,1,0,0,1,1.36.88c.07.42.07.85.1,1.27Z"/><path d="M11.8,7.4a5.43,5.43,0,0,0,.8-.4,1.43,1.43,0,0,1,2.08.12A5.86,5.86,0,0,1,16.11,9.6c.05.12.19.2.28.3.06-.13.19-.26.18-.39,0-.33-.07-.65.4-.65s.58.3.62.69a1.83,1.83,0,0,1-2.09,2c-.5-.09-.67-.48-.71-.94a10.25,10.25,0,0,0-.15-1.37,1.89,1.89,0,0,0-.45-.79c-.13-.15-.39-.18-.59-.26,0,.18-.09.35-.13.53a1.94,1.94,0,0,0,0,.24c0,1.23-.52,1.67-1.74,1.58s-1.34-.1-1.8,1.17c-.14.38-.25.77-.72.83a1.1,1.1,0,0,1-1.1-.7,7.07,7.07,0,0,1-.91-3.33,7.22,7.22,0,0,1,0-.93A3.25,3.25,0,0,1,7.42,7c.18.17.45.32.52.53.28.83.49,1.69.73,2.53a2.83,2.83,0,0,0,.17.4c.11-.08.29-.13.34-.24a2,2,0,0,1,2.06-1.23c.34,0,.62-.09.66-.5s-.14-.57-.53-.63c-.16,0-.3-.17-.45-.26l.57-.28a.82.82,0,0,1,.23,0Z"/><path d="M102.5,6.84c.26,0,.57,0,.88.1,1.11.17,2-.38,2-1.51a13.9,13.9,0,0,0-.6-3.29c-.13-.51-.95-.44-1.31.13a3.27,3.27,0,0,0-.56,1.37,2.39,2.39,0,0,1-.78,1.5,8.13,8.13,0,0,0-1,1.4,3.23,3.23,0,0,0-.16,1.09,2.21,2.21,0,0,1-.08.37c-.14,0-.33,0-.43-.12a1.85,1.85,0,0,1-.18-2.45,6.93,6.93,0,0,0,1-2.2,15.51,15.51,0,0,1,1-2.09.68.68,0,0,1,.34-.31c.8-.28,1.6-.55,2.42-.8a.63.63,0,0,1,.81.48,5.57,5.57,0,0,1,.28,1c.22,1.09.38,2.2.66,3.28a2.83,2.83,0,0,1-3.14,3.43c-.42,0-.85,0-1.27-.08-.18,0-.44,0-.53-.13a3.77,3.77,0,0,1-.45-.78c.25-.13.49-.28.75-.39A1.08,1.08,0,0,1,102.5,6.84Z"/><path d="M75.41,5.37c.52.1,1.18,0,1.52.33s0,.92.08,1.39c.08.69-.26,1.48.45,2.06.1.07.07.49,0,.59a2.54,2.54,0,0,1-1.43.89,12.06,12.06,0,0,0-2.22.68c-1,.29-1.54,0-1.43-1a8.39,8.39,0,0,0-.4-2.71c-.22-1.06,0-1.48,1-1.85a5.68,5.68,0,0,1,1.25-.28,11.2,11.2,0,0,1,1.16,0Zm-.53,3.87c-.42-.52-.82-1-1.24-1.5,0,0-.32.12-.32.12A17.9,17.9,0,0,0,74,9.63c0,.08.42,0,.62,0S74.78,9.39,74.88,9.24Z"/><path d="M51.9,10.15c-.79-.14-1.71-.3-2.63-.49-.56-.11-.64-.58-.72-1.06C48.4,7.72,48.24,6.84,48,6c-.06-.25-.17-.94-.71-.28,0,.06-.25.06-.27,0a.32.32,0,0,1,0-.31,2.27,2.27,0,0,1,1.58-1.19,19.25,19.25,0,0,1,3.72,0,.92.92,0,0,1,.94.84c.07.31.07.62.12.93a2.75,2.75,0,0,0,1,2,1.12,1.12,0,0,1-.48,1.85C53.28,10,52.66,10.05,51.9,10.15Zm.41-2c-.08-.69-.17-1.37-.26-2.06A1.86,1.86,0,0,0,52,5.8a1.39,1.39,0,0,0-2.11-1c-.64.27-.72.5-.5,1.22a8.68,8.68,0,0,1,.17,1,2,2,0,0,0,2.16,1.79C52.06,8.78,52.41,8.67,52.31,8.2Z"/><path d="M3.45,11.31A1.13,1.13,0,0,1,2.3,10.5C2,9.81,1.73,9.13,1.47,8.45A2.08,2.08,0,0,0,.37,7c-.44-.17-.45-.54-.22-1,.48-.89.45-.87,1.54-.8a10.89,10.89,0,0,0,1.38-.19A6.1,6.1,0,0,1,5,5.05,3,3,0,0,1,6.73,7.86a2.22,2.22,0,0,1-.45.78c-.38.53-.8,1-1.15,1.58A2.19,2.19,0,0,1,3.45,11.31ZM3.51,6a7.57,7.57,0,0,0-1.1.63.65.65,0,0,0-.16.6q.41,1.08.9,2.13c.29.61.75.62,1.11,0a8.41,8.41,0,0,0,.9-1.7,1.17,1.17,0,0,0-.25-1A5.7,5.7,0,0,0,3.51,6Z"/><path d="M58.94,14.28c-2.61.1-3.57-2.65-3.27-4.26A3.51,3.51,0,0,1,57,8.2a.7.7,0,0,1,1.05.06.64.64,0,0,1-.16.93l-.26.23c-.43.47.43.79.19,1.12s-.72.36-1,.63.31,1.13.59,1.11.31-.2.39-.35c.59-1.15.75-1.26,1.8-1.15a2.22,2.22,0,0,1,1.78,1.63A.88.88,0,0,1,61,13.49C60.31,13.8,59.62,14,58.94,14.28Z"/><path d="M79.13,5.32a14.55,14.55,0,0,1,0-1.62c0-.17.25-.35.43-.44s.33.2.38.35a10.71,10.71,0,0,1,.32,1.47,55.58,55.58,0,0,0,.89,6.79,2.81,2.81,0,0,1,0,1.38,1.09,1.09,0,0,1-.69.62c-.15,0-.45-.35-.61-.59s0-.38-.06-.57l-.54-5.43c-.07-.65-.15-1.3-.22-1.95Z"/><path d="M82.64,4.71c.09,1.08.14,2.12.29,3.15,0,.25.45.44.66.68s.44.5.4.71a1,1,0,0,1-.59.61c-1.07.34-1.65-.07-1.73-1.17,0-.57-.19-1.15-.18-1.72,0-1,.12-2,.21-3,0-.33.2-.61.62-.51a.5.5,0,0,1,.39.7A3.69,3.69,0,0,0,82.64,4.71Z"/><path d="M66.28,11.26a3,3,0,0,1-.63-.18c-.27-.15-.74-.35-.74-.52,0-.51.53-.56,1-.62a1.5,1.5,0,0,1,.45.09c.36.11.86.18.69.68C66.9,11,66.46,11.13,66.28,11.26Z"/><path d="M99,7.28a5.61,5.61,0,0,1-.81,1c-.39.3-1.13.22-1.13-.06a1.53,1.53,0,0,1,.44-.85,1.64,1.64,0,0,1,.8-.45C98.48,6.89,98.7,7.11,99,7.28Z"/><path d="M96,4a.82.82,0,0,1-.87.78c-.47,0-.91-.4-.83-.79a.78.78,0,0,1,.88-.6C95.59,3.36,95.93,3.49,96,4Z"/><path d="M39.92,13.24c-.31,0-.72.07-.7-.47a1,1,0,0,1,1.13-.8c.38,0,.7.19.66.64S40.58,13.28,39.92,13.24Z"/></g></g></svg>