<?xml version="1.0" encoding="UTF-8"?><svg xmlns="http://www.w3.org/2000/svg" viewBox="0 0 26.64 65.31"><defs><style>.d{fill:#231f20;}</style></defs><g id="a"/><g id="b"><g id="c"><path class="d" d="M19.37,43.28c2.95,2.3,5.11,5.33,5.11,10.01,0,7.27-5.33,12.02-11.38,12.02-8.5,0-11.88-4.1-11.88-7.78,0-2.23,1.51-3.74,3.67-3.74,1.94,0,3.67,1.51,3.67,3.67s-1.3,3.17-1.3,4.1c0,1.08,.72,2.81,5.76,2.81,5.76,0,8.42-3.89,8.42-8.28C21.46,43.78,0,46.08,0,32.26c0-5.11,3.53-8.78,7.27-10.23-2.95-2.3-5.11-5.33-5.11-10.08C2.16,4.68,7.49,0,13.54,0c8.5,0,11.95,4.1,11.95,7.78,0,2.16-1.58,3.74-3.74,3.74-1.94,0-3.6-1.58-3.6-3.74s1.3-3.1,1.3-4.1-.79-2.74-5.83-2.74C7.85,.94,5.26,4.75,5.26,9.15c0,12.31,21.39,10.01,21.39,23.83,0,5.11-3.53,8.86-7.27,10.3Zm-.79-.58c2.66-.94,5.04-3.17,5.04-6.91,0-7.13-9.29-8.78-15.62-13.25-2.66,1.01-4.9,3.17-4.9,6.91,0,7.13,9.14,8.78,15.48,13.25Z"/></g></g></svg>