<svg xmlns="http://www.w3.org/2000/svg" viewBox="0 0 134.64 34.48"><g id="Layer_2" data-name="Layer 2"><g id="Layer_1-2" data-name="Layer 1"><path d="M5.92,15.89c.54.06,1.09.09,1.63.16a1.55,1.55,0,0,1,1.5,2,11.68,11.68,0,0,1-.73,2.33c-.51,1.18-1.11,2.32-1.67,3.47-.4.84-.26,1.13.62,1a8.56,8.56,0,0,0,4.23-1.05.46.46,0,0,1,.42-.06.55.55,0,0,1,.18.39A1.56,1.56,0,0,1,11,25.57c-1.76.3-3.5.83-5.33.37-.76-.19-1-.35-.73-1.11a11.77,11.77,0,0,1,.69-1.73c.47-1,1.08-1.91,1.45-2.92a9.21,9.21,0,0,0,.4-2.51c0-.17-.46-.5-.73-.53-1.43-.15-2.87-.23-4.31-.34a3.93,3.93,0,0,1-.92-.12C0,16.14-.44,15,.47,13.56c.68-1,1.45-2,2.16-3,.47-.67,1.22-.62,1.89-.76s1.07-.16,1.6-.24c-.16-.47-.31-.95-.49-1.41-.26-.68-.58-1.35-.83-2a11.92,11.92,0,0,1-.39-1.45c-.06-.3.12-.77-.53-.59-.08,0-.3-.35-.4-.57a1,1,0,0,1,0-.46c0-.35-.3-.86.27-1s.84.25,1,.74q1.41,3.3,2.86,6.58a6.09,6.09,0,0,0,1.85,2.17,7.21,7.21,0,0,1,2.94,6.27c-.06.71-.56,1-1.11,1.21a.91.91,0,0,1-1.16-.55c-.78-1.56-1.52-3.14-2.26-4.73a4.93,4.93,0,0,1-.48-1.31c-.18-1-.88-1.29-1.7-1.54a1.46,1.46,0,0,0-1.49.36,18.31,18.31,0,0,0-2.66,2.91c-.56.7-.45,1.15.44,1.31,1.29.25,2.6.39,3.9.57Zm3.13-3a1.49,1.49,0,0,0,0,.49c.55,1.28,1.12,2.55,1.69,3.82,0,.06.17.12.18.1s.16-.17.15-.25A8.16,8.16,0,0,0,9.4,13.2,2.17,2.17,0,0,0,9.05,12.91Z"/><path d="M55.76,30.34c-1.87,0-1.86,0-2.3-1.67a1.54,1.54,0,0,0-1-1.22,2.09,2.09,0,0,1-.89-.73c-.46-.61-.58-.28-.69.19a4,4,0,0,1-1.5,2.56,2,2,0,0,0-.57,1c-.31,1-.16,1.09.87,1.12a2.21,2.21,0,0,1,1.35.51,1,1,0,0,1-.42,1.71,4.93,4.93,0,0,1-2.06,0,1.59,1.59,0,0,1-1-1,4.47,4.47,0,0,1,.22-3.4c.23-.35.51-.79-.06-1.09s-1-.27-1.26.37a2.33,2.33,0,0,1-.61.84,1.07,1.07,0,0,1-.81.19c-.15,0-.27-.4-.32-.64-.1-.45-.13-.92-.23-1.37a.88.88,0,0,1,.43-1.08,1,1,0,0,0,.13-1.53c-.43-.51-.81-.31-1.17.11-.1.11-.2.3-.32.32a1.17,1.17,0,0,1-.75-.07.84.84,0,0,1-.29-.68,1.72,1.72,0,0,1,1.33-1.3,9.3,9.3,0,0,0,.92-.16,1.08,1.08,0,0,1,1.35.66A10.07,10.07,0,0,1,46.9,26c.2.94,1,.78,1.56.92s.65-.44.75-.83a1.41,1.41,0,0,1,.71-1c.34-.2.47-.73.71-1.1s.36-.53.54-.79a2.59,2.59,0,0,1,.46.82,2.09,2.09,0,0,0,1,1.64,2.8,2.8,0,0,0,.51.18,3.53,3.53,0,0,0,.1-.55c0-.16-.12-.33-.08-.46a7.74,7.74,0,0,1,.37-.9c.27.15.56.3.82.47.09.06.13.19.19.29.2.36.33.91.63,1a5.15,5.15,0,0,0,1.72.22c.39,0,.78-.08,1.17-.1.65,0,1.39,0,1.56.72a2.14,2.14,0,0,1-.31,2.2A4.17,4.17,0,0,1,55.76,30.34Zm1-3.11,0,.08H55.8c-.56,0-.88.22-.87.82s.29.87.89.74A3.83,3.83,0,0,0,57,28.53a8.56,8.56,0,0,0,1.18-1Z"/><path d="M100.75,8.23c-.07.66.23,1.47-.7,1.68s-1-.67-1.2-1.24c-.35-.89-.3-.83-1.18-.5a2.4,2.4,0,0,0-1.43,1.41,2.26,2.26,0,0,1-1.5,1.52,1.11,1.11,0,0,1-1.52-1.2c0-.19.1-.39.08-.57,0-.34-.14-.66-.21-1a5.64,5.64,0,0,0-.31.87c-.39,1.71-1.68,2.66-3,3.5-.52.31-1.86-.35-2.48-.68-1.4-.76-1.14-1.91-.88-3a17.5,17.5,0,0,1,1-2.85,1,1,0,0,1,.77-.52,1,1,0,0,1,.59.71c.13.92.13,1.85.2,2.77,0,.58-.17.92-.79.88s-.49.29-.28.62a1.16,1.16,0,0,0,2.09.16c.81-.94,1.66-1.86,1.57-3.27-.05-.66.52-1,1.38-1.15a1.62,1.62,0,0,1,1.62.91c.15.35.22.74.35,1.11,0,.09.14.15.22.23.07-.07.2-.14.21-.23A2.63,2.63,0,0,1,97.07,6.5a.85.85,0,0,0,.5-1.15c-.13-.49-.25-1-.37-1.47a1.54,1.54,0,0,1-.1-.68,4,4,0,0,1,.54-.84c.26.18.65.31.75.55.37.94.65,1.91,1,2.86a8.08,8.08,0,0,0,.37,1,.4.4,0,0,0,.36.13c.52-.15.52-.17.57.35C100.69,7.57,100.72,7.92,100.75,8.23Z"/><path d="M29.28,30.45c0-.12,0-.23,0-.35,0-.58.15-1.31-.14-1.7s-1-.31-1.56-.48a5.42,5.42,0,0,1-1.2-.46,1.62,1.62,0,0,1-.66-2A4.11,4.11,0,0,1,29.9,22.9a.81.81,0,0,0,.58-.22c.24-.28.42-.83.85-.55A2,2,0,0,1,32,23.27a6.61,6.61,0,0,1,.13,1.61c0,1.94,0,3.87.08,5.81a16.87,16.87,0,0,0,.31,1.7,5.67,5.67,0,0,1,.06,1.48,1,1,0,0,1-.57.61c-.17.05-.52-.17-.65-.36-.3-.43-.43-1-1.21-.71-.13.05-.69-.67-.79-1.1a8.24,8.24,0,0,1,0-1.86Zm0-5c0-.47,0-1-.72-.93a1.35,1.35,0,0,0-1.19,1.34c.05.71.61.69,1.11.69C29.17,26.56,29.32,26.33,29.3,25.47Z"/><path d="M95.25,27.26c-1.64.14-1.64.14-1.8,1.76a2.81,2.81,0,0,1-2.89,2.61,1,1,0,0,1-1-1,.82.82,0,0,1,1-.86c.63.06,1.08,0,1.22-.72a1.48,1.48,0,0,0-.64-1.79,1.74,1.74,0,0,1-.4-.23c-.18-.19-.48-.49-.43-.6A1.6,1.6,0,0,1,91,25.9c.31-.19.82-.27.92-.53a4.4,4.4,0,0,0,.19-1.59.69.69,0,0,0-.5-.4,13.77,13.77,0,0,0-2.32.13c-.61.1-.77.6-.66,1.18s.26,1-.5,1.17-1-.33-1.16-.89a.68.68,0,0,1,0-.23c.1-.63-1-.83-.55-1.62.27-.49.37-1.08.6-1.59.08-.18.36-.42.48-.39.28.07.71.28.73.46.09.87.55.74,1.15.58s1.45-.29,2.18-.42c1.74-.3,2.72.65,2.45,2.39,0,.3-.23.58-.3.88-.21.83.07,1.11,1,1a18.32,18.32,0,0,1,2.09-.13,2.4,2.4,0,0,1,1,.26A.71.71,0,0,1,98,27.23a.76.76,0,0,1-1,.42C96.45,27.48,95.85,27.39,95.25,27.26Z"/><path d="M48.8,13.76a6.73,6.73,0,0,1-.31,1,2,2,0,0,1-.49.63c-.51.49-1,0-1.52,0s-.58.9-.91.94a4.82,4.82,0,0,1-1.92-.32,2,2,0,0,0-2.21.67,5,5,0,0,1-.87.78,1.08,1.08,0,0,1-1.5-.43c-.35-.8-.67-1.62-1.07-2.4A1.41,1.41,0,0,1,38.22,13a16.62,16.62,0,0,1,1.57-1.57,1.32,1.32,0,0,1,2.24.4.78.78,0,0,1,0,.23l.31.88-.87-.46c-.14-.08-.34-.26-.39-.23a14,14,0,0,0-1.66,1.4,1,1,0,0,0,.06,1.29c.46.64.79.71,1.48.32a9.77,9.77,0,0,1,1.64-.84c.69-.24.56-.8.59-1.25a3,3,0,0,1,1.11-2.33A1.79,1.79,0,0,1,45,10.5,3.35,3.35,0,0,1,48.8,13.76Zm-3-.29a2.17,2.17,0,0,0,.57,0,6.09,6.09,0,0,0,.71-.27,2.76,2.76,0,0,0-.38-.79,1.3,1.3,0,0,0-.74-.27c-.71-.08-1.16.24-1.17.81C44.74,13.77,45.4,13.34,45.77,13.47Z"/><path d="M113.26,27.06c0,1.51,0,3,0,4.54,0,.43,0,.91-.58,1a.79.79,0,0,1-.94-.81,21.19,21.19,0,0,1,0-2.76c.06-1.12.16-2.24.23-3.37,0-.18,0-.45-.11-.55s-.56-.52-.82-.49-.48.4-.6.68a14.38,14.38,0,0,1-.63,1.71,2,2,0,0,1-3.25.28,5.61,5.61,0,0,1-1.17-5.37,1.34,1.34,0,0,1,1.75-.95c.48.08,1.34,1.05,1.24,1.52a1.37,1.37,0,0,1-.58.81c-.17.1-.53-.08-.8-.17a1.27,1.27,0,0,1-.34-.28,2.92,2.92,0,0,0,0,.51,7.55,7.55,0,0,0,.09,1.26c.08.34.28.59.64.18a5.61,5.61,0,0,1,3.6-1.67,2.19,2.19,0,0,1,2.49,2.17,11.35,11.35,0,0,0,0,1.75Z"/><path d="M129.45,10a1.21,1.21,0,0,0-.78-1.12A3.54,3.54,0,0,1,127,7.16a1.17,1.17,0,0,1,.14-1.41,10.25,10.25,0,0,1,1.6-1.49c.23-.16,1-.07,1,.07.32.91.62.27.88,0a6.3,6.3,0,0,0,2-3.07.83.83,0,0,1,1.18-.59c.6.29.45.76.18,1.18-.51.82-1,1.64-1.6,2.44-.29.41-.3.59.24.84a5.86,5.86,0,0,1,1.48,1.11,1.79,1.79,0,0,1,.28,2.07,1.32,1.32,0,0,1-1.46.95c-1.51-.2-2.2.28-2.49,1.87-.15.81-1.15,1.48-1.77,2.21-.11-.13-.35-.3-.32-.39.19-.67.43-1.32.67-2C129.18,10.67,129.32,10.36,129.45,10ZM132,7.92V7.86a4.09,4.09,0,0,0,.7,0c.58-.1.69-.41.32-.88-.12-.15-.24-.34-.41-.4s-.62-.14-.7,0a8.87,8.87,0,0,0-.69,1.29Z"/><path d="M26.51,8.83c-.24-.59,0-.92.59-1A3.8,3.8,0,0,1,30,7.91a1.83,1.83,0,0,0,.53.17,2.25,2.25,0,0,0-.07-.64c-.31-.84-.7-1.65-1-2.5-.18-.62.19-1,.82-.88a1.07,1.07,0,0,1,.64.53,6.25,6.25,0,0,1,.16.9,8.1,8.1,0,0,0,.45.94c.26-.18.54-.36.79-.55.76-.59,1.22-.42,1.44.48.17.69.23,1.44,1.35,1.27.56-.08,1,.62,1,1.26a1.06,1.06,0,0,1-1,1.18,10.75,10.75,0,0,1-1.39,0c-.21,0-.43-.06-.64-.09.07.17.15.34.22.52.25.61.5,1.22.74,1.83a1,1,0,0,1-.17,1.18c-.43.39-.73.34-1-.19s-.55-1.11-.83-1.67a2.18,2.18,0,0,0-.26-.36c-.06.12-.13.25-.18.38s-.11.57-.28.76-.52.53-.78.52c-.47,0-.57-.46-.52-.88s.14-1.08.22-1.62,0-.62-.51-.7c-1-.17-2-.42-3-.64Z"/><path d="M26.51,8.83l.27.27a5.21,5.21,0,0,0,.71.9c1.82,1.49,1.67,3.12-.35,4.35a3.43,3.43,0,0,1-3.65-.07,1.12,1.12,0,0,1,0-2.1,1.67,1.67,0,0,1,1.2-.28c.8.34,1.3,0,2-.36s.46-.36.14-.66-.42-.46-.66-.66c-.43-.35-.87-.51-1.35,0a1,1,0,0,1-.61.29,1.21,1.21,0,0,1-.81-.29,1.12,1.12,0,0,1-.1-.82c.07-.4.43-.85.33-1.17a7.14,7.14,0,0,0-1-1.83c-.29-.4-.6-.29-.68.21s0,.85-.09,1.27c-.11.88-.25,1.75-.4,2.62,0,.12-.18.2-.28.3-.07-.07-.21-.15-.22-.23-.1-1.31-1.07-2.45-.76-3.84a15,15,0,0,1,.28-1.49,1.28,1.28,0,0,1,1.89-.73,6.65,6.65,0,0,1,2.62,2.89A3.13,3.13,0,0,0,26.51,8.83Z"/><path d="M65,8.61c0-.23,0-.47,0-.7.09-.65-.33-.83-.84-.86-.3,0-.62.12-.92.1-.6-.05-.66.25-.57.71a1.54,1.54,0,0,1,.08.69,1,1,0,0,1-.48.57.64.64,0,0,1-.6-.2,2.26,2.26,0,0,0-2.31-1c-1,0-1.32-.28-1.3-1a1.58,1.58,0,0,1,1.52-1.6c1.82.09,3.64.16,5.47.24.87,0,1,.19,1.2,1a6.73,6.73,0,0,1-.13,3A22.07,22.07,0,0,0,65.77,13c-.11,1.41-.59,1.69-1.76.88a6.12,6.12,0,0,0-3-1.29.66.66,0,0,1-.68-.78c.07-.48.43-.63.87-.55s.85.19,1-.43c0-.15.32-.25.49-.37.1.22.34.48.29.65-.18.65.18.95.64,1.21s.88.21,1-.44c.16-1.07.27-2.15.4-3.23Z"/><path d="M18.72,19.07c-.72-.16-1.58-.29-2.39-.54a1.67,1.67,0,0,1-1.09-1.75c.08-1.37.66-2,2.18-2.38.9-.22.9-.22.55-1-.2-.46-.38-.94-.61-1.39s-.52-.54-.84-.05-.71,1.29-1.09,1.91a2.73,2.73,0,0,1-.55.52c-.19-.21-.49-.39-.56-.63A4.54,4.54,0,0,1,16.09,10a1.71,1.71,0,0,1,2.41,1.09,5.24,5.24,0,0,0,.26.88c.52,1,.56,1,1.36.16a1.11,1.11,0,0,1,.33-.32.5.5,0,0,1,.43,0,.43.43,0,0,1,.12.39,3.08,3.08,0,0,1-.44.82,2.71,2.71,0,0,0-.47,2.83,9.14,9.14,0,0,1,.32,1.59C20.66,18.89,20.14,18.88,18.72,19.07Zm-.86-3c-.15,0-.4-.05-.52.05a4.82,4.82,0,0,0-.61.73,4.52,4.52,0,0,0,.66.33c.29.08.6.1.89.15l.74.14c0-.26,0-.53-.05-.79C18.89,16,18.37,16.11,17.86,16.09Z"/><path d="M53.11,7.69v.73c0,.56.27.75.84.6,1.13-.3,2.27-.58,3.41-.81.35-.07,1-.09,1.07.1a2,2,0,0,1,0,1.16,9.46,9.46,0,0,0-.21,1.14,2,2,0,0,1-1.06,1.82,8.19,8.19,0,0,1-2.09,1,2.06,2.06,0,0,1-2.75-1.76c0-.23,0-.47-.1-.69a1.46,1.46,0,0,0-1.49-1.22h-.59c-.5,0-1-.18-1-.74s.43-.67.87-.69A1,1,0,0,0,51,7.57c.14-.32.23-.75.48-.91a2.17,2.17,0,0,1,1.26-.33c.46,0,.53.5.46.93A3.62,3.62,0,0,0,53.11,7.69Zm3.61,2.42a3,3,0,0,0-.51-.24c-.41.58-1.65-.34-1.63.82a1.59,1.59,0,0,0,.81,1.13C55.83,12,56.77,10.87,56.72,10.11Z"/><path d="M70,5.26c-.08.8-.15,1.38-.18,2a2.41,2.41,0,0,0,.15.63,2.08,2.08,0,0,0,.43-.34,2.16,2.16,0,0,1,2.59-.77c.36.11.86.44.92.73a1.64,1.64,0,0,1-.42,1.21,2.89,2.89,0,0,1-1.15.51c-1,.34-1.21.69-.68,1.61.4.71.88,1.37,1.34,2,.21.32.56.63.61,1a2.23,2.23,0,0,1-.18,1.43c-.15.24-.75.27-1.14.27A3.05,3.05,0,0,1,70,14.15c-.36-.39-.23-.77,0-1.18.83-1.6.77-1.75-.61-2.85a1.75,1.75,0,0,1-.55-1c-.2-1.11-.32-2.23-.44-3.35a.84.84,0,0,1,.17-.65,1.26,1.26,0,0,1,.84-.41C69.65,4.76,69.84,5.15,70,5.26Z"/><path d="M39.18,24.45a12.82,12.82,0,0,1,0-1.52c0-.23.28-.62.4-.61a1,1,0,0,1,.72.42,2.21,2.21,0,0,1,.26,1c0,.58,0,1.17,0,1.75,0,1.1.32,1.34,1.37.93a.94.94,0,0,1,1.15.19c.56.53.45,1.1-.28,1.31a5,5,0,0,1-1.39.12c-.61,0-.81.28-.84.86-.07,1.4.13,1.64,1.57,1.81a3.65,3.65,0,0,1,1.23.31A1,1,0,0,1,44,32.27c-.14.55-.54.58-1,.53a5,5,0,0,1-2.62-.88,2.29,2.29,0,0,1-1.11-2.38c.27-1.73-.7-2-2.34-1.84-.3,0-.6.29-.88.27a1.13,1.13,0,0,1-.84-.45,1,1,0,0,1,.33-.86,3.07,3.07,0,0,1,2.79-.34c.66.19.87.06.86-.59,0-.43,0-.86,0-1.28Z"/><path d="M112.24,6.77c0-.62,0-1.25,0-1.87a2.21,2.21,0,0,1,1.45-1.81,1.55,1.55,0,0,1,1.85,1,5.88,5.88,0,0,1,0,1.73.64.64,0,0,1-.43.47c-.14,0-.36-.19-.51-.34s-.08-.3-.16-.43-.33-.49-.5-.73a3.31,3.31,0,0,0-.5.94c-.14,1.14.08,1.39,1.25,1.39s2.49.26,3.69-.34c.2-.11.75.17,1,.42s0,.78-.38.92a11.87,11.87,0,0,1-1.78.44c-.39.08-.59.1-.29.56.57.87.35,1.17-.58,1.62s-2,.21-3,.3c-.26,0-.75-.58-.82-1-.22-1.1-.28-2.22-.41-3.34Zm2.82,2.83A10.31,10.31,0,0,0,114,8.71c-.07-.05-.44.17-.48.32-.09.33-.09.74.4.77A7,7,0,0,0,115.06,9.6Z"/><path d="M66.91,27.78c0-1.15,0-1.17,1.13-1.47a1.17,1.17,0,0,0,1-1.13,11.14,11.14,0,0,1,.42-2.05,1.54,1.54,0,0,1,2.09-1.23c2,.36,2.25.87,1.8,2.81a4.05,4.05,0,0,1-1.68,2.43,1.15,1.15,0,0,0-.53,1.34,21.75,21.75,0,0,1,.2,3.7c0,.5-.06,1.07-.73,1.16-.49.07-1-.58-1-1.21,0-.89.08-1.79.06-2.68a5.38,5.38,0,0,0-.22-1.25c-.15-.66-.47-.89-1.17-.56a4.19,4.19,0,0,1-1.39.13Zm4.2-4.45s-.21.06-.23.12a19.46,19.46,0,0,0-.44,2c0,.1.31.35.5.37a.72.72,0,0,0,.56-.28,4.4,4.4,0,0,0,.44-.93C72.25,23.9,71.94,23.39,71.11,23.33Z"/><path d="M107.38,3.54c-.23,1,0,1.26,1,1.23.43,0,.86-.13,1.29-.13.69,0,.95.29,1,1,0,.31-.07.68.08.91.47.69.27,1.16-.25,1.73s-.14,1.32.49,1.84,0,1.19-.11,1.78c0,.31-.41.57-.63.85-.26-.31-.64-.58-.74-.93a15.8,15.8,0,0,1-.32-2.08c-.18-1.24-.19-1.3-1.43-1.33a1.78,1.78,0,0,1-1.61-1.15c-.31-.61-.57-1.25-.84-1.89a.64.64,0,0,1,0-.45c.35-1,.7-1.93,1.08-2.89.19-.45.53-.37.67,0A9.09,9.09,0,0,1,107.38,3.54Z"/><path d="M66.9,27.77c.32,1.24-.57,2.22-.73,3.37-.06.44-.69.37-1,.06a1.18,1.18,0,0,1-.26-1.37c.4-.93.3-1-.71-1.14-.62-.08-1.23-.29-1.85-.32-1.45-.06-2-1.11-2.18-2.22a3.16,3.16,0,0,1,.94-3,1.94,1.94,0,0,1,2.29.1,7.13,7.13,0,0,0,.68.33,4.84,4.84,0,0,0-.09-.65c-.13-.43-.07-.85.4-.92.2,0,.59.31.7.56a9.24,9.24,0,0,1,.7,2.22A1.42,1.42,0,0,1,65.34,26c-.21.15-.81-.05-1.13-.25-.51-.33-.91-.86-1.43-1.17a1.1,1.1,0,0,0-1,0,1.29,1.29,0,0,0-.23,1.05c.18.88,1.57,1.67,2.82,1.66a3.57,3.57,0,0,1,2.57.52Z"/><path d="M123.64,25c-.09.21-.22.56-.35.91l-.18.49a2.06,2.06,0,0,0,.56,0,22.47,22.47,0,0,0,2.43-.84,4.89,4.89,0,0,1,3.19-.38,1.16,1.16,0,0,0,1.51-.74,1.49,1.49,0,0,1,2.48-.35,3.19,3.19,0,0,1,.66,1.57c0,.25-.36.64-.66.83-.11.07-.58-.18-.71-.4-.25-.41-.42-.56-.88-.21a3.43,3.43,0,0,1-3.31.63,2.17,2.17,0,0,0-2,.45c-1.19.84-2.61.71-4,.86-.78.09-1-.6-1.25-1.17a1.38,1.38,0,0,1,.16-1.63c.26-.33.5-.68.78-1s.51-.56.67-.51a1.57,1.57,0,0,1,.72.66C123.65,24.3,123.6,24.57,123.64,25Z"/><path d="M81.56,8.42c0-.11,0-.27,0-.42,0-.38-.09-.45-.48-.35a11.43,11.43,0,0,1-2,.35.76.76,0,0,1-.88-.75c0-.62.54-.55.94-.65.59-.15,1.2-.24,1.77-.44.39-.13.49-.46.25-.85A1.41,1.41,0,0,1,81,4.67c0-.66-.48-.84-1-.92s-.94,0-1.4-.12c-.2,0-.35-.31-.53-.48a1.82,1.82,0,0,1,.52-.33c1-.19,2-.35,3-.51a2.86,2.86,0,0,1,.57.07,17.92,17.92,0,0,0,2.06.19c.46,0,1-.08,1,.47a1.73,1.73,0,0,1-.69,1.06c-.19.17-.6.1-.91.15-.65.09-1,.5-.74,1,.58.93.24,1.9.31,2.84a7.23,7.23,0,0,1,0,1.74c-.07.36-.39.88-.67.93-.52.1-.63-.45-.69-.88S81.61,8.93,81.56,8.42Z"/><path d="M122.56,6.69a.65.65,0,0,0,0-.24c-.12-.3-.25-.61-.37-.92,0,.3-.07.6-.09.89a2.09,2.09,0,0,1,0,.57c-.14.31-.43.43-.6.08-.26-.53-.62-1-.23-1.74.58-1,.46-1.14-.73-1.19a5,5,0,0,1-1.16-.08c-.71-.19-.84-.77-.35-1.32a1.36,1.36,0,0,1,1.79-.49,2.33,2.33,0,0,0,1.12.12c1.78-.16,2.41.52,2.08,2.23-.12.64-.11,1.31-.19,2s-.23,1.52-.35,2.28-.33,1.36.27,2,.17,1-.14,1.47c-.16.22-.71.43-.87.32a1.22,1.22,0,0,1-.45-.92c.06-1.59.2-3.17.31-4.76a1.85,1.85,0,0,0,0-.23Z"/><path d="M86.2,30.36a2.79,2.79,0,0,1-2.4-.89,5.52,5.52,0,0,0-2.23-1.37,3.75,3.75,0,0,1-.6-.47c.23-.17.46-.48.69-.48.5,0,.62-.22.76-.66a8.24,8.24,0,0,1,.85-1.77A1,1,0,0,1,85,24.64c.4.59.89,1.21.6,2a.5.5,0,0,0,0,.12c-.1.56-.19,1.13-.29,1.7.53.07,1,.14,1.57.19s.92.25.88.86a.79.79,0,0,1-.92.82Z"/><path d="M75.79,26.08c-.09-.58-.05-1.21.57-1.25a3.5,3.5,0,0,1,1.85.42,1,1,0,0,1,.23,1.45c-.23.35-.47.7-.69,1.06a6,6,0,0,0-.31.55c.21.1.43.29.62.28.62,0,1.23-.21,1.85-.24a1.43,1.43,0,0,1,.93.29c.4.39.11,1-.49,1.09-.8.13-1.62.21-2.42.35a1.39,1.39,0,0,1-1.59-.9.83.83,0,0,0-1.09-.57,1.3,1.3,0,0,1-.89-.15,1.08,1.08,0,0,1-.46-.8c.06-.42.43-.57.9-.47.84.16.93.08,1-.69C75.8,26.35,75.79,26.19,75.79,26.08Z"/><path d="M114.77,21.4a4.37,4.37,0,0,1,0-.81c.11-.63.65-.86,1.31-.58s1.07.53,1.75.16c.47-.26.88.11.84.74a10.5,10.5,0,0,1-.37,2.23,2.26,2.26,0,0,1-2,1.32,1.19,1.19,0,0,1-.74-.45A4,4,0,0,1,114.77,21.4Z"/><path d="M100.83,22.48c-.48.29-.93.43-1.12.73s0,.82-.17,1.12-.7.19-1,.05-.79-.6-.77-.89a1.94,1.94,0,0,1,.64-1.38,3,3,0,0,1,1.62-.34C100.28,21.77,100.49,22.14,100.83,22.48Z"/><path d="M98.63,1.28,97.46.54c.37-.2.73-.53,1.1-.54s.52.44.79.68Z"/><path d="M130.23,21.07c-.52.31-.82.62-1.13.63s-.55-.46-.55-.7.41-.64.61-.63S129.74,20.73,130.23,21.07Z"/></g></g></svg>