<svg width="35" height="36" viewBox="0 0 35 36" fill="none" xmlns="http://www.w3.org/2000/svg">
<path d="M20.0505 26.9092L20.0336 25.361L23.6306 25.4086L17.4885 19.2666L11.4962 25.2589L15.0931 25.3L15.1144 26.8483L8.86876 26.7778L8.79828 20.5322L10.3466 20.5535L10.3877 24.1505L16.38 18.1581L10.238 12.016L10.2856 15.613L8.73739 15.5961L8.65377 9.35038L14.8995 9.434L14.9164 10.9822L11.3194 10.9346L17.4615 17.0766L23.4538 11.0843L19.8569 11.0432L19.8356 9.49489L26.0812 9.56537L26.1517 15.811L24.6034 15.7897L24.5623 12.1928L18.57 18.1851L24.712 24.3272L24.6644 20.7302L26.2126 20.7471L26.2962 26.9928L20.0505 26.9092Z" fill="black"/>
</svg>
