<svg width="211" height="25" viewBox="0 0 211 25" fill="none" xmlns="http://www.w3.org/2000/svg">
<path d="M41.48 19.1H41.62L41.66 7.34C41.66 6.96 42.22 6.74 43.08 6.66L43.48 6.62L43.54 6.5H39.34L39.4 6.62L39.78 6.66C41 6.78 41.44 7.02 41.44 7.3L41.46 16.5H41.44L33.58 6.48H30.22L30.28 6.6L30.54 6.64C31.6 6.8 32.1 7.3 32.4 7.62L32.36 18.14C32.36 18.52 31.8 18.76 30.94 18.84L30.54 18.88L30.48 19H34.68L34.62 18.88L34.24 18.84C33.02 18.74 32.58 18.46 32.58 18.18L32.56 7.8H32.58L41.48 19.1ZM47.5241 19.26C49.1441 19.26 50.2241 18.28 51.1241 16.72L50.9841 16.66C50.2241 17.86 49.4241 18.26 48.2041 18.26C46.4441 18.26 45.0641 16.7 45.0641 14.34C45.0641 14.04 45.1041 13.56 45.1441 13.26L50.8841 13.28C50.9041 13.14 50.9241 13.1 50.9241 13C50.9241 11.48 49.7841 10.26 47.7641 10.26C45.2241 10.26 43.5441 12.4 43.5441 14.96C43.5441 17.36 45.2641 19.26 47.5241 19.26ZM45.1841 13.08C45.5041 11.66 46.5241 10.46 47.6241 10.46C48.8441 10.46 49.3641 11.7 49.3641 13.04L45.1841 13.08ZM51.0352 19H54.3352L54.2752 18.88L53.7152 18.84C52.9952 18.8 52.9952 18.36 53.5552 17.5L54.9752 15.3H54.9952L56.6552 17.74C57.1352 18.42 57.0552 18.78 56.4552 18.84L56.0752 18.88L56.0152 19H60.0552L59.9952 18.88L59.7152 18.86C59.1952 18.82 58.9152 18.46 58.3752 17.68L55.9352 14.14L57.1152 12.42C57.9752 11.14 58.4552 10.78 59.0752 10.72L59.5352 10.68L59.5952 10.56H56.2952L56.3552 10.68L56.8352 10.72C57.5952 10.78 57.6552 11.2 57.0752 12.08L55.8352 13.98H55.8152L54.3152 11.8C53.8552 11.1 53.9352 10.78 54.5352 10.72L54.9552 10.68L55.0152 10.56H50.9952L51.0552 10.68L51.3152 10.7C51.8552 10.74 52.1152 11.08 52.6752 11.88L54.8952 15.16L53.5152 17.18C52.6552 18.42 52.1952 18.74 51.5752 18.82L51.0952 18.88L51.0352 19ZM63.3423 19.26C64.3823 19.26 65.1823 18.52 65.9823 17.72L65.8823 17.66C65.4223 18.04 64.9223 18.44 64.1623 18.44C63.3823 18.44 62.8623 18.02 62.8823 17.16L63.0223 11.24H65.4023L65.6823 10.54H63.0223L63.0423 8.76L62.8623 8.74L60.1023 11.1L60.0423 11.26L61.6023 11.28L61.4823 17.32C61.4623 18.82 62.3623 19.26 63.3423 19.26ZM77.1089 19.3C78.5489 19.3 80.1689 18.84 80.9289 18.46L81.6089 18.32L82.3289 15.28H82.2089L81.7089 16.12C80.6289 18 79.5289 19.08 77.1689 19.08C74.1289 19.08 71.9289 16.48 71.9289 12.64C71.9289 9.16 73.8489 6.4 77.2089 6.4C78.4889 6.4 79.5889 6.76 80.1089 7.18L81.7689 10.22H81.8889L81.7289 6.54L80.6489 7.06C79.9089 6.66 78.6089 6.18 77.2289 6.18C73.0289 6.18 70.1689 8.96 70.1689 12.8C70.1689 16.72 73.0689 19.3 77.1089 19.3ZM83.1469 19H87.1269L87.0669 18.88L86.7869 18.86C85.8869 18.8 85.7669 18.76 85.7669 18.6V12.32C86.4069 11.72 87.2069 11.28 88.1669 11.28C89.3069 11.28 89.9069 11.86 89.9069 13.04V18.56C89.9069 18.72 89.7869 18.82 89.0669 18.86L88.7069 18.88L88.6469 19H92.6469L92.5869 18.88L92.3069 18.86C91.3069 18.8 91.3069 18.7 91.3069 18.58V12.76C91.3069 11.92 91.1069 11.3 90.6669 10.84C90.3069 10.48 89.8069 10.28 89.1869 10.28C87.7469 10.28 86.5669 11.42 85.7869 12.08L85.7669 12.04V5.54L83.1269 6.2L83.1069 6.28L83.5669 6.36C84.2469 6.5 84.3669 6.7 84.3669 7.5V18.56C84.3669 18.8 84.1469 18.82 83.5469 18.86L83.2069 18.88L83.1469 19ZM99.0358 19.2C99.8558 19.2 100.436 18.36 100.796 17.92L100.696 17.86C100.416 18.14 100.116 18.4 99.7958 18.4C99.3558 18.4 99.0958 18.16 99.1358 17.5L99.3358 13.18C99.4558 10.88 98.5958 10.26 96.9358 10.26C95.4158 10.26 93.1158 11.46 93.1158 12.46C93.1158 12.94 93.4758 13.24 93.9758 13.24C94.4958 13.24 94.8358 12.86 94.8358 12.46C94.8358 11.92 94.3358 11.6 94.3358 11.46C94.3358 11.22 95.1958 10.72 95.9958 10.72C97.0358 10.72 98.0158 11.28 97.9358 13.28L97.9158 14.16C94.1958 15.06 93.2158 16.02 93.2158 17.32C93.2158 18.32 94.0358 19.18 95.2158 19.18C96.1558 19.18 97.0158 18.5 97.7758 17.78V17.8C97.8358 18.66 98.3358 19.2 99.0358 19.2ZM95.9958 18.36C95.2158 18.36 94.6358 17.78 94.6358 16.88C94.6358 15.9 95.0758 15.04 97.9158 14.36L97.7958 17.54C97.2558 18.08 96.6558 18.36 95.9958 18.36ZM100.565 24.06H104.965L104.905 23.94L104.225 23.92C103.325 23.9 103.225 23.82 103.225 23.68V18.74H103.245C103.805 19 104.605 19.26 105.605 19.26C107.645 19.26 109.925 17.5 109.925 14.52C109.925 12.06 108.365 10.38 106.385 10.38C105.085 10.38 104.085 11.18 103.265 12.14L103.225 12.1L103.245 10.32L100.565 11.02L100.545 11.1L101.005 11.18C101.685 11.28 101.825 11.52 101.825 12.74V23.64C101.825 23.86 101.585 23.88 100.985 23.92L100.625 23.94L100.565 24.06ZM105.805 19.02C104.685 19.02 103.665 18.2 103.225 17.26V12.44C103.805 11.8 104.545 11.26 105.525 11.26C107.265 11.26 108.345 12.94 108.345 15.02C108.345 17.28 107.405 19.02 105.805 19.02ZM113.753 19.26C114.793 19.26 115.592 18.52 116.393 17.72L116.293 17.66C115.833 18.04 115.333 18.44 114.573 18.44C113.793 18.44 113.273 18.02 113.293 17.16L113.433 11.24H115.813L116.093 10.54H113.433L113.453 8.76L113.273 8.74L110.513 11.1L110.453 11.26L112.013 11.28L111.893 17.32C111.873 18.82 112.773 19.26 113.753 19.26ZM120.512 19.26C122.132 19.26 123.212 18.28 124.112 16.72L123.972 16.66C123.212 17.86 122.412 18.26 121.192 18.26C119.432 18.26 118.052 16.7 118.052 14.34C118.052 14.04 118.092 13.56 118.132 13.26L123.872 13.28C123.892 13.14 123.912 13.1 123.912 13C123.912 11.48 122.772 10.26 120.752 10.26C118.212 10.26 116.532 12.4 116.532 14.96C116.532 17.36 118.252 19.26 120.512 19.26ZM118.172 13.08C118.492 11.66 119.512 10.46 120.612 10.46C121.832 10.46 122.352 11.7 122.352 13.04L118.172 13.08ZM124.674 19H128.974L128.914 18.88L128.274 18.86C127.394 18.84 127.334 18.76 127.334 18.6V14.2C127.894 12.16 128.314 11.26 129.174 11.08C129.214 11.92 129.714 12.3 130.214 12.3C130.814 12.3 131.174 11.78 131.174 11.3C131.174 10.78 130.694 10.28 129.994 10.28C128.714 10.28 127.854 11.58 127.314 13.64H127.294L127.354 10.32L124.674 11.02L124.654 11.1L125.114 11.18C125.794 11.28 125.934 11.52 125.934 12.76V18.56C125.934 18.8 125.714 18.82 125.094 18.86L124.734 18.88L124.674 19Z" fill="white"/>
<path d="M0.647493 8.74997L1.35449 8.04297L8.50149 15.189L15.6475 8.04297L16.3545 8.74997L8.50149 16.603L0.647493 8.74997Z" fill="white"/>
</svg>
