<svg width="155" height="25" viewBox="0 0 155 25" fill="white" xmlns="http://www.w3.org/2000/svg">
<path d="M0.46575 20H4.33V12.3515H7.44805C9.84655 12.3515 11.0192 13.524 11.1791 15.6027C11.339 17.6548 11.3923 19.7868 11.872 20H15.5763V19.8134C14.91 19.5203 15.0167 17.4682 14.7502 14.7766C14.5103 12.458 13.6042 11.4453 11.8453 10.939V10.859C14.2971 10.1928 15.3365 8.4872 15.3365 6.2486C15.3365 3.07725 12.8847 0.945249 9.20695 0.945249H0.46575V20ZM4.33 4.0633H8.5407C10.5928 4.0633 11.5788 5.20925 11.5788 6.75495C11.5788 8.274 10.5395 9.36665 8.4341 9.36665H4.33V4.0633ZM17.5315 20H21.1559V6.32855H17.5315V20ZM17.5315 4.19655H21.1559V0.945249H17.5315V4.19655ZM22.6918 8.72705H24.584V16.7487C24.584 19.3337 26.5294 20.0267 28.2883 20.0267C29.7274 20.0267 30.5536 19.9733 30.5536 19.9733V17.3083C30.5536 17.3083 29.9406 17.335 29.4876 17.335C28.6881 17.335 28.1284 16.9885 28.1284 15.9758V8.72705H30.4736V6.32855H28.1284V2.06455H24.584V6.32855H22.6918V8.72705ZM38.6325 20.3998C42.1503 20.3998 44.309 18.3477 44.8153 15.9225H41.2442C40.8445 16.9619 40.0183 17.6015 38.6059 17.6015C36.5538 17.6015 35.3812 16.2956 35.1147 14.1903H45.0285C45.0285 9.31335 42.6833 5.95545 38.2861 5.95545C34.2886 5.95545 31.5436 9.10015 31.5436 13.151C31.5436 17.2284 34.102 20.3998 38.6325 20.3998ZM38.3394 8.7537C39.9917 8.7537 41.1376 9.95295 41.2442 11.6852H35.168C35.4878 9.89965 36.4206 8.7537 38.3394 8.7537ZM57.6583 20.3998C61.8957 20.3998 64.8005 17.255 64.8005 13.1776C64.8005 9.10015 61.8957 5.95545 57.6583 5.95545C53.421 5.95545 50.5161 9.10015 50.5161 13.1776C50.5161 17.255 53.421 20.3998 57.6583 20.3998ZM57.6583 17.6281C55.4197 17.6281 54.1938 15.8426 54.1938 13.1776C54.1938 10.5126 55.4197 8.7004 57.6583 8.7004C59.8703 8.7004 61.1228 10.5126 61.1228 13.1776C61.1228 15.8426 59.8703 17.6281 57.6583 17.6281ZM65.4255 8.83365H67.291V20H70.9154V8.83365H73.3672V6.32855H70.9154V5.31585C70.9154 3.9034 71.6616 3.6902 73.3672 3.77015V0.971899C69.8761 0.598799 67.291 1.7714 67.291 5.10265V6.32855H65.4255V8.83365ZM87.1732 20.4264C91.4638 20.4264 94.5819 18.2677 94.5819 14.4035C94.5819 10.2994 91.3839 9.36665 87.4663 8.51385C84.6414 7.9009 83.3089 7.44785 83.3089 5.90215C83.3089 4.543 84.6681 3.66355 86.7468 3.66355C88.7189 3.66355 90.2113 4.62295 90.4245 6.54175H94.1288C93.8357 2.70415 91.0641 0.598799 86.7734 0.598799C82.5361 0.598799 79.4713 2.54425 79.4713 6.3019C79.4713 10.2727 82.5894 11.1788 86.0006 11.9517C88.9054 12.6179 90.7176 12.991 90.7176 14.8565C90.7176 16.6154 88.9854 17.3083 87.0133 17.3083C84.295 17.3083 82.9891 16.4022 82.7226 14.1103H78.9383C79.0716 18.1345 82.0031 20.4264 87.1732 20.4264ZM96.5967 24.4772H100.221V18.4543H100.274C101.047 19.6269 102.3 20.3998 104.219 20.3998C107.736 20.3998 110.135 17.6015 110.135 13.1776C110.135 8.9136 107.816 5.95545 104.192 5.95545C102.326 5.95545 101.047 6.8349 100.168 8.03415H100.088V6.32855H96.5967V24.4772ZM103.446 17.3883C101.287 17.3883 100.141 15.7626 100.141 13.2842C100.141 10.8324 101.047 8.88695 103.312 8.88695C105.551 8.88695 106.457 10.6991 106.457 13.2842C106.457 15.8693 105.285 17.3883 103.446 17.3883ZM115.313 6.32855H111.822V20H115.446V13.3375C115.446 10.4593 117.152 9.20675 119.523 9.4466H119.603V6.27525C119.39 6.1953 119.15 6.16865 118.751 6.16865C117.152 6.16865 116.219 6.96815 115.393 8.51385H115.313V6.32855ZM121.165 20H124.789V6.32855H121.165V20ZM121.165 4.19655H124.789V0.945249H121.165V4.19655ZM130.669 6.32855H127.124V20H130.749V12.2448C130.749 10.3793 131.921 9.10015 133.52 9.10015C135.04 9.10015 135.892 10.1395 135.892 11.6052V20H139.517V11.0722C139.517 8.08745 137.625 5.95545 134.8 5.95545C132.934 5.95545 131.682 6.7283 130.749 8.19405H130.669V6.32855ZM147.774 24.6638C149.799 24.6638 151.558 24.1841 152.704 23.1181C153.717 22.1853 154.33 20.8794 154.33 18.9606V6.32855H150.838V7.76765H150.785C149.959 6.6217 148.706 5.95545 147.001 5.95545C143.536 5.95545 141.084 8.56715 141.084 12.6446C141.084 16.7753 144.069 19.1738 147.107 19.1738C148.84 19.1738 149.879 18.4809 150.678 17.5748H150.758V19.0673C150.758 20.9327 149.772 21.9188 147.72 21.9188C146.041 21.9188 145.269 21.2526 144.975 20.3998H141.378C141.751 23.0648 144.043 24.6638 147.774 24.6638ZM147.72 16.269C145.855 16.269 144.629 14.9098 144.629 12.5913C144.629 10.2994 145.855 8.8603 147.694 8.8603C149.879 8.8603 150.945 10.5659 150.945 12.5646C150.945 14.59 150.012 16.269 147.72 16.269Z" fill="white"/>
</svg>
