<svg width="24" height="40" viewBox="0 0 24 40" fill="none" xmlns="http://www.w3.org/2000/svg">
<path d="M15.2435 20.0842C13.279 18.1196 12.2686 16.1551 12.2686 12.5627C16.9835 12.5066 19.2287 14.9763 21.4739 14.9763C22.5404 14.9763 23.8314 14.2466 23.8314 12.2821C23.8314 10.3175 22.5404 9.58785 21.4739 9.58785C19.2287 9.58785 16.9835 12.0014 12.2686 12.0014C12.2686 7.23039 14.6822 5.04132 14.6822 2.79612C14.6822 1.72965 13.9525 0.43866 11.988 0.43866C10.0234 0.43866 9.29372 1.72965 9.29372 2.79612C9.29372 5.04132 11.7634 7.23039 11.7073 12.0014C7.04852 12.0014 4.74719 9.58785 2.50199 9.58785C1.43552 9.58785 0.144531 10.3175 0.144531 12.2821C0.144531 14.2466 1.43552 14.9763 2.50199 14.9763C4.74719 14.9763 7.04852 12.5066 11.7073 12.5627C11.7634 16.1551 10.8092 18.0074 8.73242 20.0842C10.9776 23.0591 11.6512 32.1521 11.6512 39.7858H12.3247C12.3247 32.1521 12.886 23.0029 15.2435 20.0842Z" fill="black"/>
</svg>
