<svg width="211" height="25" viewBox="0 0 211 25" fill="none" xmlns="http://www.w3.org/2000/svg">
<path d="M30.2 19H36.02L35.96 18.88L34.98 18.82C33.94 18.76 33.82 18.68 33.82 18.54V12.8C34.24 12.86 34.94 12.94 35.56 12.94C38.36 12.94 40.3 11.52 40.3 9.48C40.3 7.6 38.8 6.5 35.78 6.5H30.22L30.28 6.62L31.06 6.68C32.1 6.76 32.22 6.82 32.22 6.96V18.48C32.22 18.6 31.96 18.74 31.26 18.8L30.26 18.88L30.2 19ZM35.56 12.72C34.72 12.72 34.24 12.62 33.82 12.5V6.7L35.24 6.68C37.72 6.64 38.6 7.76 38.6 9.72C38.6 11.64 37.48 12.72 35.56 12.72ZM40.6506 19H44.9506L44.8906 18.88L44.2506 18.86C43.3706 18.84 43.3106 18.76 43.3106 18.6V14.2C43.8706 12.16 44.2906 11.26 45.1506 11.08C45.1906 11.92 45.6906 12.3 46.1906 12.3C46.7906 12.3 47.1506 11.78 47.1506 11.3C47.1506 10.78 46.6706 10.28 45.9706 10.28C44.6906 10.28 43.8306 11.58 43.2906 13.64H43.2706L43.3306 10.32L40.6506 11.02L40.6306 11.1L41.0906 11.18C41.7706 11.28 41.9106 11.52 41.9106 12.76V18.56C41.9106 18.8 41.6906 18.82 41.0706 18.86L40.7106 18.88L40.6506 19ZM51.3327 19.26C52.9527 19.26 54.0327 18.28 54.9327 16.72L54.7927 16.66C54.0327 17.86 53.2327 18.26 52.0127 18.26C50.2527 18.26 48.8727 16.7 48.8727 14.34C48.8727 14.04 48.9127 13.56 48.9527 13.26L54.6927 13.28C54.7127 13.14 54.7327 13.1 54.7327 13C54.7327 11.48 53.5927 10.26 51.5727 10.26C49.0327 10.26 47.3527 12.4 47.3527 14.96C47.3527 17.36 49.0727 19.26 51.3327 19.26ZM48.9927 13.08C49.3127 11.66 50.3327 10.46 51.4327 10.46C52.6527 10.46 53.1727 11.7 53.1727 13.04L48.9927 13.08ZM59.3614 19.2H59.5614L61.9014 13.18C62.7614 11.06 62.8614 10.76 63.7814 10.7L63.9814 10.68L64.0414 10.56H60.7014L60.7614 10.68L61.0414 10.7C62.3814 10.8 62.4814 11.06 61.7614 12.96L60.1414 17.16L57.9414 11.74C57.6414 11 57.7414 10.74 58.5014 10.7L58.8414 10.68L58.8814 10.56H54.8214L54.8814 10.68L55.2614 10.7C55.8814 10.74 55.9414 10.88 56.3814 11.94L59.3614 19.2ZM65.6923 8.5C66.3723 8.5 66.6723 7.92 66.6723 7.52C66.6723 7.12 66.3923 6.52 65.6923 6.52C64.9923 6.52 64.6923 7.12 64.6923 7.52C64.6923 7.92 64.9923 8.5 65.6923 8.5ZM63.9123 19H67.9123L67.8523 18.88L67.5723 18.86C66.6923 18.8 66.5723 18.76 66.5723 18.6V10.32L63.9123 11.02L63.8923 11.1L64.3523 11.18C65.0323 11.28 65.1723 11.52 65.1723 12.74V18.56C65.1723 18.8 64.9523 18.82 64.3323 18.86L63.9723 18.88L63.9123 19ZM72.8678 19.26C75.3878 19.26 77.3278 17.28 77.3278 14.72C77.3278 12.2 75.4078 10.26 72.8678 10.26C70.3278 10.26 68.3878 12.3 68.3878 14.8C68.3878 17.32 70.3078 19.26 72.8678 19.26ZM72.8878 19.1C72.2078 19.1 71.6278 18.84 71.1878 18.4C70.4078 17.64 70.0478 16.18 70.0478 14.54C70.0478 12.4 71.1078 10.42 72.8278 10.42C73.5478 10.42 74.1078 10.74 74.5478 11.16C75.3078 11.92 75.6478 13.36 75.6478 14.9C75.6478 17.14 74.5278 19.1 72.8878 19.1ZM84.4748 19.32L87.1348 18.62L87.1548 18.52L86.3748 18.4C85.9548 18.34 85.8748 18.2 85.8748 17.76V10.54H83.1148L83.1748 10.66L83.4548 10.68C84.2748 10.74 84.4548 10.88 84.4548 11.7V17.3C83.8348 17.86 83.1148 18.26 82.1748 18.26C80.9948 18.26 80.3948 17.68 80.3948 16.5V10.54H77.6348L77.6948 10.66L77.9748 10.68C78.9948 10.76 78.9948 10.82 78.9948 10.94V16.76C78.9948 17.58 79.1548 18.24 79.5948 18.68C79.9948 19.08 80.4748 19.26 81.1548 19.26C82.5748 19.26 83.7348 18.18 84.4948 17.5H84.5148L84.4748 19.32ZM90.2313 19.26C92.2113 19.26 93.4913 18 93.4913 16.54C93.4913 14.86 92.2313 14.34 90.8913 13.86C89.6712 13.42 88.8713 13.04 88.8713 12C88.8713 11.06 89.4713 10.46 90.5513 10.46C91.1913 10.46 91.6313 10.78 91.9313 11.02L92.9513 12.66L93.0713 12.64L92.9713 10.42L92.3313 10.64C91.8113 10.4 91.2313 10.28 90.5713 10.28C89.0313 10.28 87.7713 11.3 87.7713 12.74C87.7713 14.22 88.9713 14.82 90.0913 15.2C91.4913 15.66 92.3112 16.24 92.3112 17.32C92.3112 18.32 91.5513 19.08 90.3513 19.08C89.3913 19.08 88.5313 18.44 88.0113 17.32L87.5913 16.42L87.4713 16.44L87.6912 18.8C88.4313 19.08 89.2313 19.26 90.2313 19.26ZM105.039 19.3C106.479 19.3 108.099 18.84 108.859 18.46L109.539 18.32L110.259 15.28H110.139L109.639 16.12C108.559 18 107.459 19.08 105.099 19.08C102.059 19.08 99.8586 16.48 99.8586 12.64C99.8586 9.16 101.779 6.4 105.139 6.4C106.419 6.4 107.519 6.76 108.039 7.18L109.699 10.22H109.819L109.659 6.54L108.579 7.06C107.839 6.66 106.539 6.18 105.159 6.18C100.959 6.18 98.0986 8.96 98.0986 12.8C98.0986 16.72 100.999 19.3 105.039 19.3ZM111.077 19H115.057L114.997 18.88L114.717 18.86C113.817 18.8 113.697 18.76 113.697 18.6V12.32C114.337 11.72 115.137 11.28 116.097 11.28C117.237 11.28 117.837 11.86 117.837 13.04V18.56C117.837 18.72 117.717 18.82 116.997 18.86L116.637 18.88L116.577 19H120.577L120.517 18.88L120.237 18.86C119.237 18.8 119.237 18.7 119.237 18.58V12.76C119.237 11.92 119.037 11.3 118.597 10.84C118.237 10.48 117.737 10.28 117.117 10.28C115.677 10.28 114.497 11.42 113.717 12.08L113.697 12.04V5.54L111.057 6.2L111.037 6.28L111.497 6.36C112.177 6.5 112.297 6.7 112.297 7.5V18.56C112.297 18.8 112.077 18.82 111.477 18.86L111.137 18.88L111.077 19ZM126.965 19.2C127.785 19.2 128.365 18.36 128.725 17.92L128.625 17.86C128.345 18.14 128.045 18.4 127.725 18.4C127.285 18.4 127.025 18.16 127.065 17.5L127.265 13.18C127.385 10.88 126.525 10.26 124.865 10.26C123.345 10.26 121.045 11.46 121.045 12.46C121.045 12.94 121.405 13.24 121.905 13.24C122.425 13.24 122.765 12.86 122.765 12.46C122.765 11.92 122.265 11.6 122.265 11.46C122.265 11.22 123.125 10.72 123.925 10.72C124.965 10.72 125.945 11.28 125.865 13.28L125.845 14.16C122.125 15.06 121.145 16.02 121.145 17.32C121.145 18.32 121.965 19.18 123.145 19.18C124.085 19.18 124.945 18.5 125.705 17.78V17.8C125.765 18.66 126.265 19.2 126.965 19.2ZM123.925 18.36C123.145 18.36 122.565 17.78 122.565 16.88C122.565 15.9 123.005 15.04 125.845 14.36L125.725 17.54C125.185 18.08 124.585 18.36 123.925 18.36ZM128.495 24.06H132.895L132.835 23.94L132.155 23.92C131.255 23.9 131.155 23.82 131.155 23.68V18.74H131.175C131.735 19 132.535 19.26 133.535 19.26C135.575 19.26 137.855 17.5 137.855 14.52C137.855 12.06 136.295 10.38 134.315 10.38C133.015 10.38 132.015 11.18 131.195 12.14L131.155 12.1L131.175 10.32L128.495 11.02L128.475 11.1L128.935 11.18C129.615 11.28 129.755 11.52 129.755 12.74V23.64C129.755 23.86 129.515 23.88 128.915 23.92L128.555 23.94L128.495 24.06ZM133.735 19.02C132.615 19.02 131.595 18.2 131.155 17.26V12.44C131.735 11.8 132.475 11.26 133.455 11.26C135.195 11.26 136.275 12.94 136.275 15.02C136.275 17.28 135.335 19.02 133.735 19.02ZM141.682 19.26C142.722 19.26 143.522 18.52 144.322 17.72L144.222 17.66C143.762 18.04 143.262 18.44 142.502 18.44C141.722 18.44 141.202 18.02 141.222 17.16L141.362 11.24H143.742L144.022 10.54H141.362L141.382 8.76L141.202 8.74L138.442 11.1L138.382 11.26L139.942 11.28L139.822 17.32C139.802 18.82 140.702 19.26 141.682 19.26ZM148.442 19.26C150.062 19.26 151.142 18.28 152.042 16.72L151.902 16.66C151.142 17.86 150.342 18.26 149.122 18.26C147.362 18.26 145.982 16.7 145.982 14.34C145.982 14.04 146.022 13.56 146.062 13.26L151.802 13.28C151.822 13.14 151.842 13.1 151.842 13C151.842 11.48 150.702 10.26 148.682 10.26C146.142 10.26 144.462 12.4 144.462 14.96C144.462 17.36 146.182 19.26 148.442 19.26ZM146.102 13.08C146.422 11.66 147.442 10.46 148.542 10.46C149.762 10.46 150.282 11.7 150.282 13.04L146.102 13.08ZM152.604 19H156.904L156.844 18.88L156.204 18.86C155.324 18.84 155.264 18.76 155.264 18.6V14.2C155.824 12.16 156.244 11.26 157.104 11.08C157.144 11.92 157.644 12.3 158.144 12.3C158.744 12.3 159.104 11.78 159.104 11.3C159.104 10.78 158.624 10.28 157.924 10.28C156.644 10.28 155.784 11.58 155.244 13.64H155.224L155.284 10.32L152.604 11.02L152.584 11.1L153.044 11.18C153.724 11.28 153.864 11.52 153.864 12.76V18.56C153.864 18.8 153.644 18.82 153.024 18.86L152.664 18.88L152.604 19Z" fill="white"/>
<path d="M16.354 15.896L15.647 16.603L8.49997 9.457L1.35397 16.603L0.646973 15.896L8.49997 8.043L16.354 15.896Z" fill="white"/>
</svg>
