<svg xmlns="http://www.w3.org/2000/svg" viewBox="0 0 949.52 314.17"><g id="Layer_2" data-name="Layer 2"><g id="Text"><g id="_1" data-name="1"><path d="M518.43,105.76l-1.21-.25-2.42,3.39c-13.55,21.3-26.86,39.69-55.66,40.17l-35.33-1.21,16-74.77,15.73.48c24,1,29,2.18,27.1,20.09l-.24,3.14,1.45.24L494,48.16l-1.45-.24-1.46,3.39c-7,15.24-11.37,18.63-33.63,19.36l-17.19.24L454.78,2.18H480c25.17,0,30.74,12.34,39.21,37.51l1,3.39,1.21-.25L518,0H415.09l.25,1.45,6.29.73C434,3.63,435.42,3.87,435.18,5.57L405.66,145c-.25,1.45-4.36,2.9-13.07,3.87l-9,1-.72,1.45H499.55Z"/><path d="M616.92,124.63l-1.93-.72-10.65,19.36-7.75.24c-7.74,0-10.4-28.32-14.27-54.21C591,67,599,53,606.76,52.52c2.42,0,5.32,1.69,5.32,3.14-4.35,4.36-1,12.83,5.81,12.83,5.08,0,9.68-4.36,9.68-10.65,0-7.26-6.53-12.59-14-12.59-14,0-20.33,11.86-31.71,39.69h-.48c-3.63-21-9.2-39.69-21.06-39.69-6.77,0-16.45,7.51-25.65,29.77l1.94.73L547,56.15h8c7.5,0,10.16,24.44,13.55,49.12-9.92,24.2-20.81,42.35-29,42.84-2.42.24-5.56-2.42-5.56-3.88,4.83-5.32,1.93-13.55-5.09-13.55-5.32,0-9.92,4.36-9.92,10.65,0,7.5,6.54,12.83,14.28,12.83,14.52,0,22.26-12.83,35.57-44h.49c3.63,22.75,9.19,44.05,22,44.05C598.29,154.16,607.73,146.65,616.92,124.63Z"/><polygon points="622.73 97.04 722.44 97.04 724.86 89.78 625.15 89.78 622.73 97.04"/><path d="M70.34,160.28H0V163l4.7.22c11.2.45,13.22,2.91,13.22,33.82v77.51c0,30.91-2,33.37-13.22,33.82l-4.7.22v2.69H60.93v-2.69l-4.71-.22c-17.92-.9-19.93-2.91-19.93-33.82V248.31H71.23c34.72,0,52.42-17.92,52.42-42.11C123.65,179.32,102.14,160.28,70.34,160.28Zm1.79,85.34H36.29V197c0-30.24.67-33.82,10.53-33.82H71c22.17,0,29.57,23.52,29.57,42.34C100.58,225.91,93.86,245.62,72.13,245.62Z"/><path d="M202.72,157.37c-47.27,0-73.25,37.4-73.25,78.17s26,78.63,73.25,78.63c47,0,73.24-37.86,73.24-78.63S249.76,157.37,202.72,157.37Zm0,153.88c-39.65,0-52.19-37-52.19-75.48,0-39,12.54-75.49,52.19-75.49,39.42,0,52,37,52,75.49C254.69,274.74,242.14,311.25,202.72,311.25Z"/><path d="M300.16,184.47c0-14.78,10.52-24.19,28.44-24.19,17.25,0,35.17,11.87,41.67,32.25l2.46,7.62h2V157.37H373c-5.83,7.61-9.19,10.08-12.77,10.08-2.69,0-4.48-1.35-7.62-3.14a49.28,49.28,0,0,0-24.86-6.94c-23.52,0-42.79,15.9-42.79,39.2,0,49.5,82,40.54,82,85.34,0,20.38-15,29.34-34.05,29.34-28.22,0-44.13-21.95-49.5-38.3l-2.69-8.29h-2v49.51h1.79c5.16-7.17,9.64-11.88,14.56-11.88,2.47,0,4,.67,7.4,2.92,10.75,6.71,20.16,9,30.68,9,28.68,0,50.18-16.58,50.18-40.77C383.26,221.21,300.16,230.39,300.16,184.47Z"/><path d="M391.77,163l4.7.22c11.2.45,13.22,2.91,13.22,33.82v77.51c0,30.91-2,33.37-13.22,33.82l-4.7.22v2.69H446v-2.69l-4.71-.22c-11.19-.45-13.21-2.91-13.21-33.82V197c0-30.91,2-33.37,13.21-33.82L446,163v-2.69H391.77Z"/><path d="M455.38,204.41h2l2.46-7.62c10.08-31.58,22.4-33.6,33.38-33.6h4.93c10.08,0,10.75,3.14,10.75,33.38v77.95c0,30.91-2,33.37-13.22,33.82l-4.7.22v2.69h54.21v-2.69l-4.71-.22c-11.2-.45-13.21-2.91-13.21-33.82V196.57c0-30.24.67-33.38,10.53-33.38H543c11,0,23.07,2,33.37,33.6l2.47,7.62h2V160.28H455.38Z"/><path d="M626.74,274.52V197c0-30.91,2-33.37,13.22-33.82l4.7-.22v-2.69H590.45V163l4.71.22c11.2.45,13.21,2.91,13.21,33.82v77.51c0,30.91-2,33.37-13.21,33.82l-4.71.22v2.69h54.21v-2.69l-4.7-.22C628.76,307.89,626.74,305.43,626.74,274.52Z"/><path d="M717.23,157.37c-47.26,0-73.24,37.4-73.24,78.17s26,78.63,73.24,78.63c47,0,73.25-37.86,73.25-78.63S764.27,157.37,717.23,157.37Zm0,153.88c-39.65,0-52.19-37-52.19-75.48,0-39,12.54-75.49,52.19-75.49,39.43,0,52,37,52,75.49C769.2,274.74,756.66,311.25,717.23,311.25Z"/><path d="M900.91,160.28V163l4.71.22c14.11.67,22,25.54,22,48.38v73.25L823.63,160.28H788.69V163l4,.22c10.3.45,14.56,2.91,14.56,31.81v62.94c0,33.6-4.93,49.5-16.13,50.4l-2.46.22v2.69H837.3v-2.69l-4.71-.22c-13.66-.67-22-26.21-22-50.4V175.06L928.46,313.49h2.47V211.57c0-31.58,4.48-47.48,16.13-48.38l2.46-.22v-2.69Z"/></g></g></g></svg>