<svg xmlns="http://www.w3.org/2000/svg" viewBox="0 0 1007.75 630.98"><g id="Layer_2" data-name="Layer 2"><g id="Text"><g id="_2" data-name="2"><path d="M527.51,0H407.9V2.7l4.71.22c14.11.67,21.95,25.54,21.95,48.38v73.25L330.62,0H140L91.39,86.47,36.07,0H0V2.7l4,.22c10.31.45,14.56,3.14,14.56,33.82V97.67c0,32.93-4.47,49.51-16.12,50.4L0,148.3V151H48.61V148.3l-4.7-.23c-16.8-.89-22-32.93-22-50.4V13.9L81.76,106h2.91l54-96.77V114.25c0,30.91-2,33.37-13.22,33.82l-4.7.23V151H175V148.3l-4.71-.23C159,147.62,157,145.16,157,114.25V36.74c0-30.91,2-33.37,13.21-33.82L175,2.7h.44l4.71.22c11.2.45,13.21,2.91,13.21,33.82v77.51c0,30.91-2,33.37-13.21,33.82l-4.71.23V151h112.9V104.62h-2l-2.46,7.61c-10.31,31.59-22.85,35.84-45.7,35.84h-15.9c-9.86,0-10.53-3.58-10.53-33.82V74.82H224.9c10.08,0,21.5.45,26.43,18.82l1.34,4.93h2V48.39h-2l-1.34,4.93C246.4,71.69,235,72.14,224.9,72.14H211.68V36.74c0-30.24.67-33.82,10.53-33.82h11.42c20.83,0,37.19,2.46,45.7,29.12l2.46,7.62h2V14.56A11.86,11.86,0,0,1,295.68,2.69h0l4,.22c10.3.45,14.56,2.91,14.56,31.81V97.67c0,33.6-4.93,49.51-16.13,50.4l-2.46.23V151h48.61V148.3l-4.71-.23c-13.66-.67-21.95-26.21-21.95-50.4V14.79L435.45,153.22h2.47V51.3c0-31.58,4.48-47.48,16.12-48.38h0a34.06,34.06,0,0,1,4.63-.1l2.09.1C472,3.37,474,5.83,474,36.74v77.51c0,30.91-2,33.37-13.22,33.82l-4.7.23V151h71.68c48.16,0,75.93-34.49,75.93-75.71C603.67,34.28,577.47,0,527.51,0Zm0,148.06H502.87c-9.85,0-10.52-3.58-10.52-33.82V36.74c0-30.24.67-33.82,10.52-33.82h24.64c36.52,0,55.11,34.94,55.11,72.58C582.62,111.34,567.16,148.07,527.51,148.07Z"/><path d="M459.8,308.67V306l4.7-.22c11.2-.45,13.22-2.92,13.22-33.83v-77.5c0-30.91-2-33.38-13.22-33.83l-4.7-.22v-2.69H572.47v44.13h-2L568,194.2c-10.3-32-24-33.6-47.26-33.6H506.62c-9.86,0-10.53,3.59-10.53,33.83V234.3h17.47c10.53,0,21.5-.45,26.43-18.82l1.34-4.92h2v54.65h-2L540,260.28c-6-22.62-15.9-23.29-26.43-23.29H496.09v34.94c0,30.91,2,32.93,19.93,33.83l4.71.22v2.69Z"/><path d="M577.4,308.67V306l4.7-.22c11.2-.45,13.22-2.92,13.22-33.83v-77.5c0-30.91-2-33.38-13.22-33.83l-4.7-.22v-2.69h54.21v2.69l-4.71.22c-11.2.45-13.21,2.92-13.21,33.83v77.5c0,30.91,2,33.38,13.21,33.83l4.71.22v2.69Z"/><path d="M777.57,181.88c0-14.78,10.53-24.19,28.45-24.19,17.25,0,35.17,11.87,41.66,32.26l2.47,7.61h2V154.78h-1.8c-5.82,7.61-9.18,10.08-12.77,10.08-2.68,0-4.48-1.34-7.61-3.14a49.39,49.39,0,0,0-24.87-6.94c-23.52,0-42.78,15.9-42.78,39.2,0,49.5,82,40.54,82,85.34,0,20.33-14.91,29.3-33.87,29.35h-.17a31.46,31.46,0,0,1-18.26-6c-7-5.1-16.62-12.5-21.9-18.39-.35.12-2,1-2.23,1.09q.2.39.36.78c1.91,4.22,7,17.47,2.45,21.17-4.27,3.49-11.06.26-15.12-2.64-8.19-5.87-13.43-17.3-16.68-26.51-2.94-8.3-5.14-17.08-10.07-24.5-5.55-8.37-13.27-15.43-22.76-19a68.46,68.46,0,0,0,21.33-4.18c14.34-5.6,25.31-18.37,25.31-34.72,0-25.31-22.4-38.08-48.61-38.08H631.53v2.69l4.7.22c11.2.45,13.22,2.92,13.22,33.83v77.5c0,30.91-2,33.38-13.22,33.82l-4.7.23v2.69h54.21V306l-4.71-.23c-11.2-.44-13.21-2.91-13.21-33.82V234.75h13.42A43.57,43.57,0,0,1,701.15,240c16.61,9.43,12.89,34.2,20.55,49.13,7.22,14.05,18.38,20.69,32,21.43,14.48.79,29,.93,43.47,1,11.62.06,23.18.52,34.34-3.29,16.46-5.62,29.18-19.46,29.18-37.45C860.68,218.62,777.57,227.8,777.57,181.88ZM667.82,232.06V194.43c0-30.24.67-33.83,10.52-33.83H705c16.8,0,26.88,12.55,26.88,35.62,0,19-4.93,35.84-31.81,35.84Z"/><path d="M897.19,308.67V306l4.7-.22c11.2-.45,13.22-2.92,13.22-33.83V194c0-30.24-.67-33.38-10.75-33.38h-4.93c-11,0-23.3,2-33.38,33.6l-2.46,7.62h-2V157.69H987v44.13h-2l-2.47-7.62c-10.3-31.58-22.4-33.6-33.37-33.6H944c-9.86,0-10.53,3.14-10.53,33.38v78c0,30.91,2,33.38,13.21,33.83l4.71.22v2.69Z"/><path d="M367,309.38h-.49v0Z"/><path d="M340.09,278.31l-16.94,26.38-12.35-1.45S323.15,272.51,329,258c6.78-16.7,12.59-31.71,12.59-38,0-7.5-8.47-14.52-16-14.52-5.09,0-11.62,2.9-16.94,8.47-8.48,8.47-26.63,35.33-40.18,62.2l-1.45-.49C277.16,251,286.12,221.93,302.33,166l4.6-15.49L267,154.65l-.48,1.45,19.36.73c1.69,0,1.93,2.9,1.21,5.56,0,0-2.52,8.93-6.4,22.28-1.85,6.39-4,13.79-6.35,21.72-6.17,20.84-13.59,45.29-19.92,64.42l-13.8,39.69,15.73,1.21,9-23c21.54-45.74,43.07-73.57,50.33-73.57,5.33,0,10.41,3.87,10.41,8.47,0,3.63-7.26,21-12.34,34.37-7.75,20.32-17.91,44-17.91,46.7,0,3.15,11.13,9.2,16,9.2,6,0,16.78-9.15,28.34-32,.47-.94.95-1.9,1.43-2.89l-1.42-.71Z"/><path d="M340.08,280.49c0-35.57,30-75.5,58.08-75.5,13.55,0,23.48,6.77,23.48,16.94,0,15.73-20.33,25.16-61,31.94A80.68,80.68,0,0,0,357,276.14c0,17.18,6.78,27.1,19.6,27.1,11.86,0,20.09-6.78,31.7-25.65l1.7.72c-10.17,17.91-24.2,35.58-41.38,35.58C351,313.89,340.08,298.16,340.08,280.49Zm66.07-60c0-7.26-3.15-12.82-10.41-12.82-4.6,0-9.92,3.14-15.25,8.23-7.5,7.5-14.76,21.53-19.11,35.57l.48.24C395.26,245.64,406.15,237.17,406.15,220.47Z"/><path d="M280.69,184.67c-1.85,6.39-4,13.79-6.35,21.72q-2.94,7.26-5.95,14.48Q256.12,250.12,243,279l0,0c-11.86,24.93-22.27,34.85-28.8,34.85-4.84,0-20.81-5.81-19.85-9L221,216.12l-17.91-.49,2.91-7.26,17.67-.24L233.61,176h16l-9.68,32.18,20.33.24-1,7.75H237.48l-27.83,87.12,15.49,1.45,16-25.67q13.15-29.25,25.53-58.86c4.09-9.9,8.13-19.83,11.92-29.85Q279.65,187.49,280.69,184.67Z"/><path d="M290.42,160.27a145,145,0,0,1-4.52,15.57c-1.71,5.1-3.61,10.12-5.5,15.15s-4,10.29-6.06,15.4c2.34-7.93,4.5-15.33,6.35-21.72,1.16-3.14,2.29-6.29,3.35-9.46a142.64,142.64,0,0,0,4.42-15.32Z"/><rect x="168.61" y="148.29" width="13.52" height="2.69"/><path d="M374.29,631v-2.69l4.7-.22c11.2-.45,13.22-2.91,13.22-33.82V516.74c0-30.91-2-33.37-13.22-33.82l-4.7-.22V480h65.63c28.89,0,52,11.2,52,36.06,0,23.75-25.54,33.38-42.56,37.19,18.59,2.23,50.84,11.19,50.84,39.87,0,26.88-25.76,37.85-60.92,37.85Zm66.3-148.06H421.1c-9.85,0-10.53,3.58-10.53,33.82v35.4H438.8c20.16,0,32.25-11.88,32.25-36.07C471.05,492.78,456.49,482.92,440.59,482.92Zm-1.79,71.9H410.57v39.43c0,30.24.68,33.82,10.53,33.82h17c26.2,0,41.21-10.53,41.21-36.29C479.34,568.49,465,554.82,438.8,554.82Z"/><path d="M636.12,628.12h0l-.83,0c-8.52-.45-15.68-9.18-24.64-23.74-2.24-3.81-8.29-14.11-12.1-20.16-9.18-14.34-18.59-21.06-38.75-27.11,10.3.23,19.49-.44,29.79-4.25,14.34-5.6,25.31-18.37,25.31-34.72,0-25.31-22.4-38.08-48.61-38.08H493.68v2.69l4.7.22c11.2.45,13.22,2.91,13.22,33.82v77.51c0,30.91-2,33.37-13.22,33.82l-4.7.22V631h54.21v-2.69l-4.71-.22C532,627.62,530,625.16,530,594.25V557.06h14.56c15.68,0,21.72,4.48,34.49,26.66,4.26,6.94,11,20.38,15.46,28.67,4.7,8.74,7.39,14.34,9.41,18.59h35.39v-2.69ZM530,554.38V516.74c0-30.24.67-33.82,10.53-33.82h26.65c16.8,0,26.88,12.54,26.88,35.62,0,19-4.93,35.84-31.81,35.84Z"/><path d="M636.12,628.12h0l-3.75.17V631h6.95v-2.69Zm110.11-43.5-2.14,5.55c.71-1.77,1.44-3.61,2.19-5.55Z"/><path d="M713.93,628.09h0Zm149.32.17-.65,0V631h.9v-2.69Z"/><path d="M861.7,628.07c-9.18-1.12-12.09-3.81-25.08-35.84l-47-114.69h-2.24l-40.1,104.61c-.32.84-.64,1.66-1,2.47-.75,1.94-1.48,3.78-2.19,5.55l-.15.39c-6.77,16.88-11.4,26.07-15.52,31.13l0,0c-4,4.93-7.52,5.95-12,6.36H697l-2,0h-15.9c-9.86,0-10.53-3.58-10.53-33.82V554.82h13.21c10.08,0,21.51.45,26.44,18.82l1.34,4.93h2V528.39h-2l-1.34,4.93c-4.93,18.37-16.36,18.82-26.44,18.82H668.62v-35.4c0-30.24.67-33.82,10.53-33.82h11.42c20.83,0,37.18,2.46,45.7,29.12l2.46,7.62h2V480H632.33v2.69l4.71.22c11.2.45,13.21,2.91,13.21,33.82v77.51c0,30.91-2,33.37-13.21,33.82l-.92,0,3.16.17V631H761.13v-2.69l-4.71-.22c-9.4-.45-11.42-6.72-11.42-15.23a87.69,87.69,0,0,1,5.83-30.91l4.92-13.22h52.42L818,593.8c10.76,27.33,12.32,33.82-.22,34.27l-5.82.22V631H862.6v-2.69l.65,0ZM756.87,566l24.87-65.4L807.05,566Z"/><path d="M953.09,480v2.69l4.71.22c14.56.67,15,17.7-4.71,39.2l-13.21,14.34c-17.7,19.26-24.19,22.17-33.6,22.17h-7.39V516.74c0-30.91,2-33.37,13.21-33.82l4.71-.22V480H862.6v2.69l4.7.22c11.2.45,13.22,2.91,13.22,33.82v77.51c0,30.91-2,33.37-13.22,33.82l-4,.19-.65,0V631h54.21v-2.69l-4.71-.22c-11.2-.45-13.21-2.91-13.21-33.82V561.32h13c10.3,0,14.56,4.93,26,22.17,4.71,7.4,12.77,20.39,17.7,28.68,4.93,8.73,7.84,14.33,9.85,18.81h35.4v-2.69l-4-.22c-7.39-.45-14.56-6.72-24-22-2.92-4.48-10.31-15.9-16.36-24.86-12.76-19.49-17.92-26-27.32-29.35L941,539.82l11.87-12.77c32.93-35.62,41.66-43.68,51.29-44.13l3.59-.22V480Z"/></g></g></g></svg>