<svg xmlns="http://www.w3.org/2000/svg" xmlns:xlink="http://www.w3.org/1999/xlink" viewBox="0 0 55.94081 58.9073"><defs><style>.a{fill:url(#a);}</style><linearGradient id="a" x1="6.97684" y1="48.39125" x2="51.8901" y2="3.47799" gradientUnits="userSpaceOnUse"><stop offset="0" stop-color="#fff"/><stop offset="0" stop-color="#424242"/><stop offset="0.31209" stop-color="#3f3f3f"/><stop offset="0.53571" stop-color="#363636"/><stop offset="0.73164" stop-color="#262626"/><stop offset="0.91067" stop-color="#101010"/><stop offset="1" stop-color="#020202"/></linearGradient></defs><title>2_1_Detail</title><path class="a" d="M16.53849,55.61666a.0921.0921,0,0,1-.00042-.04134,12.66112,12.66112,0,0,1,.3459-1.23784c.11788-.46262.2325-.92609.35655-1.38712a14.75878,14.75878,0,0,1,.92937-2.63719c1.0139-2.08453.632-4.77158,2.75376-6.35441-.42649-1.64186,1.0574-2.22895,1.73345-3.287a17.37767,17.37767,0,0,0,1.109-3.02682c.67715-1.71656,1.44321-3.39921,2.07634-5.13105a1.45159,1.45159,0,0,0-.26377-1.294,1.47626,1.47626,0,0,0-1.29915-.06264c-2.31056,1.03765-4.82,1.25091-7.21988,1.88664a93.73709,93.73709,0,0,0-12.726,4.2129,9.37008,9.37008,0,0,1-3.70053.646A1.85694,1.85694,0,0,1,.0306,36.44811C2.05814,32.69122,4.09788,31.83874,9.11,30.89923c5.89966-1.10588,11.88122-1.65549,17.75563-2.89167,1.20018-.25256,1.20625-.838.8789-1.68266-.11006-.284-.45385-.47577-.686-.71435A165.56181,165.56181,0,0,0,7.46062,9.02019c-.50041-.37575-1.08475-1.03876-1.55594-.97943A2.59046,2.59046,0,0,1,3.07844,6.50669c-.272-.587.43888-1.5624.4753-2.37346.07246-1.61384.82191-2.6653,1.79231-2.11933,2.713,1.5264,5.33565,3.21548,7.9596,4.894.193.12344.07375.6862.16516,1.02717.19012.70915-3.73811,1.58356.04,2.0506.9608.11877-.48773,3.49864,1.75622,1.14742a4.23444,4.23444,0,0,1,.64225.91821c.51329,1.42573,1.614,1.36158,1.92121.24768.51513-1.86779,1.14528-1.786,2.24772-.64729a13.70741,13.70741,0,0,1,1.81825,2.24312,8.74717,8.74717,0,0,1,.66244,1.94641c.53014-.44012,1.18248-1.56391,1.35783.203.13331,1.34331,1.14875.88828,1.86445.914,1.20511.04336,1.55568,1.00176.98664,1.57-1.98189,1.97919.40207,3.00388.79961,4.43742a1.74957,1.74957,0,0,0,.916-.09281c.12793-.05626.20044-.46417.14484-.6715-.19948-.74376-.5114-1.45952-.67813-2.20871-.05542-.249.19828-.56688.31066-.85327.23542.12685.47635.24453.70526.38219.80026.48125,2.07933,1.549,2.31137,1.3557,1.06622-.8884,2.46785-1.57026,2.7034-3.28845a5.667,5.667,0,0,1,1.32471-2.416,1.30279,1.30279,0,0,1,1.26669.04063,1.75124,1.75124,0,0,1,.28134,1.30276c-.0437.45806-.52139.89325-.37607,1.36139.05687.18321,1.26088-.11591,1.40371-.14393.61709-.12105,1.22554-.25362,1.03711-1.08192a7.37513,7.37513,0,0,0-1.0718-2.1497,3.71893,3.71893,0,0,1-.86776-2.32967,3.27806,3.27806,0,0,1,.513-1.19946l1.404-2.35171a9.10845,9.10845,0,0,1,1.506-2.05693c.356-.33229.764-.60617,1.11075-.948.2661-.26229.55322-.58876.926-.56349.36589.0248.60839.37783.7942.694l.64367-.23369A2.66556,2.66556,0,0,1,44.081,3.66385a5.55183,5.55183,0,0,1,1.13317-1.51524,1.55843,1.55843,0,0,0,.43458-.59254C45.80262,1.0629,45.41333.55183,45.45645.037a1.6349,1.6349,0,0,1,1.07632.16735A3.68715,3.68715,0,0,0,47.57388.5799a.886.886,0,0,0,.93246-.44971.76.76,0,0,1,.32882.779,6.44211,6.44211,0,0,1-.24654.865c-.22789.86394.06379,1.82164-.2625,2.65343A4.84858,4.84858,0,0,1,47.229,5.84649c-2.16892,2.3358-3.003,5.78157-5.50409,7.7576a1.65436,1.65436,0,0,0-.43607.42978,1.47464,1.47464,0,0,0-.148.48135,10.21069,10.21069,0,0,1-.47236,2.09885,10.69241,10.69241,0,0,1-.9809,1.75263,19.30374,19.30374,0,0,0-2.157,3.5051c-.49146,1.251-.9661,2.50868-1.44835,3.76334a18.34182,18.34182,0,0,0,3.8474.2917c2.18949-.28209,4.65894-.44375,6.45943-1.23654,2.36831-1.04282,4.51761-.27539,6.70685-.68682.23027-.04328.53076.287.79867.444-.24052.17635-.55987.55436-.7087.49618-.93225-.36447-1.74295,1.92069-2.75364.11856A2.11074,2.11074,0,0,0,49.186,25.276c-.21107,2.31458-1.94349,1.53129-3.25693,1.72526-1.54219.22776-3.05127.671-4.58535.96537a1.84006,1.84006,0,0,0-1.4201,2.37662c.12843.25685,4.41184,4.55336,4.77687,4.933.66545.692,2.29884,1.64677-.32864,1.78288-.07438.00385-.12629.44159-.18867.677.62124.15771.68767,1.7449,1.75985.70924.75847-.73264,1.53512-.68892,2.04307.12818,1.97567,3.178,5.42139,5.0274,7.35124,8.25724.46386.77633,1.03076,1.51454.11268,2.00917a3.14035,3.14035,0,0,1-2.21428-.16292c-.39541-2.97891-3.54742-2.99888-5.08564-4.77952-1.47824-1.71121-3.83365-2.65517-5.768-3.988-.53925-.37156-1.33627-.91369-1.35254-1.39975-.05367-1.60309-1.34741-2.1891-2.2128-3.09213-.66881-.69789-1.83114-.59681-2.18539-2.0439-.2218-.9061-1.89727-1.49838-2.97558-2.13868-.77881-.46247-1.26451-.40726-1.78174.6653a99.58085,99.58085,0,0,1-8.7362,15.362c-.405,3.82687-3.28223,6.62536-4.2767,10.22025-.15447.55836-.89747.95391-1.36831,1.42475a11.80712,11.80712,0,0,1-.55-1.627,3.55567,3.55567,0,0,1-.04318-.77673c.00577-.19719.11387-.50445-.0027-.67769a.44514.44514,0,0,0-.27847-.1592A.11047.11047,0,0,1,16.53849,55.61666Z"/></svg>