<svg width="383" height="322" viewBox="0 0 383 322" fill="none" xmlns="http://www.w3.org/2000/svg">
<path d="M177.526 48.9201C203.536 73.989 228.877 99.8795 250.336 132.225C266.479 156.56 283.991 183.464 294.411 213.524C297.3 221.859 299.173 232.06 300.488 241.132C301.539 248.382 282.782 238.577 281.371 237.842C259.162 226.262 237.672 210.658 219.477 189.688C209.207 177.853 203.226 161.245 204.844 142.498C207.07 116.71 230.267 101.307 244.553 89.2084C263.999 72.7405 282.983 56.0069 300.724 36.2799C308.716 27.3946 316.386 17.3505 325.594 10.7587C328.282 8.83455 328.388 10.7488 327.984 14.4905C326.586 27.4185 322.512 39.1142 317.688 50.2845C298.94 93.6949 271.576 128.58 245.674 163.926C222.163 196.011 200.463 234.633 170.622 256.381C148.173 272.742 121.677 277.214 97.5174 264.807C83.995 257.863 71.4328 245.343 60.3453 232.946C52.1698 223.805 44.2425 213.606 37.3341 202.69C25.3909 183.817 14.4154 161.117 10.7236 136.318C8.99295 124.693 9.96795 113.582 18.0695 107.065C27.8996 99.1585 40.5967 95.3915 51.7309 93.3817C69.9186 90.0986 88.1363 91.7498 106.191 95.5486C138.114 102.265 168.751 116.818 199.711 128.855C224.153 138.357 248.915 145.797 273.494 154.536C298.748 163.516 322.855 174.859 344.092 195.908C357.831 209.526 370.493 224.977 371.469 249.88C371.872 260.15 366.774 269.572 361.321 276.043C356.462 281.809 350.183 286.818 344.446 290.409C327.586 300.962 309.583 308.098 291.107 310.714C276.749 312.746 264.368 312.012 249.952 310.954C232.216 309.653 214.53 307.31 196.997 303.41C184.106 300.543 173.364 296.321 162.657 285.674C155.907 278.962 149.276 272.12 150.915 259.832C152.661 246.746 158.501 234.056 162.922 222.392C179.668 178.22 201.911 137.83 228.091 103.133C239.765 87.6618 252.708 73.7506 267.742 64.7305C276.472 59.4922 285.964 58.1522 295.326 56.5845C306.316 54.7442 317.251 53.1611 328.338 54.217C340.111 55.3382 355.083 57.0764 364.123 68.7834C370.256 76.7246 374.592 89.9128 370.23 100.926C365.901 111.855 357.837 119.784 350.14 125.845C337.459 135.831 323.531 142.38 309.516 147.955C289.995 155.721 262.829 168.656 246.559 144.023C231.193 120.756 220.356 90.627 209.977 62.9649C206.912 54.7959 204.832 46.3365 202.366 37.8449C201.549 35.0309 200.323 28.9251 197.852 27.7327C194.096 25.9198 186.618 26.4556 183.751 30.2607C180.271 34.8776 173 42.9201 177.526 48.9201Z" stroke="#DBFF00" stroke-width="20" stroke-linecap="round" stroke-linejoin="round"/>
</svg>
