<svg xmlns="http://www.w3.org/2000/svg" viewBox="0 0 918.2 473.9"><g id="Layer_2" data-name="Layer 2"><g id="Text"><g id="_3" data-name="3"><path d="M473.65,0V2.69l4.71.23c14.56.67,15,17.69-4.71,39.2L460.44,56.45c-17.7,19.27-24.19,22.18-33.6,22.18h-7.39V36.74c0-30.91,2-33.38,13.21-33.82l4.71-.23V0H383.16V2.69l4.7.23c11.2.44,13.22,2.91,13.22,33.82v77.5c0,30.91-2,33.38-13.22,33.83l-4.7.22V151h54.21v-2.69l-4.71-.22c-11.2-.45-13.21-2.92-13.21-33.83V81.31h13c10.3,0,14.56,4.93,26,22.18,4.71,7.39,12.77,20.38,17.7,28.67C481.05,140.9,484,146.5,486,151h35.4v-2.69l-4-.22c-7.39-.45-14.56-6.72-24-22-2.92-4.47-10.31-15.9-16.36-24.86-12.76-19.49-17.92-26-27.32-29.34l11.87-12.1L473.43,47c32.93-35.61,41.66-43.68,51.3-44.12l3.58-.23V0Z"/><path d="M578.48,0V2.69l2,.1,2-.1V0Z"/><path d="M578.48,0V2.69l2,.1,2-.1V0Z"/><path d="M804.94,97.67V151H528.31v-2.69l4.7-.22c11.2-.45,13.22-2.92,13.22-33.83V36.74c0-30.91-2-33.38-13.22-33.82l-4.7-.23V0h50.17V2.69l2,.1-2.69.13c-11.2.44-13.21,2.91-13.21,33.82v77.5c0,30.91,2,33.38,13.21,33.83l2.69.13,2.69-.13c11.19-.45,13.21-2.92,13.21-33.83V36.74c0-30.91-2-33.38-13.21-33.82l-2.69-.13,2-.1V0h49.94V2.69l-4.7.23c-11,.44-13,2.91-13,33.82v77.5c0,30.24.67,33.83,10.53,33.83h15.23c24.64,0,34.94-4,47.49-42.79l2.46-7.61h2v50.55l3.13-.15c11.2-.45,13.22-2.92,13.22-33.83V36.74c0-30.91-2-33.38-13.22-33.82l-4.7-.23V0h54V2.69l-4.7.23c-11,.44-13,2.91-13,33.82v77.5c0,30.24.68,33.83,10.53,33.83H753c24.64,0,34.95-4,47.49-42.79l2.47-7.61Z"/><path d="M382,308.66V306l4.7-.22c11.2-.45,13.22-2.91,13.22-33.82V194.42c0-30.91-2-33.37-13.22-33.82l-4.7-.22v-2.69H494.66v44.12h-2l-2.46-7.61c-10.3-32-24-33.6-47.26-33.6H428.81c-9.86,0-10.53,3.58-10.53,33.82v39.87h17.47c10.53,0,21.5-.44,26.43-18.81l1.34-4.93h2v54.66h-2l-1.34-4.93c-6.05-22.63-15.9-23.3-26.43-23.3H418.28v35c0,30.91,2,32.92,19.93,33.82l4.71.22v2.69Z"/><path d="M501.59,308.66V306l4.7-.22c11.2-.45,13.22-2.91,13.22-33.82V194.42c0-30.91-2-33.37-13.22-33.82l-4.7-.22v-2.69H555.8v2.69l-4.71.22c-11.2.45-13.21,2.91-13.21,33.82v77.51c0,30.91,2,33.37,13.21,33.82l4.71.22v2.69Z"/><path d="M708.76,181.88c0-14.78,10.53-24.19,28.45-24.19,17.25,0,35.17,11.87,41.66,32.26l2.47,7.61h2V154.78h-1.8c-5.82,7.61-9.18,10.08-12.77,10.08-2.68,0-4.48-1.34-7.61-3.14a49.39,49.39,0,0,0-24.87-6.94c-23.52,0-42.78,15.9-42.78,39.2,0,49.5,82,40.54,82,85.34,0,20.33-14.91,29.3-33.87,29.35h-.17a31.54,31.54,0,0,1-18.26-6c-7-5.09-16.62-12.49-21.9-18.38-.35.12-2,1-2.23,1.09q.2.39.36.78c1.91,4.22,7,17.46,2.45,21.16-4.27,3.49-11.06.27-15.12-2.63-8.19-5.87-13.43-17.3-16.68-26.51-2.94-8.3-5.14-17.08-10.07-24.5-5.55-8.37-13.27-15.43-22.76-19a68.46,68.46,0,0,0,21.33-4.18c14.34-5.6,25.31-18.37,25.31-34.72,0-25.31-22.4-38.08-48.61-38.08H562.72v2.69l4.7.22c11.2.45,13.22,2.92,13.22,33.83v77.5c0,30.91-2,33.38-13.22,33.82l-4.7.23v2.69h54.21V306l-4.71-.23C601,305.31,599,302.84,599,271.93V234.75h13.42A43.57,43.57,0,0,1,632.34,240c16.61,9.43,12.89,34.2,20.55,49.13,7.21,14.05,18.37,20.68,32,21.43,14.47.79,29,.92,43.47,1,11.62.05,23.18.52,34.34-3.29,16.45-5.62,29.18-19.46,29.18-37.45C791.87,218.62,708.76,227.8,708.76,181.88Zm-77.5,50.18H599V194.43c0-30.24.67-33.83,10.52-33.83h26.66c16.8,0,26.88,12.55,26.88,35.62C663.07,215.26,658.14,232.06,631.26,232.06Z"/><path d="M828.38,308.66V306l4.7-.22c11.2-.45,13.22-2.91,13.22-33.82V194c0-30.24-.67-33.38-10.75-33.38h-4.93c-11,0-23.3,2-33.38,33.6l-2.46,7.61h-2V157.69H918.2v44.12h-2l-2.47-7.61c-10.3-31.58-22.4-33.6-33.37-33.6H875.2c-9.86,0-10.53,3.14-10.53,33.38v78c0,30.91,2,33.37,13.21,33.82l4.71.22v2.69Z"/><path d="M224.27,222.89c0-10.16-9.92-16.94-23.47-16.94-28.07,0-58.08,39.93-58.08,75.51,0,.8,0,1.59.07,2.38l-14,21.82-12.34-1.46s12.34-30.73,18.15-45.25c6.77-16.7,12.58-31.7,12.58-38,0-7.51-8.47-14.52-16-14.52-5.08,0-11.62,2.9-16.94,8.47-8.47,8.47-26.62,35.33-40.17,62.19l-1.46-.48C82.8,251.93,91.75,222.89,108,167l4.6-15.49-39.94,4.11-.48,1.46,19.36.72c1.7,0,1.94,2.91,1.21,5.57,0,0-2.54,9-6.44,22.42,0,0,0,0,0,0q-1,2.73-2,5.46c-3.8,10-7.84,19.94-11.93,29.85q-12.07,29-25,57.65a20.21,20.21,0,0,1-1.28,2.38l-15.28,24.5L15.28,304.2l27.83-87.12H64.89l1-7.74-20.33-.24,9.68-32.19h-16L29.32,209.1l-17.67.24-2.9,7.26,17.91.48L0,305.9c-1,3.14,15,9,19.84,9,6.54,0,16.94-9.92,28.8-34.85l.28-.59c8.73-19.26,16.88-38.07,25.06-57.57q3-7.23,6-14.48c-6.16,20.83-13.58,45.28-19.92,64.42L46.26,311.47,62,312.68l8.95-23C92.48,244,114,216.12,121.28,216.12c5.32,0,10.4,3.87,10.4,8.47,0,3.63-7.26,21-12.34,34.36-7.74,20.33-17.91,44-17.91,46.71,0,3.14,11.14,9.19,16,9.19,5.59,0,15.21-7.84,25.78-27.13,2.24,14.95,12.54,27.13,28.08,27.13,17.19,0,31.22-17.66,41.39-35.57l-1.7-.73c-11.61,18.88-19.84,25.65-31.7,25.65-12.83,0-19.6-9.92-19.6-27.1a80.61,80.61,0,0,1,3.63-22.26C203.94,248.06,224.27,238.62,224.27,222.89Zm-41.14-6c5.33-5.08,10.65-8.23,15.25-8.23,7.26,0,10.41,5.57,10.41,12.83,0,16.7-10.9,25.17-44.29,31.22l-.49-.24C168.37,238.38,175.63,224.34,183.13,216.84Z"/><path d="M202.91,473.9c-10.53,0-19.94-2.24-30.69-9-3.36-2.24-4.93-2.92-7.39-2.92-4.93,0-9.41,4.71-14.56,11.88h-1.8V424.39h2l2.69,8.29c5.37,16.35,21.28,38.3,49.5,38.3,19,0,34-9,34-29.34,0-44.8-82-35.84-82-85.34,0-23.3,19.26-39.2,42.78-39.2A49.28,49.28,0,0,1,222.39,324c3.14,1.79,4.93,3.14,7.62,3.14,3.58,0,6.94-2.47,12.77-10.08h1.79v42.78h-2l-2.46-7.62c-6.5-20.38-24.42-32.25-41.66-32.25C180.51,320,170,329.42,170,344.2c0,45.92,83.1,36.74,83.1,88.93C253.08,457.32,231.58,473.9,202.91,473.9Z"/><path d="M790.67,424.62l-2.46,7.62c-10.31,31.58-22.85,35.84-45.7,35.84h-15.9c-9.86,0-10.53-3.59-10.53-33.83V394.83h13.21c10.08,0,21.51.45,26.44,18.81l1.34,4.93h2V368.4h-2l-1.34,4.92c-4.93,18.37-16.36,18.82-26.44,18.82H716.08V356.75c0-30.24.67-33.83,10.53-33.83H738c20.83,0,37.18,2.47,45.7,29.12l2.46,7.62h2V320H629.62v2.69l4.7.22c14.56.67,15,17.7-4.7,39.2L616.4,376.46c-17.7,19.26-24.19,22.17-33.6,22.17h-7.39V356.74c0-30.91,2-33.37,13.21-33.82l4.71-.22V320H539.12v2.69l4.7.22c11.2.45,13.22,2.91,13.22,33.82v77.51c0,30.91-2,33.37-13.22,33.82l-.8,0h0l-.3,0c-9.19-1.12-12.1-3.81-25.09-35.84l-47-114.69h-2.24l-40.1,104.61c-4.93,12.79-8.81,22-12.1,28.59-4.8,9.63-19.21,7.63-21.08-3-.44-2.54-.81-5.32-1.09-8.35V371.3c0-31.58,4.48-47.48,16.13-48.38l2.47-.22V320H364v2.69l4.7.22c11.53.55,18.88,17.27,21.17,35.83a101.28,101.28,0,0,1,.78,12.55v73.25l-3-3.64L286.68,320h-35v2.69l4,.22c10.3.45,14.56,2.91,14.56,31.81v62.94c0,33.6-4.93,49.5-16.13,50.4l-2.47.22V471h48.61v-2.69l-4.7-.22c-13.66-.67-21.95-26.21-21.95-50.4V334.79L397.37,471h44.76v-2.69l-4.7-.22C428,467.62,426,461.35,426,452.84a87.73,87.73,0,0,1,5.83-30.91l4.93-13.22h52.41L499,433.8c10.75,27.33,12.32,33.82-.23,34.27l-5.82.22V471H593.33v-2.69l-4.71-.22c-11.19-.45-13.21-2.91-13.21-33.82V401.32h13c10.3,0,14.56,4.93,26,22.18,4.71,7.39,12.77,20.38,17.7,28.67,4.93,8.73,7.84,14.33,9.86,18.81H792.69V424.62ZM437.88,406l24.86-65.4L488.05,406Zm259.83,28.23c0,30.91-2,33.38-13.22,33.83l-4.49.21h-2.67l-4-.22c-7.4-.45-14.56-6.72-24-21.95-2.91-4.48-10.31-15.9-16.35-24.86-12.77-19.49-17.92-26-27.33-29.35l11.87-12.09,11.87-12.77c32.93-35.62,41.67-43.68,51.3-44.13l1.64-.1h0l2.14.1c11.2.45,13.22,2.92,13.22,33.83Z"/></g></g></g></svg>