<svg xmlns="http://www.w3.org/2000/svg" viewBox="0 0 918.2 510.4"><defs><style>.cls-1{font-size:224px;font-family:AWConquerorStdDidot-Light, AWConqueror Std Didot;font-weight:300;letter-spacing:-0.04em;}.cls-2{letter-spacing:-0.08em;}.cls-3{letter-spacing:-0.1em;}.cls-4{letter-spacing:-0.04em;}</style></defs><g id="Layer_2" data-name="Layer 2"><g id="Text"><g id="_3" data-name="3"><text class="cls-1" transform="translate(376.21 187.49)">K<tspan class="cls-2" x="145.15" y="0">I</tspan><tspan class="cls-3" x="195.32" y="0">L</tspan><tspan class="cls-4" x="307.77" y="0">L</tspan></text><path d="M382,345.17v-2.69l4.7-.22c11.2-.45,13.22-2.91,13.22-33.83v-77.5c0-30.91-2-33.38-13.22-33.82l-4.7-.23v-2.69H494.66v44.13h-2l-2.46-7.61c-10.31-32-24-33.6-47.27-33.6H428.8c-9.85,0-10.53,3.58-10.53,33.82V270.8h17.48c10.52,0,21.5-.45,26.43-18.81l1.34-4.93h2v54.65h-2l-1.34-4.92c-6.05-22.63-15.91-23.3-26.43-23.3H418.27v34.94c0,30.92,2,32.93,19.94,33.83l4.7.22v2.69Z"/><path d="M501.59,345.17v-2.69l4.7-.22c11.2-.45,13.22-2.91,13.22-33.83v-77.5c0-30.91-2-33.38-13.22-33.82l-4.7-.23v-2.69h54.2v2.69l-4.7.23c-11.2.44-13.22,2.91-13.22,33.82v77.5c0,30.92,2,33.38,13.22,33.83l4.7.22v2.69Z"/><path d="M708.76,218.38c0-14.78,10.53-24.19,28.45-24.19,17.25,0,35.17,11.87,41.66,32.26l2.47,7.61h2V191.28h-1.8c-5.82,7.61-9.18,10.08-12.77,10.08-2.68,0-4.48-1.34-7.61-3.14a49.39,49.39,0,0,0-24.87-6.94c-23.52,0-42.78,15.9-42.78,39.2,0,49.5,82,40.54,82,85.34,0,20.33-14.91,29.3-33.87,29.35h-.17a31.44,31.44,0,0,1-18.26-6c-7-5.1-16.62-12.5-21.9-18.39-.35.12-2,1-2.23,1.09q.2.39.36.78c1.91,4.22,7,17.47,2.45,21.17-4.27,3.49-11.06.26-15.12-2.64-8.19-5.87-13.43-17.3-16.68-26.51-2.94-8.3-5.14-17.08-10.07-24.5-5.55-8.37-13.27-15.43-22.76-19A68.46,68.46,0,0,0,658.59,267c14.34-5.6,25.31-18.37,25.31-34.72,0-25.31-22.4-38.08-48.61-38.08H562.72v2.69l4.7.22c11.2.45,13.22,2.92,13.22,33.83v77.5c0,30.91-2,33.38-13.22,33.82l-4.7.23v2.69h54.21v-2.69l-4.71-.23C601,341.81,599,339.34,599,308.43V271.25h13.42a43.57,43.57,0,0,1,19.91,5.24c16.61,9.43,12.89,34.21,20.55,49.13,7.21,14.05,18.37,20.69,32,21.43,14.47.79,29,.93,43.47,1,11.62.06,23.18.53,34.34-3.29,16.45-5.62,29.18-19.45,29.18-37.45C791.87,255.12,708.76,264.3,708.76,218.38ZM599,268.56V230.93c0-30.24.67-33.83,10.52-33.83h26.66c16.8,0,26.88,12.55,26.88,35.62,0,19-4.93,35.84-31.81,35.84Z"/><path d="M828.38,345.17v-2.69l4.7-.22c11.2-.45,13.22-2.91,13.22-33.83v-78c0-30.24-.67-33.37-10.75-33.37h-4.93c-11,0-23.3,2-33.38,33.6l-2.46,7.61h-2V194.19H918.2v44.13h-2l-2.47-7.61c-10.3-31.59-22.4-33.6-33.37-33.6h-5.16c-9.85,0-10.52,3.13-10.52,33.37v78c0,30.92,2,33.38,13.21,33.83l4.71.22v2.69Z"/><path d="M749.25,345.88h-.49v0Z"/><path d="M142.79,320.35a38.33,38.33,0,0,0,.4,3.88c-10.57,19.29-20.19,27.13-25.78,27.13-4.84,0-16-6.05-16-9.19,0-2.67,10.17-26.38,17.91-46.71,5.08-13.31,12.34-30.73,12.34-34.36,0-4.6-5.08-8.47-10.4-8.47-7.26,0-28.8,27.83-50.34,73.56l-8.95,23L46.26,348l13.79-39.69C66.39,289.15,73.81,264.7,80,243.87q3.11-7.67,6.07-15.4c1.88-5,3.78-10.05,5.49-15.16a142.14,142.14,0,0,0,4.53-15.57l-2-.37a141,141,0,0,1-4.42,15.32c-1.07,3.22-2.21,6.41-3.39,9.6,3.9-13.43,6.44-22.42,6.44-22.42.73-2.66.49-5.57-1.21-5.57l-19.36-.72.48-1.46L112.57,188,108,203.5C91.75,259.4,82.8,288.44,72.63,313.13l1.46.48c13.55-26.86,31.7-53.72,40.17-62.19,5.32-5.57,11.86-8.47,16.94-8.47,7.5,0,16,7,16,14.52,0,6.29-5.81,21.29-12.58,38-5.81,14.52-18.15,45.25-18.15,45.25l12.34,1.46Z"/><path d="M224.27,259.4c0-10.16-9.92-16.94-23.47-16.94-28.07,0-58.08,39.93-58.08,75.51,0,.8,0,1.59.07,2.38l2.93-4.56,0,0,1.41.7c-.48,1-.95,1.94-1.42,2.87q-1.29,2.53-2.56,4.85c2.24,14.95,12.54,27.13,28.08,27.13,17.19,0,31.22-17.66,41.39-35.57l-1.7-.73c-11.61,18.88-19.84,25.65-31.7,25.65-12.83,0-19.6-9.92-19.6-27.1a80.61,80.61,0,0,1,3.63-22.26C203.94,284.57,224.27,275.13,224.27,259.4Zm-41.14-6c5.33-5.08,10.65-8.23,15.25-8.23,7.26,0,10.41,5.57,10.41,12.83,0,16.7-10.9,25.17-44.29,31.22l-.49-.24C168.37,274.89,175.63,260.85,183.13,253.35Z"/><path d="M86.27,222.33c-1.84,6.35-4,13.69-6.3,21.54q-2.94,7.26-6,14.48c-8.18,19.5-16.33,38.31-25.06,57.57l-.28.59c-11.86,24.93-22.26,34.85-28.8,34.85C15,351.36-.93,345.55,0,342.41l26.62-88.82-17.91-.48,2.9-7.26,17.67-.24,9.92-32.19h16l-9.68,32.19,20.33.24-1,7.74H43.11L15.28,340.71l15.49,1.46,15.28-24.5a20.21,20.21,0,0,0,1.28-2.38q12.87-28.65,25-57.65c4.09-9.91,8.13-19.84,11.93-29.85Q85.26,225.06,86.27,222.33Z"/><path d="M145.76,315.81l0,0-2.93,4.56a38.33,38.33,0,0,0,.4,3.88q1.27-2.31,2.56-4.85c.47-.93.94-1.89,1.42-2.87ZM89.67,212.69c-1.07,3.22-2.21,6.41-3.39,9.6,0,0,0,0,0,0-1.84,6.35-4,13.69-6.3,21.54q3.11-7.67,6.07-15.4c1.88-5,3.78-10.05,5.49-15.16a142.14,142.14,0,0,0,4.53-15.57l-2-.37A141,141,0,0,1,89.67,212.69Z"/><path d="M145.76,315.81l0,0-2.93,4.56a38.33,38.33,0,0,0,.4,3.88q1.27-2.31,2.56-4.85c.47-.93.94-1.89,1.42-2.87Z"/><path d="M96.06,197.74a142.14,142.14,0,0,1-4.53,15.57c-1.71,5.11-3.61,10.13-5.49,15.16s-4,10.29-6.07,15.4c2.32-7.85,4.46-15.19,6.3-21.54,0,0,0,0,0,0,1.18-3.19,2.32-6.38,3.39-9.6a141,141,0,0,0,4.42-15.32Z"/><path d="M202.9,510.4c-10.52,0-19.93-2.24-30.68-9-3.36-2.24-4.93-2.91-7.4-2.91-4.92,0-9.4,4.71-14.56,11.87h-1.79V460.9h2l2.69,8.29c5.37,16.35,21.28,38.3,49.5,38.3,19,0,34-9,34-29.34,0-44.8-82-35.84-82-85.35,0-23.29,19.27-39.2,42.79-39.2a49.29,49.29,0,0,1,24.86,6.95c3.14,1.79,4.93,3.13,7.62,3.13,3.58,0,6.94-2.46,12.77-10.08h1.79v42.79h-2l-2.46-7.62c-6.5-20.38-24.42-32.25-41.67-32.25-17.92,0-28.44,9.4-28.44,24.19,0,45.92,83.1,36.73,83.1,88.92C253.08,493.83,231.58,510.4,202.9,510.4Z"/><path d="M790.67,461.12l-2.46,7.62c-10.31,31.58-22.85,35.84-45.7,35.84h-15.9c-9.86,0-10.53-3.59-10.53-33.83V431.33h13.21c10.08,0,21.51.45,26.44,18.81l1.34,4.93h2V404.9h-2l-1.34,4.92c-4.93,18.37-16.36,18.82-26.44,18.82H716.08V393.25c0-30.24.67-33.83,10.53-33.83H738c20.83,0,37.18,2.47,45.7,29.12l2.46,7.62h2V356.51H629.62v2.69l4.7.22c14.56.67,15,17.7-4.7,39.2L616.4,413c-17.7,19.26-24.19,22.17-33.6,22.17h-7.39V393.24c0-30.91,2-33.37,13.21-33.82l4.71-.22v-2.69H539.12v2.69l4.7.22c11.2.45,13.22,2.91,13.22,33.82v77.51c0,30.91-2,33.37-13.22,33.82l-.8,0h0l-.3,0c-9.19-1.12-12.1-3.81-25.09-35.84L470.58,354h-2.24l-40.1,104.61c-4.93,12.79-8.81,22-12.1,28.59-4.8,9.63-19.21,7.63-21.08-3-.44-2.54-.81-5.32-1.09-8.35V407.8c0-31.58,4.48-47.48,16.13-48.38l2.47-.22v-2.69H364v2.69l4.7.22c11.53.55,18.88,17.27,21.17,35.83a101.28,101.28,0,0,1,.78,12.55v73.25l-3-3.64-100.9-120.9h-35v2.69l4,.22c10.3.45,14.56,2.91,14.56,31.81v62.94c0,33.6-4.93,49.5-16.13,50.4l-2.47.22v2.69h48.61v-2.69l-4.7-.22c-13.66-.67-21.95-26.21-21.95-50.4V371.29L397.37,507.48h44.76v-2.69l-4.7-.22C428,504.12,426,497.85,426,489.34a87.73,87.73,0,0,1,5.83-30.91l4.93-13.22h52.41L499,470.3c10.75,27.33,12.32,33.82-.23,34.27l-5.82.22v2.69H593.33v-2.69l-4.71-.22c-11.19-.45-13.21-2.91-13.21-33.82V437.82h13c10.3,0,14.56,4.93,26,22.18,4.71,7.39,12.77,20.38,17.7,28.67,4.93,8.73,7.84,14.33,9.86,18.81H792.69V461.12Zm-352.79-18.6,24.86-65.4,25.31,65.4Zm259.83,28.23c0,30.91-2,33.38-13.22,33.83l-4.49.21h-2.67l-4-.22c-7.4-.45-14.56-6.72-24-21.95-2.91-4.48-10.31-15.9-16.35-24.86-12.77-19.49-17.92-26-27.33-29.35l11.87-12.09,11.87-12.77c32.93-35.62,41.67-43.68,51.3-44.13l1.64-.1h0l2.14.1c11.2.45,13.22,2.92,13.22,33.83Z"/></g></g></g></svg>