<svg xmlns="http://www.w3.org/2000/svg" viewBox="0 0 516.11 210.56"><g id="Layer_2" data-name="Layer 2"><g id="Layer_1-2" data-name="Layer 1"><path d="M43.28,177.45l-.71-.28.54-1.57c1.17-3.33-.72-3.59-9.09-3.64H26.46L21,185.83l2.91,2.59a23.59,23.59,0,0,0,7.44,4.7c2.38.94,4.36,1,5.47-1.5l.55-1.22.71.28-5,12.63-.72-.28.2-.68c.79-2.72.29-4.42-9.07-13L0,167.89l.42-1.07,35.33-.51c9.88-.11,10.9-.6,12.16-2.93l.24-.45.72.28Zm-22.86,7.81L25.63,172l-20-.13Z"/><path d="M76.61,122c-1.32-.26-3.06-.59-5.87-1-2.66-.38-6.89-1.12-9.17-1.37-7.26-.83-9.32-.2-11.9,3.3l-2.33,3.14,8.55,6.31c7,5.21,8,5.2,10,2.75l.85-1,.61.46-9.46,12.81-.62-.45L58,145.8c1.75-2.6,1.48-3.52-5.57-8.73L34.62,123.92c-7-5.21-8-5.21-10-2.76l-.85,1-.61-.46,12.54-17C40.29,98.58,47,95.6,52.84,99.9c3.81,2.82,4.84,7.56,3.53,11.92a22.39,22.39,0,0,1-4.16,7.67c4.95-3.9,8.22-5,13.16-4.68,2,.15,5.34.53,6.6.66,5,.4,8.09.25,9.6-1.58l.74-.89.61.46ZM36.39,105.25l-4.29,5.82c-1.68,2.27-1,3,6,8.16l8.65,6.39L52,118.47c4.41-6,1.53-9.93-2.95-13.24C43.76,101.31,39.21,101.45,36.39,105.25Z"/><path d="M93.4,105.22c-6.76,6.73-15.53,5-21-.45C65,97.29,66.24,89.46,71.32,84.41c6.53-6.5,13.13-5,18.59.44L75.54,99.17l.9.9c4.29,4.31,10.84,9.35,16.92,3.3,3.62-3.61,4.36-7.68,1.74-11.94l.77-.5C98.8,95.6,98.07,100.57,93.4,105.22ZM71.9,85c-4.26,4.24-1.69,8.73,3.1,13.62L85.11,88.56C81,84.47,76,80.89,71.9,85Z"/><path d="M117.56,83.39l-.46-.61,1-.82c1.81-1.54,2.18-1.9-2.84-8.53L104,58.63l-9.85,7.46,11.21,14.8c5,6.63,5.47,6.37,7.43,5l1.06-.72.46.62-10.86,8.22-.47-.61,1-.82c1.82-1.53,2.18-1.89-2.84-8.53L90,69.3,86.33,72l-.51-.66,3.63-2.75-3-4c-3.47-4.59-2.4-11,3.11-15.19a11.43,11.43,0,0,1,4.28-2.2l5.25-4,20.4,26.94c5,6.64,5.47,6.38,7.44,5l1-.72.47.61ZM99.67,52.87l-.31.23a2.87,2.87,0,0,1-4.13-.57c-1-1.33-.52-2.5-1.06-3.21-.66-.87-2.24-.63-4.18.84-3.47,2.63-3.8,5.37-.75,9.4l4.44,5.87L103.53,58Z"/><path d="M143.54,67.71c-8.34,4.62-16.3.56-20-6.16-5.13-9.23-1.8-16.42,4.47-19.9,8-4.47,14-1.26,17.77,5.5L128,57l.62,1.12c3,5.32,7.88,11.95,15.38,7.79,4.47-2.49,6.29-6.2,4.94-11l.87-.26C151.37,59.92,149.3,64.51,143.54,67.71ZM128.38,42.38c-5.26,2.92-4,7.93-.74,13.95l12.47-6.93C137.32,44.37,133.47,39.55,128.38,42.38Z"/><path d="M171.22,54.79c-8.87,3.48-16.11-1.66-18.91-8.81-2.94-7.51-1.21-15.88,8.44-19.67,6.32-2.47,11-.52,12.14,2.4a3.29,3.29,0,0,1-2,4.44,3.34,3.34,0,0,1-4.39-1.92c-.7-1.79.1-3.07-.27-4-.3-.78-1.5-1.55-5.13-.12-7.51,2.94-5.72,9.8-3.22,16.17,2.43,6.2,6.46,12.8,14.09,9.81,4.76-1.86,6.88-5.24,6.24-10.21l.9-.15C179.92,48.22,177.36,52.39,171.22,54.79Z"/><path d="M200.72,38.2c1,3.83.78,7.08-3.86,8.33s-8.26-1.16-10-7.46L182,20.84,177.6,22l-.21-.8L181.77,20l-2.68-9.94,5.13-1.39,2.68,10L194,16.74l.22.8-7.11,1.92L192,37.69c1.48,5.5,3,8,5.74,7.27,2.47-.67,3.22-2.79,2.21-6.56Z"/><path d="M204.41,43.88l-.14-.75,1.24-.3c2.31-.56,2.8-.71,1.28-8.89L205,24.06c-1.52-8.18-2-8.15-4.38-7.85l-1.28.17-.13-.75,9.31-1.73L212,33c1.52,8.18,2,8.15,4.39,7.84l1.27-.17.14.76ZM204.3,6.47a3,3,0,0,1-3.55-2.66A3,3,0,0,1,203.11.06a3,3,0,0,1,3.62,2.64A3,3,0,0,1,204.3,6.47Z"/><path d="M234.88,40.35c-9.12.72-15-6.14-15.61-14s4.12-15.47,13.24-16.19,15.05,6.07,15.67,14S244.07,39.63,234.88,40.35Zm-2.31-29.41c-6.69.53-7.72,7.09-7.11,14.94s2.66,14.17,9.36,13.64,7.72-7,7.11-14.87S239.27,10.41,232.57,10.94Z"/><path d="M271.8,39.56l.05-.77,1.28,0c2.37,0,2.89,0,3.43-8.3l.62-9.39c.41-6.25-2.13-9.5-6.47-9.79a8.69,8.69,0,0,0-8.24,4.4l-.91,13.79c-.55,8.3,0,8.4,2.31,8.68l1.27.15-.05.77-13.6-.9,0-.76,1.28,0c2.37,0,2.89,0,3.44-8.31l.66-10c.54-8.3,0-8.4-2.32-8.69l-1.27-.14,0-.77,9.33.61-.3,4.41a10,10,0,0,1,9.41-4.51c6,.4,11.15,4,10.66,11.41l-.62,9.39c-.54,8.3,0,8.4,2.32,8.68l1.27.15-.05.77Z"/><path d="M317.89,49.11c-8.77-2.62-11.77-11.13-9.49-18.74S317.81,17.42,326.58,20s11.85,11.09,9.58,18.7S326.72,51.75,317.89,49.11Zm8.45-28.27c-6.44-1.92-9.76,3.83-12,11.37s-2.64,14.18,3.8,16.1,9.75-3.76,12-11.31S332.78,22.76,326.34,20.84Z"/><path d="M352.59,61.74l.32-.69,1.19.48c2.2.89,2.69,1,6.22-6.49l4-8.52c2.66-5.68,1.47-9.63-2.47-11.47a8.69,8.69,0,0,0-9.28,1.1l-5.86,12.52c-3.52,7.54-3.09,7.81-1,8.93l1.14.6-.33.7-12.35-5.78.33-.7,1.19.49c2.2.88,2.69,1,6.21-6.49l4.26-9.1c3.53-7.54,3.09-7.81,1-8.93l-1.13-.6.32-.7,8.47,4-1.87,4a10,10,0,0,1,10.4-.79c5.45,2.56,8.93,7.79,5.79,14.52l-4,8.52c-3.53,7.53-3.09,7.81-1,8.93l1.13.6-.33.69Z"/><path d="M407.07,98.81l.5-.59,1.07.83c2.47,1.93,3.4,1.72,9.08-5L437,71.37,407.71,82.55l-1-.83L411,50.91,395.67,69c-3.28,3.85-8.12,11.82-4.58,15.17l1,.92-.5.58-10.68-9.07.5-.59.58.41c2.7,2,6.83-.83,13-8l11.19-13.17c5.68-6.68,5.2-8.09,3-10.09l-.83-.8.5-.58,8.28,7L413,79.45l26.26-9.94,8,6.76-.5.59L445.59,76c-2.47-1.94-3.41-1.73-9.09,4.95L422.16,97.86c-5.68,6.68-5.74,7.64-3.43,9.77l1,.92-.5.58Z"/><path d="M414.39,125.53,415,125l.5.51c2.49,2.5,4.78,2.26,10.75-2.68l1.82-1.51,10.35-20.7c2.68-5.29,3-6.86,2.17-8.11l-.27-.44.59-.49,8,9.66-.59.49-.79-.85c-1.77-1.94-2.72-1-5.29,4L435,119.07l12.18-3.95c4.51-1.48,8.24-4.41,6.7-6.46l-.6-.83.59-.49,5.8,7-.6.49-.37-.35c-1.34-1.22-3.5-1-10.9,1.38l-19.22,6.19-1.82,1.51c-6,4.94-6.71,7.06-4.71,10l.4.58-.59.49Z"/><path d="M442.69,142.4a11.53,11.53,0,0,1-1.92-5.86,3.5,3.5,0,0,0-.36-1.6c-.49-.75-1.5-1-3.26-1l-.35-.54,8.09-5.29.42.64-1,1.18c-2.13,2.7-4.09,7.19-1,12,2,3.1,4.93,4.5,8,2.46,6.53-4.27-4.11-16.2,5-22.16,3.85-2.52,8.63-1.06,11.29,3a10.11,10.11,0,0,1,1.6,5,3.12,3.12,0,0,0,.32,1.31c.39.59,1.27.78,2.75.81l.31.48-7,4.59-.39-.59,1-1.18a8.25,8.25,0,0,0,.77-9.92c-1.89-2.89-4.24-3.56-6.6-2-6.69,4.38,4,16.42-5.43,22.67C451,149,445.85,147.22,442.69,142.4Z"/><path d="M456.47,166.57c-4.23-8.54.21-16.31,7.1-19.71,9.46-4.68,16.49-1,19.67,5.41,4.08,8.26.59,14.06-6.35,17.49l-9-18.19-1.15.57c-5.45,2.69-12.31,7.3-8.51,15,2.27,4.59,5.89,6.58,10.76,5.45l.23.89C463.87,174.76,459.39,172.48,456.47,166.57Zm26-13.93c-2.67-5.4-7.74-4.39-13.9-1.41L474.91,164C480.07,161.47,485.07,157.86,482.49,152.64Z"/><path d="M463.81,180.68l.72-.26.5,1.17c1,2.18,1.19,2.64,9-.26l22.92-8.52c7.8-2.89,7.68-3.4,7-5.66l-.38-1.22.72-.27,3.3,8.88-31.68,11.77c-7.8,2.9-7.68,3.4-7,5.66l.39,1.23-.72.26Z"/><path d="M499,197.73l-17.86,5.05c-8,2.27-7.93,2.78-7.23,5.71l.46,1.86-.74.21-4.06-14.35.74-.21.41,1.22c.77,2.24,1,2.71,9,.45l17.86-5-1.23-4.37.8-.23,1.23,4.38,5-1.41c5.73-1.62,10.67.77,12.37,6.81,1.32,4.68-.4,8.23-3.48,9.1a3.3,3.3,0,0,1-1.79-6.35c1.78-.5,2.85.46,3.84.18.68-.19,1-1.29.61-2.77-1-3.57-3.08-3.85-7.82-2.51l-7.27,2.06,2,7.08-.8.23Z"/></g></g></svg>