<svg xmlns="http://www.w3.org/2000/svg" xmlns:xlink="http://www.w3.org/1999/xlink" viewBox="0 0 50.5638 74.18329"><defs><style>.a{fill:url(#a);}.b{fill:url(#b);}</style><linearGradient id="a" y1="37.09165" x2="50.5638" y2="37.09165" gradientUnits="userSpaceOnUse"><stop offset="0" stop-color="#fff"/><stop offset="0" stop-color="#424242"/><stop offset="0.18963" stop-color="#373737"/><stop offset="0.51884" stop-color="#1b1b1b"/><stop offset="0.75841" stop-color="#020202"/></linearGradient><linearGradient id="b" x1="23.73503" y1="27.32786" x2="32.92751" y2="27.32786" xlink:href="#a"/></defs><title>3_25_Detail3</title><path class="a" d="M42.067,74.18329a5.91328,5.91328,0,0,0-1.18682-.50414,27.87553,27.87553,0,0,1-8.29227-3.274,11.07154,11.07154,0,0,0-4.79564-1.44461,17.94841,17.94841,0,0,1-2.5768-.36994,100.59745,100.59745,0,0,1-14.322-3.745c-.61185-.22117-1.254-.35814-1.88087-.53822a18.39181,18.39181,0,0,1-7.28486-3.83311C1.1607,59.97131.489,59.45873.86883,58.562c.12139-.28658.53385-.69075.7466-.65418a12.38112,12.38112,0,0,1,2.16584.67684c.05862.02174.04321.4745.00885.482-1.06846.23264-.50591.63725-.1308,1.04622a10.58831,10.58831,0,0,0,4.70389,2.50137c1.89507.65046,3.86176,1.08939,5.78575,1.65931,1.81508.53767,3.592,1.22121,5.42773,1.66781,2.26584.55122,4.57391.93027,6.86753,1.36359a2.27063,2.27063,0,0,0,.70041-.09431,3.01153,3.01153,0,0,0-.52433-.56675q-3.16311-2.01489-6.34769-3.996c-.69195-.43073-1.43022-.78914-2.10895-1.23855a4.98217,4.98217,0,0,0-3.86893-.75262,11.399,11.399,0,0,1-3.20969-.27664c-.12753-.01507-.23709-.18211-.355-.27871.10387-.09374.19227-.22926.31414-.27439.75118-.27822,1.50992-.536,2.26614-.80065-.58948-.58809-1.1379-1.226-1.77747-1.75332-1.131-.93251-2.286-1.84284-3.48764-2.68113a31.25225,31.25225,0,0,1-5.47557-5.07216A16.10984,16.10984,0,0,0,.68535,47.75012c-.80107-.6556-.83558-.70957-.1519-1.49976.10659-.12319.231-.23071.34294-.34952.79625-.84538.79589-.84571-.23383-1.56941-.77525-.54486-.864-1.1267-.18443-1.8935a52.54508,52.54508,0,0,1,3.98464-4.30322,22.28886,22.28886,0,0,0,3.64566-4.767,40.065,40.065,0,0,0,5.29774-11.50914,82.2527,82.2527,0,0,0,1.49934-9.47232,25.07166,25.07166,0,0,0,.02961-2.9353,6.87833,6.87833,0,0,0-1.06534-4.63361c-.9563-1.27665-.62353-1.72851.73449-2.54216A28.42556,28.42556,0,0,1,20.82512,0H26.0539c1.248.311,2.4975.61575,3.7434.93476a6.0286,6.0286,0,0,1,3.46554,1.89686,22.80726,22.80726,0,0,1,3.42029,5.86315c.95245,2.33567,2.15616,4.51743,4.72931,5.4898a3.89952,3.89952,0,0,1,.71971.38049,6.191,6.191,0,0,1,2.7298,2.70362A32.81692,32.81692,0,0,1,46.6213,22.3035c.75386,3.43722,1.36156,6.91113,1.89382,10.39065a31.379,31.379,0,0,1,.58626,6.78646A25.6022,25.6022,0,0,0,50.5638,49.0198v4.24838c-.85559,1.11029-1.7029,2.22714-2.5742,3.325a1.39721,1.39721,0,0,1-.63693.47927c-1.739.49988-3.32747-.16337-4.887-.77087a.79342.79342,0,0,1-.1744-1.27654,11.48349,11.48349,0,0,1,1.42915-1.55915c2.91289-2.51906,3.849-5.865,3.74086-9.5056a9.51151,9.51151,0,0,0-1.35632-3.44814A56.10892,56.10892,0,0,1,41.7236,26.587a70.545,70.545,0,0,0-1.828-7.54858,27.62416,27.62416,0,0,0-2.09806-4.402,1.92229,1.92229,0,0,0-.83926-.70333q-6.03213-3.05-12.08436-6.06016c-1.74786-.86586-3.52477-1.67349-5.295-2.49358a4.41082,4.41082,0,0,0-1.20928-.43268c-.971-.13208-1.14694.13223-1.34329,1.09935-.2948,1.4521.50371,2.63393.81529,3.9326a22.10145,22.10145,0,0,1,1.06571,5.89658,4.12377,4.12377,0,0,0,.03638.97746c.76135,3.60912-.1776,7.02614-1.27162,10.38905a30.10541,30.10541,0,0,1-4.53253,8.06682A41.70811,41.70811,0,0,1,5.93139,42.561c-1.27848,1.08669-2.39847,2.361-3.57871,3.56163a.95476.95476,0,0,0,.04983,1.55213C4.35117,49.465,6.20493,51.3726,8.26364,53.02522a44.0689,44.0689,0,0,0,7.00155,5.02151,3.01726,3.01726,0,0,0,2.79269.10621c1.29242-.55215,2.66623-.93213,3.91362-1.566,1.19411-.60682,2.26768-1.44944,3.40387-2.1733a2.12969,2.12969,0,0,1,.55712-.16736c.00175.201.0865.46315-.0089.59243A6.649,6.649,0,0,1,24.477,56.56613c-1.17231.76474-2.47123,1.33549-3.71881,1.98445-.04678.02433-.11295.0136-.157.04057-.54176.33178-1.43312.57875-1.5448,1.0215-.20682.82.79527,1.03145,1.35272,1.38276,3.62547,2.28477,7.29216,4.50435,10.90873,6.8029A7.42152,7.42152,0,0,0,34.8162,68.95c3.188.26837,6.37472.6106,9.53793,1.08363a11.49223,11.49223,0,0,1,2.97347,1.23755c.56727.26671,1.10337.75706.87653,1.39218-.17161.48047-.72777.84033-1.15421,1.2055a2.65474,2.65474,0,0,1-.73451.31442Zm-.97762-57.52095-.0818-.07159.075.07869c.45487,1.83055.9895,3.64562,1.34846,5.49479a81.421,81.421,0,0,0,2.97823,12.493c.42446,1.16583.84969,2.33252,1.3248,3.478a3.35214,3.35214,0,0,0,.66336.78019,6.67032,6.67032,0,0,0,.05537-.94154c-.16463-2.10757-.33217-4.21515-.53126-6.31966a18.60316,18.60316,0,0,0-.35928-2.23873c-.40617-1.84592-.85288-3.68288-1.27328-5.52573C44.6396,21.04313,43.79329,18.31387,41.08941,16.66234ZM17.58957,19.98793c-.05618-1.195-.08056-2.39275-.18657-3.58327a4.53816,4.53816,0,0,0-.43031-1.14768,4.22152,4.22152,0,0,0-.523,1.09667,40.39807,40.39807,0,0,1-2.651,10.04852,63.09455,63.09455,0,0,1-5.39981,9.99455,59.19509,59.19509,0,0,1-4.66006,5.41042,5.751,5.751,0,0,0-.59179,1.08917c.41631-.1757.83333-.34977,1.24795-.52937a.35588.35588,0,0,0,.11963-.1096A12.75658,12.75658,0,0,1,8.4511,39.1465a3.46488,3.46488,0,0,0,1.0779-.97632c1.50042-2.05538,3.03535-4.0911,4.42469-6.2208A19.9096,19.9096,0,0,0,17.58957,19.98793ZM23.93114,1.823c-1.43244.2531-2.86848.48863-4.29316.77973-.19616.04009-.336.35592-.50189.54409a2.53359,2.53359,0,0,0,.47354.39843c2.03382.99661,4.063,2.00379,6.11544,2.961,3.09319,1.44268,6.20361,2.84843,9.30771,4.26769.1427.06525.29515.1092.44306.16306-.00591-.1931.05293-.42024-.02788-.574-.70566-1.34236-1.55584-2.62249-2.12861-4.01739a6.1334,6.1334,0,0,0-3.49871-3.20592A14.22691,14.22691,0,0,0,23.93114,1.823ZM49.45729,51.54832c-.203-.97553-.361-1.76624-.5361-2.55317a3.55628,3.55628,0,0,0-.21211-.53721,2.62351,2.62351,0,0,0-.31913.52283c-.67213,2.05579-1.3626,4.08823-3.10619,5.55857a3.95364,3.95364,0,0,0-.65937,1.14377,5.036,5.036,0,0,0,1.51629.40791,1.76622,1.76622,0,0,0,1.01151-.691,14.32952,14.32952,0,0,0,1.43146-1.95545A17.80545,17.80545,0,0,0,49.45729,51.54832ZM38.567,70.5476l-.00766.05376c-.21594-.01579-.43169-.03914-.6479-.04484-.15611-.00411-.31284.01523-.46929.02411.13619.13039.251.33129.41194.38,1.33807.40545,2.67086.84475,4.03325,1.14805a22.65278,22.65278,0,0,0,3.05475.3535c.1597.0132.33729-.1898.5066-.29283a1.9639,1.9639,0,0,0-.36285-.47057,1.48286,1.48286,0,0,0-.60553-.22231C42.51031,71.15988,40.53836,70.85552,38.567,70.5476Z"/><path class="b" d="M31.15466,28.38774a7.7663,7.7663,0,0,0-1.02755-.1954c-1.0133-.051-1.21267.23546-1.09639,1.31464a1.45951,1.45951,0,0,1-.216,1.02287c-.33491.3751-.65061.65412-.58562,1.23962.02245.20225-.34831.59713-.58436.63679a.9346.9346,0,0,1-.76034-.42593,6.17862,6.17862,0,0,1-.7608-1.95553,2.90145,2.90145,0,0,0-1.44618-2.19394c-1.3216-.87359-1.24917-1.49432.19179-2.06021a1.15064,1.15064,0,0,0,.80231-1.04362,9.91878,9.91878,0,0,1,.8281-2.2632.78274.78274,0,0,1,.74028-.18224,2.65808,2.65808,0,0,1,1.179,2.02356c.10222,1.32689.296,1.4318,1.616,1.4773.4881.01683.97777.0025,1.46475.03354.71363.04549,1.40786.414,1.42764,1.07281.01224.40792-.662.86574-1.08,1.24373A1.897,1.897,0,0,1,31.15466,28.38774Z"/></svg>