<svg viewBox="0 0 1472.95 796.35" xmlns="http://www.w3.org/2000/svg"><path d="M241.21 156.8C234 148.06 230 146.05 226 146.05c-2.91 0-5.38 1.34-9.19 3.58A48.76 48.76 0 01191 156.8c-46.59 0-69.66-38.53-69.66-78.18 0-40.09 23.52-78.62 69-78.62a51.46 51.46 0 0125.76 6.94c3.14 1.8 5.15 3.14 7.62 3.14 3.81 0 6.94-2.46 13-10.08h1.79v42.56h-2L234 34.94c-5.37-16.8-20.61-32.25-43.68-32.25-35.39 0-47.93 38.75-47.93 75.71 0 37.18 13.21 75.71 48.6 75.71 24.42 0 40.1-18.37 47.27-39l2.69-7.62h2v49.31zm76.38 0c-47.26 0-73.24-37.86-73.24-78.62S270.33 0 317.59 0c47 0 73.25 37.41 73.25 78.18s-26.21 78.62-73.25 78.62zm0-153.89C278 2.91 265.4 39.42 265.4 78.4c0 38.53 12.55 75.49 52.19 75.49 39.43 0 52-36.51 52-75.49-.03-38.53-12.59-75.49-52-75.49z"/><path d="M524.34 156.13L406.52 17.7v82.88c0 24.19 8.29 49.72 22 50.4l4.71.22v2.69h-48.66v-2.69l2.43-.2c11.2-.9 16.13-16.8 16.13-50.4V37.63c0-28.89-4.25-31.36-14.56-31.81l-4-.22V2.91h34.94l103.94 124.55V54.21c0-22.85-7.84-47.71-22-48.39l-4.71-.22V2.91h48.66V5.6l-2.46.22c-11.65.9-16.13 16.8-16.13 48.39v101.92zm101.66-.45a86.19 86.19 0 01-13.44 1.12c-47.27 0-73.25-37.86-73.25-78.62S565.33 0 612.6 0c47 0 73.25 37.41 73.25 78.18 0 32.7-17 63.61-47.94 74.59 10.3 15.45 20.38 31.36 36.51 31.36 10.53 0 16.58-6.5 16.58-20.61h2.46c.23 20.83-9.63 37-25.31 37-21.28-.04-32.03-24.01-42.15-44.84zM580.57 142c1.79-13.44 8.51-20.61 21.28-20.61 14.56 0 24.19 13 33.6 27.33 21.5-11.65 29.12-40.32 29.12-70.34 0-38.3-12.55-75.49-52-75.49s-52.16 36.76-52.16 75.51c0 25.09 5.37 49.73 20.16 63.6zm43.9 10.52c-7.17-14.56-14.56-26.88-25.76-26.88-9.86 0-15 7.17-16.13 18.15 7.62 6.49 17.47 10.08 30 10.08a49.17 49.17 0 0011.89-1.33zm75.93-48.36V39.65c0-30.91-2-33.38-13.21-33.83l-4.71-.22V2.91h54.21V5.6l-4.7.22c-11.2.45-13.22 2.92-13.22 33.83v64.29c0 28.44 17.7 46.81 51.3 46.81 32.93 0 50.62-21.73 50.62-48.83V54.21c0-22.85-7.84-47.71-22-48.39L794 5.6V2.91h48.83V5.6l-2.47.22c-11.87.9-16.35 16.8-16.35 48.39v47.71c0 32.26-22.85 54.43-61.37 54.43-38.27 0-62.24-20.16-62.24-52.19z"/><path d="M842.2 153.89v-2.69l4.7-.22c11.2-.45 13.22-2.92 13.22-33.83v-77.5c0-30.91-2-33.38-13.22-33.83l-4.7-.22V2.91h108.41v39.65h-2l-2.47-7.62c-8.52-26.65-24.87-29.12-45.7-29.12H889c-9.85 0-10.53 3.59-10.53 33.83V75h13.23c10.08 0 21.5-.45 26.43-18.82l1.35-4.92h2v50.17h-2l-1.35-4.93c-4.93-18.36-16.35-18.81-26.43-18.81h-13.22v39.42c0 30.24.68 33.83 10.53 33.83h15.91c22.84 0 35.39-4.26 45.69-35.84l2.47-7.62h2v46.37z"/><path d="M1064.62 153.89c-2-4.26-4.7-9.86-9.4-18.59-4.48-8.29-11.2-21.73-15.46-28.68C1027 84.45 1020.94 80 1005.27 80h-14.56v37.18c0 30.91 2 33.38 13.21 33.83l4.71.22v2.69h-54.21v-2.72l4.7-.22c11.2-.45 13.22-2.92 13.22-33.83v-77.5c0-30.91-2-33.38-13.22-33.83l-4.7-.22V2.91H1027c26.21 0 48.61 12.77 48.61 38.08 0 16.35-11 29.12-25.31 34.72-10.3 3.81-19.5 4.48-29.8 4.29 20.16 6 29.56 12.77 38.75 27.1 3.81 6.05 9.85 16.35 12.1 20.16 9 14.56 16.12 23.3 24.63 23.75l4 .22v2.69zM1027.89 5.82h-26.66c-9.85 0-10.52 3.59-10.52 33.83v37.63H1023c26.88 0 31.81-16.8 31.81-35.84-.04-23.07-10.12-35.62-26.92-35.62zM0 312.26v-2.69l4.7-.22c11.2-.45 13.22-2.92 13.22-33.83V198c0-30.91-2-33.38-13.22-33.82L0 164v-2.69h108.42v39.65h-2l-2.46-7.61c-8.52-26.66-24.87-29.12-45.7-29.12H46.82c-9.86 0-10.53 3.58-10.53 33.82v35.39H49.5c10.08 0 21.51-.45 26.44-18.81l1.34-4.93h2v50.17h-2l-1.34-4.92C71 236.55 59.58 236.1 49.5 236.1H36.29v39.42c0 30.24.67 33.83 10.53 33.83h15.9c22.85 0 35.39-4.26 45.7-35.84l2.46-7.62h2v46.37zm135.74-112c-13.22-32.26-16.13-34.94-25.31-36.06l-1.79-.23v-2.69h51.52V164l-5.83.23c-12.32.44-10.52 6.94.45 34.49l36.06 90.72 29.57-77.73c4.48-11.42 6.72-22.84 6.72-32.25 0-8.51-2-14.79-11.42-15.23L211 164v-2.69h47.27V164l-2.47.23c-10.75.89-15.45 5.82-31.58 47.26L184.8 314.72h-2.24z"/><path d="M252.89 312.26v-2.69l4.71-.22c11.2-.45 13.21-2.92 13.21-33.83V198c0-30.91-2-33.38-13.21-33.82l-4.71-.23v-2.69h108.42v39.65h-2l-2.46-7.61c-8.51-26.66-24.87-29.12-45.7-29.12h-11.44c-9.86 0-10.53 3.58-10.53 33.82v35.39h13.22c10.08 0 21.5-.45 26.43-18.81l1.34-4.93h2v50.17h-2l-1.34-4.92c-4.93-18.37-16.35-18.82-26.43-18.82h-13.22v39.42c0 30.24.67 33.83 10.53 33.83h15.9c22.85 0 35.39-4.26 45.7-35.84l2.46-7.62h2v46.37z"/><path d="M475.32 312.26c-2-4.26-4.7-9.86-9.41-18.59-4.48-8.29-11.2-21.73-15.45-28.67-12.77-22.18-18.82-26.66-34.5-26.66H401.4v37.18c0 30.91 2 33.38 13.22 33.83l4.7.22v2.69h-54.21v-2.69l4.71-.22C381 308.9 383 306.43 383 275.52V198c0-30.91-2-33.38-13.21-33.82l-4.71-.23v-2.69h72.58c26.21 0 48.61 12.77 48.61 38.08 0 16.35-11 29.12-25.32 34.72-10.3 3.81-19.48 4.48-29.79 4.26 20.16 6 29.57 12.77 38.75 27.1 3.81 6.05 9.86 16.35 12.1 20.16 9 14.56 16.13 23.3 24.64 23.75l4 .22v2.69zM438.58 164.2h-26.65c-9.86 0-10.53 3.58-10.53 33.82v37.63h32.26c26.88 0 31.8-16.8 31.8-35.84 0-23.07-10.08-35.61-26.88-35.61z"/><path d="M514.74 312.26v-2.69l4.71-.22c11.2-.45 13.21-2.92 13.21-33.83v-36.28l-25.09-38.76c-18.14-28.44-22.84-36.06-32.25-36.28l-4-.23v-2.69h53.28V164l-4.71.23c-13.21.67-8.28 9.4 7.4 35.16l22.17 36.07L566 210.79c7.84-11.65 14.56-24.19 14.56-34.27 0-6.05-2.91-11.88-11.65-12.32l-4.7-.23v-2.69h49V164l-4.7.23c-8.52.22-13.22 7.61-38.75 46.59L551 239v36.51c0 30.91 2 33.38 13.22 33.83l4.7.22v2.69zm71.68-50.18v-4h112v4zM246.53 473.89v-2.69l4.7-.22c11.2-.45 13.22-2.92 13.22-33.83V359.2c0-30.24-.67-33.38-10.75-33.38h-4.93c-11 0-23.3 2-33.38 33.6l-2.46 7.58h-2v-44.09h125.42V367h-2l-2.47-7.62c-10.3-31.58-22.4-33.6-33.37-33.6h-5.15c-9.86 0-10.53 3.14-10.53 33.38v77.95c0 30.91 2 33.38 13.21 33.83l4.71.22v2.69zm416.19-150.98v2.69l4.7.22c14.11.67 22 25.54 22 48.39v73.24L585.44 322.91H442.08v2.69l4.7.22c11.2.45 13.22 2.91 13.22 33.83V395h-86.69v-35.35c0-30.92 2-33.38 13.22-33.83l4.7-.22v-2.69H337v2.69l4.71.22c11.2.45 13.21 2.91 13.21 33.83v77.5c0 30.91-2 33.38-13.21 33.82l-4.71.23v2.69h54.21v-2.69l-4.7-.23c-11.2-.44-13.22-2.91-13.22-33.82v-39.42H460v39.42c0 30.91-2 33.38-13.22 33.82l-4.7.23v2.69h157v-2.69l-4.7-.23c-13.67-.67-22-26.2-22-50.4v-82.88l117.89 138.44h2.46V374.21c0-31.59 4.48-47.49 16.13-48.39l2.46-.22v-2.69zM514.66 437.15c0 30.91-2 33.38-13.22 33.82l-4.7.23-5.16-.23c-11.2-.44-13.21-2.91-13.21-33.82v-77.5c0-30.92 2-33.38 13.21-33.83l4.71-.22h.45l4.7.22c11.2.45 13.22 2.91 13.22 33.83zm54.42-16.58c0 33.6-4.92 49.51-16.12 50.4l-2.31.22-4.41-.22C535 470.53 533 468.06 533 437.15v-77.5c0-30.92 2-33.38 13.22-33.83l4.46-.21 3.82.21c10.31.45 14.56 2.91 14.56 31.81z"/><path d="M822 476.8c-6.28-7.17-11-10.08-15.24-10.08-2.24 0-4.48.67-7.84 2.46a57.09 57.09 0 01-28.44 7.62c-46.6 0-69.67-38.53-69.67-78.18 0-40.09 23.52-78.62 68.77-78.62a51.36 51.36 0 0125.74 7c3.14 1.79 5.15 3.13 7.61 3.13 3.81 0 7-2.46 12.77-10.08h2v42.56h-2.24L813 355c-5.37-16.81-20.6-32.26-43.45-32.26-35.39 0-47.71 38.75-47.71 75.71 0 36.74 12.54 75.49 49 75.49a49.39 49.39 0 0028-8.74c6.05-4.25 6.5-7.61 6.5-18.14v-8.29c0-30.91-2-32.93-22.4-33.82l-4.7-.23V402h63.61v2.69l-4.7.23c-11.2.44-13.22 2.91-13.22 33.82v38.06zM271.44 744.16v-64.51c0-30.91-2-33.38-13.22-33.83l-4.7-.22v-2.69h54.2v2.69l-4.7.22c-11.2.45-13.22 2.92-13.22 33.83v64.29c0 28.44 17.7 46.81 51.3 46.81 32.93 0 50.62-21.73 50.62-48.83v-47.71c0-22.85-7.84-47.71-22-48.39l-4.7-.22v-2.69h48.88v2.69l-2.46.22c-11.88.9-16.36 16.8-16.36 48.39v47.71c0 32.26-22.84 54.43-61.37 54.43-38.31 0-62.27-20.16-62.27-52.19z"/><path d="M552.11 796.13L434.28 657.7v82.88c0 24.19 8.29 49.72 22 50.4l4.71.22v2.69h-48.66v-2.69l2.46-.22c11.2-.9 16.13-16.8 16.13-50.4v-63c0-28.89-4.25-31.36-14.56-31.81l-4-.22v-2.69h34.94l103.91 124.6v-73.25c0-22.85-7.84-47.71-22-48.39l-4.71-.22v-2.69h48.61v2.69l-2.46.22c-11.65.9-16.13 16.8-16.13 48.39v101.92z"/><path d="M644.39 793.89h-71.68v-2.69l4.71-.22c11.2-.45 13.21-2.92 13.21-33.83v-77.5c0-30.91-2-33.38-13.21-33.83l-4.71-.22v-2.69h71.46c50 0 76.16 34.27 76.16 75.27 0 41.21-27.78 75.71-75.94 75.71zm-.22-148.07h-24.64c-9.86 0-10.53 3.59-10.53 33.83v77.5c0 30.24.67 33.83 10.53 33.83h24.64c39.64 0 55.1-36.74 55.1-72.58 0-37.63-18.59-72.58-55.1-72.58z"/><path d="M719.65 793.89v-2.69l4.71-.22c11.2-.45 13.21-2.92 13.21-33.83v-77.5c0-30.91-2-33.38-13.21-33.83l-4.71-.22v-2.69h108.42v39.65h-2l-2.48-7.56c-8.51-26.66-24.86-29.13-45.7-29.13h-11.42c-9.86 0-10.53 3.59-10.53 33.83V715h13.22c10.08 0 21.5-.45 26.43-18.82l1.34-4.92h2v50.17h-2l-1.34-4.93c-4.93-18.36-16.35-18.81-26.43-18.81h-13.22v39.42c0 30.24.67 33.83 10.53 33.83h15.9c22.85 0 35.4-4.26 45.7-35.84l2.46-7.62h2v46.37zm231.35 0c-2-4.26-4.7-9.86-9.41-18.59-4.48-8.29-11.2-21.73-15.45-28.68-12.73-22.17-18.78-26.62-34.46-26.62h-14.56v37.18c0 30.91 2 33.38 13.22 33.83l4.7.22v2.69h-54.21v-2.72l4.71-.22c11.2-.45 13.21-2.92 13.21-33.83v-77.5c0-30.91-2-33.38-13.21-33.83l-4.71-.22v-2.69h72.58c26.21 0 48.61 12.77 48.61 38.08 0 16.35-11 29.12-25.31 34.72-10.31 3.81-19.49 4.48-29.8 4.26 20.16 6 29.57 12.77 38.76 27.1 3.8 6 9.85 16.35 12.09 20.16 9 14.56 16.13 23.3 24.64 23.75l4 .22v2.69zm-36.69-148.07h-26.66c-9.86 0-10.53 3.59-10.53 33.83v37.63h32.26c26.88 0 31.81-16.8 31.81-35.84 0-23.07-10.08-35.62-26.88-35.62zM1003 793.89v-2.69l4.7-.22c11.2-.45 13.22-2.92 13.22-33.83V679.2c0-30.24-.67-33.38-10.75-33.38h-4.93c-11 0-23.3 2-33.38 33.6l-2.45 7.58h-2v-44.09h125.44V687h-2l-2.47-7.62c-10.3-31.58-22.4-33.6-33.37-33.6h-5.16c-9.85 0-10.52 3.14-10.52 33.38v77.95c0 30.91 2 33.38 13.21 33.83l4.71.22v2.69zm165.76 0v-2.69l5.83-.22c12.54-.45 11-7 .22-34.27l-9.81-25.09h-52.42l-4.93 13.21a88 88 0 00-5.82 30.91c0 8.52 2 14.79 11.42 15.24l4.71.22v2.69h-47v-2.69l2.46-.22c9.86-.9 14.78-4.71 30.69-45.92l40.09-104.61h2.24l47 114.69c13 32 15.91 34.72 25.09 35.84l1.79.22v2.69zm-55.1-65h50.18l-25.32-65.41z"/><path d="M1317.72 793.89c-2-4.48-4.93-10.08-9.85-18.82-4.93-8.29-13-21.28-17.7-28.67-11.42-17.25-15.68-22.18-26-22.18h-13v32.93c0 30.91 2 33.38 13.22 33.83l4.7.22v2.69h-54.2v-2.69l4.7-.22c11.2-.45 13.22-2.92 13.22-33.83v-77.5c0-30.91-2-33.38-13.22-33.83l-4.7-.22v-2.69h54.2v2.69l-4.7.22c-11.2.45-13.22 2.92-13.22 33.83v41.89h7.4c9.4 0 15.9-2.92 33.6-22.18L1305.4 685c19.71-21.51 19.27-38.53 4.7-39.21l-4.7-.22v-2.69h54.66v2.69l-3.59.22c-9.63.45-18.37 8.52-51.29 44.13l-11.87 12.77-11.88 12.1c9.41 3.36 14.56 9.85 27.33 29.34 6 9 13.44 20.38 16.35 24.86 9.41 15.24 16.58 21.51 24 22l4 .22v2.69z"/><path d="M1360.06 793.89v-2.69l4.7-.22c11.2-.45 13.22-2.92 13.22-33.83v-77.5c0-30.91-2-33.38-13.22-33.83l-4.7-.22v-2.69h108.41v39.65h-2L1464 675c-8.51-26.66-24.86-29.13-45.7-29.13h-11.42c-9.85 0-10.53 3.59-10.53 33.83V715h13.22c10.08 0 21.5-.45 26.43-18.82l1.34-4.92h2v50.17h-2l-1.34-4.93c-4.93-18.36-16.35-18.81-26.43-18.81h-13.22v39.42c0 30.24.68 33.83 10.53 33.83h15.9c22.85 0 35.4-4.26 45.7-35.84l2.47-7.62h2v46.37zM809.25 312.28h-.49zm389.97 160.16l12.34-1c8.71-.73 12.34-2.42 12.58-3.87l13.07-61.72-22.5-63.4c-4.6-12.83-7-17.18-18.15-17.91l-6.54-.48-.24-1.46h62.92l-1 1.46-7 .24c-13.31.48-14.27 4.35-9.92 17.18l20.57 58.57h.49l32.16-43.29c20.33-28.08 21.06-29.77.49-31.95l-5.57-.72-.24-1.46h52.76l-1 1.46-5.08.48c-12.59 1-17.91 5.32-38.24 32.19l-34.85 46.95-13.55 64.61c-.24 1.7 1 2.42 13.55 3.39l9.2.73.24 1.45h-67.28z"/><path d="M1434.68 467.59l-11.37-1.21 16.94-55.17 13.75-39.94-15.73-1.21-8.71 23.24c-21.54 45.49-42.84 73.57-50.1 73.57-5.32 0-10.64-3.88-10.64-8.47 0-3.63 7.5-21.3 12.58-34.61 7.74-20.09 17.91-44 17.91-46.71 0-3.14-12.1-9.19-16.94-9.19-5.79 0-15.09 8.42-26.16 29.43-3.92-17.37-15.39-28.95-30-28.95-23.48 0-50.58 36.54-50.58 67 0 21.29 10.16 41.14 29.52 41.14 25.17 0 52.52-34.13 52.52-65.59a63.6 63.6 0 00-.86-10.53l14.65-23.35 12.34 1.21s-12.1 31-17.91 45.5c-6.77 16.7-12.58 31.94-12.58 38.24 0 7.5 8.71 14.52 16 14.52 5.33 0 11.86-2.91 17.18-8.47 8.47-8.47 26.14-35.82 39.93-62.44l1 .48c-10.16 24.45-17.18 48.16-17.18 54.94 0 7.74 6.29 16 10.89 16 9.2 0 19.84-10.16 31.7-35.09l-1.45-.73zm-115.12-91.51c3.48-3 7-4.81 10.34-4.81 8 0 12.58 9 12.58 26.14 0 3.36-.22 7.53-.67 12a15.49 15.49 0 01-13.65 5c-1.36-.61-11.89-5.58-14.7-15.46-1.93-6.79.12-14.48 6.1-22.87zm18.08 55.7c-7.26 23.47-21.05 42.11-35.33 42.11-7.5 0-12.34-9.2-12.34-24a114.2 114.2 0 015.08-30.25c3.85-12.06 9.62-24.49 16-33.74a23.38 23.38 0 00-.49 13.83c3.41 11.92 16.05 17.23 16.59 17.46l.31.09a17.53 17.53 0 002.8.23 18.68 18.68 0 0011-3.7 107.75 107.75 0 01-3.62 17.97z"/></svg>