<svg xmlns="http://www.w3.org/2000/svg" viewBox="0 0 1383.97 636.8"><g id="Layer_2" data-name="Layer 2"><g id="Text"><path d="M494.1,156.8a48.76,48.76,0,0,0,25.76-7.17c3.81-2.24,6.27-3.58,9.19-3.58,4,0,8.06,2,15.23,10.75h1.79V107.52h-2l-2.68,7.61c-7.17,20.61-22.85,39-47.27,39-35.39,0-48.6-38.53-48.6-75.71,0-37,12.54-75.71,47.93-75.71,23.07,0,38.3,15.45,43.68,32.25l2.46,7.62h2V0H539.8c-6,7.62-9.19,10.08-13,10.08-2.47,0-4.48-1.34-7.62-3.14A51.46,51.46,0,0,0,493.43,0c-45.47,0-69,38.53-69,78.62C424.44,118.27,447.51,156.8,494.1,156.8Z"/><path d="M625.14,156.8c47,0,73.25-37.86,73.25-78.62S672.18,0,625.14,0C577.88,0,551.9,37.41,551.9,78.18S577.88,156.8,625.14,156.8Zm0-153.89c39.43,0,52,37,52,75.49,0,39-12.54,75.49-52,75.49-39.65,0-52.19-37-52.19-75.49C573,39.42,585.49,2.91,625.14,2.91Z"/><path d="M715.41,39.65v77.5c0,30.91-2,33.38-13.21,33.82l-4.71.23v2.69h60.93V151.2l-4.7-.23c-17.92-.89-19.94-2.91-19.94-33.82V90.94h35c34.71,0,52.41-17.92,52.41-42.11,0-26.88-21.5-45.92-53.31-45.92H697.49V5.6l4.71.22C713.4,6.27,715.41,8.74,715.41,39.65Zm18.37,0c0-30.24.67-33.83,10.53-33.83H768.5c22.18,0,29.57,23.52,29.57,42.34,0,20.38-6.72,40.1-28.45,40.1H733.78Z"/><path d="M834.8,39.42c10.08-31.58,22.4-33.6,33.38-33.6h4.93c10.08,0,10.75,3.14,10.75,33.38v78c0,30.91-2,33.38-13.22,33.82l-4.7.23v2.69h54.21V151.2l-4.71-.23c-11.2-.44-13.21-2.91-13.21-33.82V39.2c0-30.24.67-33.38,10.52-33.38h5.16c11,0,23.07,2,33.37,33.6L953.75,47h2V2.91H830.32V47h2Z"/><path d="M1015.12,151.2l-4.7-.23c-11.2-.44-13.22-2.91-13.22-33.82V39.65c0-30.91,2-33.38,13.22-33.83l4.7-.22V2.91H960.91V5.6l4.71.22c11.2.45,13.21,2.92,13.21,33.83v77.5c0,30.91-2,33.38-13.21,33.82l-4.71.23v2.69h54.21Z"/><path d="M1084.11,156.8a48.78,48.78,0,0,0,25.76-7.17c3.81-2.24,6.27-3.58,9.18-3.58,4,0,8.07,2,15.23,10.75h1.8V107.52h-2l-2.69,7.61c-7.17,20.61-22.85,39-47.26,39-35.39,0-48.61-38.53-48.61-75.71,0-37,12.54-75.71,47.94-75.71,23.07,0,38.3,15.45,43.68,32.25l2.46,7.62h2V0h-1.8c-6,7.62-9.18,10.08-13,10.08-2.46,0-4.48-1.34-7.61-3.14A51.49,51.49,0,0,0,1083.44,0c-45.48,0-69,38.53-69,78.62C1014.44,118.27,1037.52,156.8,1084.11,156.8Z"/><path d="M213.92,213.92c-5.38-.22-8.74,2.24-12.54,5.83-6.95,6.49-15.68,22.17-31.36,52h-.68c8.29-22.17,13.22-36.73,13.22-43,0-7.17-6.72-14.79-11-14.79-8.12,0-16.66,8.59-27.17,29.45.18-2.17.29-4.37.29-6.6,0-37-26-67.65-66.52-67.65C32,169.12,0,208.55,0,248.2c0,36.73,25.76,67,67,67A78,78,0,0,0,144,247l.22.11,15.23-24.41,10.53.89-14.79,51.3-13.44,37,15,1.12,11.87-34.27C196.9,226.24,201.6,222,207,219.3l5.82,2.46c-8.74,7.17-3.81,15.91,3.36,16.36,4.93.22,10.3-4.26,10.75-10.53A13.37,13.37,0,0,0,213.92,213.92Zm-87.36,13.44a113.73,113.73,0,0,1-5.84,36.09,22.35,22.35,0,0,1-5.36.57,22.72,22.72,0,0,1-7.1-1.34A23.16,23.16,0,0,1,97,254a21.09,21.09,0,0,1-3.62-13.48,26.89,26.89,0,0,1,.52-3.47,33.76,33.76,0,0,1,1-3.41,71.06,71.06,0,0,1,2.71-6.7,60.88,60.88,0,0,1,7.57-12.07A52.77,52.77,0,0,1,122,201.1,72.37,72.37,0,0,1,126.56,227.36ZM65.63,312.93c-30,0-47.49-22.62-47.49-55.1,0-42.12,24-86.47,60.93-86.47,15.94,0,28.41,6.74,36.57,18a103.4,103.4,0,0,0-7.6,8.56,82.09,82.09,0,0,0-8.57,13.26,84.91,84.91,0,0,0-5.8,14.27c-.71,2.44-1.39,4.87-1.88,7.35-.28,1.21-.49,2.5-.69,3.79a28.13,28.13,0,0,0-.16,3.89,24.28,24.28,0,0,0,5,14.28A26.75,26.75,0,0,0,108,263.46a26.25,26.25,0,0,0,12.28,1.38C110.53,292.45,90.42,312.93,65.63,312.93Z"/><path d="M356,288.33c3,14.72,11.88,26.39,26.16,26.39,23.3,0,48.61-31.58,48.61-60.7,0-22.85-12.32-39.43-29.12-39.43-21.73,0-46.81,33.83-46.81,62a59.42,59.42,0,0,0,.62,8.6l-13.61,21.19-11.43-1.34s11.43-28.45,16.8-41.89c6.27-15.46,11.65-29.34,11.65-35.17,0-6.94-7.84-13.44-14.78-13.44-4.71,0-10.76,2.69-15.68,7.84-7.84,7.84-24.64,32.71-37.19,57.57l-1.34-.45c6-14.57,11.55-30.79,18.67-54.06l1.62-1c1-.62,1.95-1.22,2.86-1.92l2.78-2,2.64-2.2c.44-.37.89-.72,1.31-1.11L321,216l2.5-2.33,2.35-2.48L327,210c.37-.43.72-.87,1.09-1.31l2.16-2.63c.74-.85,1.36-1.81,2-2.71l2-2.74c.65-.94,1.25-1.91,1.81-2.9a34.21,34.21,0,0,0,4.28-12.9,25.77,25.77,0,0,0-.07-6.85,16.52,16.52,0,0,0-2.46-6.52,16.26,16.26,0,0,0-5.21-4.89,24.74,24.74,0,0,0-5.83-2.77h-2.2s-14.52,3.71-16.72,11.53c-3.43,12.18-9,31.67-14.81,51.54h0c-1.05.25-2.13.4-3.18.6s-2.11.28-3.16.41c-1.57.15-3.23.36-4.8.39v0L263.18,228l12.11-40.72-15.24.87L248.17,228l-16.35.22-2.69,6.72,16.58.45-21.49,71.28c-.9,2.91,13.89,8.28,18.37,8.28,6,0,6.81.58,12.07-8.19l-2-.32-14.34-1.34,22.61-69.71h16a46.38,46.38,0,0,0,14.18-2.17l.1,0c-4.51,15.19-9.1,30.18-13,41.89l-12.77,36.74L280,312.93l8.29-21.28c19.94-42.34,39.87-68.1,46.59-68.1,4.93,0,9.63,3.59,9.63,7.84,0,3.36-6.72,19.49-11.42,31.81C326,282,316.55,304,316.55,306.43c0,2.91,10.31,8.51,14.79,8.51C336.66,314.94,345.92,307.27,356,288.33Zm16.76-26.25c6.94-21.73,20.6-44.8,32.25-44.8,7.39,0,11.65,8.29,11.65,24.19,0,8.51-1.57,22.63-4.48,31.81-6.72,21.73-19.49,39-32.7,39-6.95,0-11.43-8.52-11.43-22.18A105.64,105.64,0,0,1,372.78,262.08Zm-50.18-84,.11-.35h0l0-.06c.34-1,4-11.32,9.48-9.16a3.82,3.82,0,0,1,.51.23,0,0,0,0,0,0,0,12.48,12.48,0,0,1,4.16,3.42,13.71,13.71,0,0,1,2.59,5.93,20.57,20.57,0,0,1,.14,6.6A29.78,29.78,0,0,1,335,197c-.59.94-1.22,1.84-1.89,2.72l-2.1,2.59c-.72.85-1.36,1.76-2.14,2.56l-2.26,2.44a67.26,67.26,0,0,1-16.46,12.87C313.82,208.18,317.87,194.36,322.6,178.08Z"/><path d="M670.92,235.65c4.7,0,9-4,9-9.86,0-6.72-6-11.64-13-11.64-13,0-18.81,11-29.34,36.73h-.45c-3.36-19.49-8.51-36.73-19.49-36.73-6.27,0-15.23,6.94-23.74,27.55h0l-3.73,8.58c-1.27-20.9-13.13-35.7-29-35.7-21.73,0-46.82,33.83-46.82,62a59.51,59.51,0,0,0,.55,8.06l-13.76,21.73-11.2-1.34,19.26-60.26,26.88-81.08-41.66,3.8L494,168.9l22.4.67c1.57,0,1.57,2.69,1.12,5.15l-19,62.72H498c-.22-13.89-2.91-22.85-10.3-22.85-7.84,0-15.68,5.38-22.85,12.77-14.78,14.79-34.5,42.11-34.5,66.53,0,12.54,8.29,20.83,18.15,20.83,11.64,0,21.05-15.45,37.85-43h.45c-6.94,18.37-9.63,27.33-9.63,31.81,0,4.93,8.74,11.43,13,11.43,6.83,0,15.18-7.84,25.23-27.2,2.9,15,11.82,27,26.29,27,23,0,48-30.8,48.58-59.62L596.37,241l8.91-16.79h7.4c6.94,0,9.4,22.62,12.54,45.47C616,292.1,606,308.9,598.34,309.35c-2.24.22-5.15-2.24-5.15-3.59,4.48-4.93,1.79-12.54-4.71-12.54-4.92,0-9.18,4-9.18,9.85,0,6.95,6.05,11.88,13.22,11.88,13.44,0,20.6-11.88,32.92-40.77h.45c3.36,21.05,8.51,40.77,20.39,40.77,6.49,0,15.23-6.95,23.74-27.33l-1.79-.67-9.86,17.92-7.17.22c-7.16,0-9.63-26.21-13.21-50.18,8.06-20.6,15.45-33.6,22.62-34,2.24,0,4.93,1.56,4.93,2.91C661.51,227.81,664.64,235.65,670.92,235.65ZM456.1,303.75c-5.37,0-10.53-5.16-10.53-16.13,0-18.59,11-47.71,21.73-58.47,3.36-3.36,6.72-5.37,11.43-5.37,9.85,0,16.8,9.63,16.8,17.69,0,4-2.92,12.77-6.95,20.84C477.16,285.6,464.61,303.75,456.1,303.75Zm115.59-30.47c-6.72,21.73-19.49,39-32.71,39-6.94,0-11.42-8.51-11.42-22.18a106,106,0,0,1,4.7-28c7-21.73,20.61-44.8,32.26-44.8,7.39,0,11.65,8.29,11.65,24.19C576.17,250,574.6,264.1,571.69,273.28Z"/><path d="M841.6,267.46c6.27,0,10.3-4.48,10.3-9.41a7.5,7.5,0,0,0-7.61-7.39c-8.74,0-9.63,12.32-3.36,14.11-11.2-.45-17.7-5.38-17.7-13.66,0-8.07,13.22-18.37,24-18.37,13,0,23.74,11.87,23.74,26.65,0,24.42-25.31,44.13-60.47,44.13-46.37,0-73.48-19.93-73.48-53.76,0-15.68,9.19-28.22,24.2-33.6,4.7,13.89,16.8,25.31,29.56,25.31,9.19,0,15-4.7,15-11.87,0-10.3-11.65-18.81-27.55-18.81h-3.58a39.27,39.27,0,0,1-.45-5.38c0-15.45,9-26,21.73-26,14.56,0,22.4,13.88,21.5,26.2l2.46.45c2.92-20.16-11-37-27.77-37-18.15-.22-32.71,15.68-32.71,35.17a41.27,41.27,0,0,0,1.12,9.18c-21.5,6.73-37.18,25.76-37.18,47.27,0,31.58,30.24,54.65,72.13,54.65,40.32,0,77.95-26.2,77.95-55.77,0-15-7.62-25.54-20.16-28.9C877,223.33,886,215.94,886,203c0-16.36-11.2-29.35-24.64-29.35-6,0-11.42,4.48-11.42,9.86A7.84,7.84,0,0,0,858,191.3c9.64,0,9.19-13,2.91-14.78,11.88.22,19.49,7.16,19.49,17.69,0,26.66-62.27,20.38-62.27,50.4C818.08,258.72,828.39,267.46,841.6,267.46Zm-63.17-54.21c12.77,0,23.75,7.17,23.75,14.79a6,6,0,0,1-6,6c-9.41,0-18.37-8.51-21.06-20.83Z"/><path d="M712.66,427.52h-2l-2.46,7.62C697.87,466.72,685.33,471,662.48,471h-15.9c-9.86,0-10.53-3.59-10.53-33.83V397.73h13.21c10.08,0,21.51.45,26.44,18.81l1.34,4.93h2V371.3h-2l-1.34,4.92C670.77,394.59,659.34,395,649.26,395H636.05V359.65c0-30.24.67-33.83,10.53-33.83H658c20.83,0,37.18,2.47,45.7,29.12l2.46,7.62h2V322.91H549.58v2.69l4.71.22c11.2.45,13.21,2.92,13.21,33.83V395H480.82V359.65c0-30.91,2-33.38,13.21-33.83l4.71-.22v-2.69H318.42V367h2l2.46-7.62c10.08-31.58,22.4-33.6,33.38-33.6h4.92c10.08,0,10.76,3.14,10.76,33.38v77.95c0,30.91-2,33.38-13.22,33.83l-4.7.22v2.69h54.2V471.2l-4.7-.22c-11.2-.45-13.22-2.92-13.22-33.83V359.2c0-30.24.68-33.38,10.53-33.38H406c11,0,23.08,2,33.38,33.6l2.46,7.62h2V325.6h.67l4.7.22c11.2.45,13.22,2.92,13.22,33.83v77.5c0,30.91-2,33.38-13.22,33.83l-4.7.22v2.69h54.21V471.2L494,471c-11.2-.45-13.21-2.92-13.21-33.83V397.73H567.5v39.42c0,30.91-2,33.38-13.21,33.83l-4.71.22v2.69H712.66Zm-95,9.63c0,30.91-2,33.38-13.22,33.83l-2.68.12-2.69-.12c-11.2-.45-13.22-2.92-13.22-33.83v-77.5c0-30.91,2-33.38,13.22-33.83l2.69-.12,2.68.12c11.2.45,13.22,2.92,13.22,33.83Z"/><path d="M903.5,359c0-24.87-23.07-36.07-52-36.07H785.9v2.69l4.7.22c11.2.45,13.22,2.92,13.22,33.83v77.5c0,30.91-2,33.38-13.22,33.83l-4.7.22v2.69h65c35.17,0,60.93-11,60.93-37.86,0-28.67-32.26-37.63-50.85-39.87C878,392.35,903.5,382.72,903.5,359ZM891,434.69c0,25.76-15,36.29-41.22,36.29h-17c-9.86,0-10.53-3.59-10.53-33.83V397.73h28.22C876.62,397.73,891,411.39,891,434.69ZM850.41,395H822.19V359.65c0-30.24.67-33.83,10.53-33.83H852.2c15.91,0,30.47,9.86,30.47,33.16C882.67,383.17,870.57,395,850.41,395Z"/><path d="M1307.81,322.91H1188.19v2.69l4.71.22c14.11.68,21.95,25.54,21.95,48.39v73.25L1110.92,322.91h-88.71v2.69l4.71.22c11.2.45,13.21,2.92,13.21,33.83v77.5c0,30.91-2,33.38-13.21,33.83l-3.14.14V420.58h-2l-2.47,7.61C1006.76,466.94,996.46,471,971.82,471H956.59c-9.86,0-10.53-3.59-10.53-33.83v-77.5c0-30.91,2-33.38,13-33.83l4.7-.22v-2.69h-54v2.69l4.7.22c11.2.45,13.22,2.92,13.22,33.83v77.5c0,30.91-2,33.38-13.22,33.83l-4.7.22v2.69h214.81V471.2l-4.7-.22c-13.67-.68-22-26.21-22-50.4V337.7l117.83,138.43h2.46V374.21c0-31.59,4.48-47.49,16.13-48.39l2.31-.21,4.41.21c11.2.45,13.21,2.92,13.21,33.83v77.5c0,30.91-2,33.38-13.21,33.83l-4.71.22v2.69H1308c48.16,0,75.94-34.5,75.94-75.71C1384,357.18,1357.76,322.91,1307.81,322.91Zm-213.25,97.67c0,33.6-4.92,49.5-16.12,50.4l-2.31.21-4.41-.21c-11.2-.45-13.22-2.92-13.22-33.83v-77.5c0-30.91,2-33.38,13.22-33.83l4.46-.21,3.82.21c10.31.45,14.56,2.92,14.56,31.81ZM1307.81,471h-24.64c-9.86,0-10.53-3.59-10.53-33.83v-77.5c0-30.24.67-33.83,10.53-33.83h24.64c36.51,0,55.1,34.95,55.1,72.58C1362.91,434.24,1347.46,471,1307.81,471Z"/><path d="M686,507.1c0-14.78,10.53-24.19,28.45-24.19,17.25,0,35.17,11.87,41.66,32.26l2.47,7.61h2V480h-1.79c-5.82,7.62-9.18,10.08-12.77,10.08-2.69,0-4.48-1.35-7.61-3.14A49.39,49.39,0,0,0,713.54,480c-23.52,0-42.78,15.9-42.78,39.2,0,49.5,82,40.54,82,85.34,0,20.39-15,29.35-34,29.35-28.22,0-44.12-22-49.5-38.31l-2.69-8.29h-2V636.8h1.79c5.15-7.17,9.63-11.87,14.56-11.87,2.46,0,4,.67,7.39,2.91,10.75,6.72,20.16,9,30.69,9,28.67,0,50.17-16.58,50.17-40.77C769.09,543.84,686,553,686,507.1Z"/><path d="M999.74,631c-9.18-1.12-12.09-3.81-25.08-35.84l-47-114.69h-2.24l-40.1,104.61c-.32.84-.64,1.66-1,2.47h-.05l-2.14,5.55-.15.39c-6.77,16.88-11.4,26.07-15.52,31.13l0,0c-4,4.93-7.52,6-12,6.36H835.08l-2,0h-15.9c-9.86,0-10.53-3.58-10.53-33.82V557.73h13.21c10.08,0,21.51.45,26.44,18.82l1.34,4.93h2V531.3h-2l-1.34,4.93c-4.93,18.37-16.36,18.82-26.44,18.82H806.66v-35.4c0-30.24.67-33.82,10.53-33.82h11.42c20.83,0,37.18,2.46,45.7,29.12l2.46,7.62h2V482.92H770.37v2.69l4.71.22c11.2.45,13.21,2.91,13.21,33.82v77.51c0,30.91-2,33.37-13.21,33.82l-.92,0h0l-3.75.17v2.69h128.8V631.2l-4.71-.22c-9.4-.45-11.42-6.72-11.42-15.23a87.69,87.69,0,0,1,5.83-30.91l4.92-13.22h52.42l9.85,25.09c10.76,27.33,12.32,33.82-.22,34.27l-5.82.22v2.69h51.52V631.2l-.25,0ZM894.91,568.93l24.87-65.4,25.31,65.4Z"/></g></g></svg>