<svg xmlns="http://www.w3.org/2000/svg" viewBox="0 0 1453.12 643.38"><g id="Layer_2" data-name="Layer 2"><g id="Text"><path d="M826.5,122.59c0-28.67-32.26-37.63-50.85-39.87,17-3.81,42.56-13.44,42.56-37.18,0-24.87-23.07-36.07-52-36.07H700.61v2.69l4.7.23c11.2.44,13.22,2.91,13.22,33.82v77.5c0,30.91-2,33.38-13.22,33.83l-4.7.22v2.69h65C800.73,160.45,826.5,149.47,826.5,122.59ZM736.9,46.21c0-30.24.67-33.82,10.52-33.82h19.49c15.9,0,30.47,9.85,30.47,33.15,0,24.19-12.1,36.06-32.26,36.06H736.9Zm10.52,111.33c-9.85,0-10.52-3.59-10.52-33.83V84.29h28.22c26.21,0,40.54,13.66,40.54,37,0,25.76-15,36.29-41.21,36.29Z"/><path d="M842.62,46.21v64.51c0,32,24,52.19,62.27,52.19,38.53,0,61.38-22.17,61.38-54.43V60.77c0-31.58,4.48-47.49,16.35-48.38l2.23-.21,4.27.21c11.2.44,13.21,2.91,13.21,33.82v77.5c0,30.91-2,33.38-13.21,33.83l-4.71.22v2.69h226.46V107.14h-2l-2.47,7.61c-12.54,38.76-22.84,42.79-47.48,42.79h-15.24c-9.85,0-10.52-3.59-10.52-33.83V46.21c0-30.91,2-33.38,13-33.82l4.7-.23V9.47h-54v2.69l4.7.23c11.2.44,13.22,2.91,13.22,33.82v77.5c0,30.91-2,33.38-13.22,33.83l-3.13.15V107.14h-2l-2.46,7.61c-12.55,38.76-22.85,42.79-47.49,42.79h-15.23c-9.86,0-10.53-3.59-10.53-33.83V46.21c0-30.91,2-33.38,13-33.82l4.71-.23V9.47H936.25v2.69l4.71.23c14.11.67,21.95,25.53,21.95,48.38v47.71c0,27.11-17.7,48.83-50.63,48.83C878.69,157.31,861,139,861,110.5V46.21c0-30.91,2-33.38,13.22-33.82l4.7-.23V9.47H824.7v2.69l4.71.23C840.6,12.83,842.62,15.3,842.62,46.21Z"/><path d="M448.26,163.35c6.53,0,16.94-9.92,28.8-34.85h0q13.1-28.91,25.38-58.16,3-7.2,5.94-14.44c-6.16,20.83-13.57,45.26-19.91,64.39L474.63,160l15.73,1.21,9-23c21.54-45.73,43.08-73.57,50.34-73.57,5.32,0,10.4,3.88,10.4,8.47,0,3.63-7.26,21.06-12.34,34.37-7.74,20.33-17.91,44-17.91,46.71,0,3.14,11.13,9.19,16,9.19,6.05,0,16.78-9.16,28.34-32,.57,17.09,11.34,32,28.53,32s31.22-17.66,41.38-35.57l-1.69-.73c-11.62,18.88-19.84,25.65-31.7,25.65-12.83,0-19.6-9.92-19.6-27.1a80.74,80.74,0,0,1,3.63-22.27c40.65-6.77,61-16.21,61-31.94,0-10.16-9.92-16.94-23.47-16.94-27.51,0-56.87,38.34-58,73.35l0,0-16.94,26.38-12.34-1.46S557.16,122,563,107.45c6.77-16.7,12.58-31.7,12.58-38,0-7.51-8.47-14.53-16-14.53-5.08,0-11.62,2.91-16.94,8.47-8.47,8.48-26.62,35.34-40.18,62.2l-1.45-.48c10.17-24.69,19.12-53.73,35.34-109.63L540.94,0,501,4.11l-.48,1.46,19.36.72c1.69,0,1.94,2.91,1.21,5.57,0,0-2.53,9-6.42,22.34q-1,2.79-2.06,5.58c-3.8,10-7.84,19.94-11.93,29.85q-12.33,29.61-25.54,58.87l-16,25.66-15.49-1.46,27.83-87.12h21.78l1-7.74-20.33-.24,9.68-32.19h-16L457.7,57.6,440,57.84l-2.9,7.26,17.91.48L428.42,154.4C427.45,157.54,443.42,163.35,448.26,163.35Zm166.25-98c5.32-5.08,10.65-8.23,15.25-8.23,7.26,0,10.4,5.57,10.4,12.83,0,16.7-10.89,25.17-44.28,31.22l-.49-.24C599.75,86.88,607,72.84,614.51,65.34Z"/><path d="M70.34,167.85H0v2.68l4.7.23c11.2.45,13.22,2.91,13.22,33.82v77.5c0,30.92-2,33.38-13.22,33.83l-4.7.22v2.69H60.93v-2.69l-4.71-.22C38.3,315,36.29,313,36.29,282.08v-26.2H71.23c34.72,0,52.42-17.92,52.42-42.11C123.65,186.88,102.14,167.85,70.34,167.85Zm1.79,85.34H36.29V204.58c0-30.24.67-33.82,10.53-33.82H71c22.17,0,29.57,23.52,29.57,42.33C100.58,233.48,93.86,253.19,72.13,253.19Z"/><path d="M348.76,292.17c-2.24-3.81-8.29-14.12-12.09-20.17-9.19-14.33-18.6-21.05-38.76-27.1,10.31.22,19.49-.45,29.8-4.26C342,235,353,222.28,353,205.93c0-25.32-22.4-38.08-48.61-38.08H231.83v2.68l4.71.23c11.2.45,13.21,2.91,13.21,33.82v77.5c0,30.92-2,33.38-13.21,33.83l-4,.19V272.45h-2L228,280.07c-10.3,31.58-22.85,35.84-45.7,35.84h-15.9c-9.86,0-10.53-3.59-10.53-33.83V242.66h13.22c10.08,0,21.5.45,26.43,18.82l1.34,4.92h2V216.23h-2l-1.34,4.93C190.62,239.53,179.2,240,169.12,240H155.9V204.58c0-30.24.67-33.82,10.53-33.82h11.42c20.84,0,37.19,2.46,45.7,29.12l2.46,7.61h2V167.85H119.61v2.68l4.71.23c11.2.45,13.21,2.91,13.21,33.82v77.5c0,30.92-2,33.38-13.21,33.83l-4.71.22v2.69H286v-2.69l-4.7-.22c-11.2-.45-13.22-2.91-13.22-33.83V244.9h14.56c15.68,0,21.73,4.48,34.5,26.66,4.25,6.94,11,20.38,15.45,28.67,4.71,8.73,7.4,14.33,9.41,18.59h35.39v-2.69l-4-.22C364.89,315.46,357.72,306.72,348.76,292.17Zm-80.64-50V204.58c0-30.24.67-33.82,10.53-33.82h26.66c16.8,0,26.88,12.54,26.88,35.61,0,19-4.93,35.84-31.81,35.84Z"/><path d="M477.56,280.07c-7.17,20.61-22.85,39-47.27,39-35.39,0-48.6-38.52-48.6-75.71,0-37,12.54-75.71,47.93-75.71,23.07,0,38.31,15.46,43.68,32.26l2.47,7.61h2V164.93H476c-6.05,7.62-9.18,10.08-13,10.08-2.47,0-4.48-1.34-7.62-3.13a51.36,51.36,0,0,0-25.76-6.95c-45.47,0-69,38.53-69,78.63,0,39.65,23.07,78.17,69.66,78.17a48.76,48.76,0,0,0,25.76-7.17c3.81-2.24,6.28-3.58,9.19-3.58,4,0,8.06,2,15.23,10.75h1.79V272.45h-2Z"/><path d="M594.49,170.53l4.7.23c11.2.45,13.22,2.91,13.22,33.82V240H525.72V204.58c0-30.91,2-33.37,13.21-33.82l4.71-.23v-2.68H489.43v2.68l4.7.23c11.2.45,13.22,2.91,13.22,33.82v77.5c0,30.92-2,33.38-13.22,33.83l-4.7.22v2.69h54.21v-2.69l-4.71-.22c-11.2-.45-13.21-2.91-13.21-33.83V242.66h86.69v39.42c0,30.92-2,33.38-13.22,33.83l-4.7.22v2.69h54.2v-2.69l-4.7-.22c-11.2-.45-13.22-2.91-13.22-33.83v-77.5c0-30.91,2-33.37,13.22-33.82l4.7-.23v-2.68h-54.2Z"/><path d="M837.3,167.85H778.49v0H753.12v0h-104v2.68l4.71.23c11.2.45,13.21,2.91,13.21,33.82v77.5c0,30.92-2,33.38-13.21,33.83l-4.71.22v2.69h104v0h25.37v0h19.57v0h.49l-.48,0h39.45c48.16,0,75.94-34.5,75.94-75.71C913.46,202.12,887.25,167.85,837.3,167.85ZM783.76,282.08c0,30.92-2,33.38-13.21,33.83l-4.71.22v0H762v-43.7h-2l-2.46,7.62c-10.31,31.58-22.85,35.84-45.7,35.84H696c-9.86,0-10.53-3.59-10.53-33.83V242.66h13.22c10.08,0,21.5.45,26.43,18.82l1.34,4.92h2V216.23h-2l-1.34,4.93C720.15,239.53,708.73,240,698.65,240H685.43V204.58c0-30.24.67-33.82,10.53-33.82h11.42c20.83,0,37.18,2.46,45.7,29.12l2.46,7.61h2v-37h8.28v0l4.71.23c11.2.45,13.21,2.91,13.21,33.82Zm53.54,33.83H812.66c-9.86,0-10.53-3.59-10.53-33.83v-77.5c0-30.24.67-33.82,10.53-33.82H837.3c36.51,0,55.1,34.94,55.1,72.57C892.4,279.17,877,315.91,837.3,315.91Z"/><path d="M1054.35,164.93c-47.26,0-73.25,37.41-73.25,78.18s26,78.62,73.25,78.62c47,0,73.25-37.85,73.25-78.62S1101.39,164.93,1054.35,164.93Zm0,153.89c-39.65,0-52.19-37-52.19-75.49,0-39,12.54-75.48,52.19-75.48,39.42,0,52,37,52,75.48C1106.32,282.31,1093.77,318.82,1054.35,318.82Z"/><path d="M1264.69,219.14v73.25L1160.75,167.85h-34.94v2.68l4,.23c10.3.45,14.56,2.91,14.56,31.81v62.94c0,33.6-4.93,49.5-16.13,50.4l-2.46.22v2.69h48.6v-2.69l-4.7-.22c-13.66-.67-22-26.21-22-50.4V182.63l117.82,138.43h2.47V219.14c0-31.58,4.48-47.49,16.12-48.38l2.47-.23v-2.68H1238v2.68l4.7.23C1256.85,171.43,1264.69,196.29,1264.69,219.14Z"/><path d="M914.63,513.68c0-14.78,10.53-24.19,28.45-24.19,17.25,0,35.17,11.87,41.66,32.25l2.47,7.62h2V486.58h-1.79c-5.82,7.61-9.18,10.08-12.77,10.08-2.68,0-4.48-1.35-7.61-3.14a49.39,49.39,0,0,0-24.87-6.94c-23.51,0-42.78,15.9-42.78,39.2,0,49.5,82,40.54,82,85.34,0,20.38-15,29.35-34,29.35-28.23,0-44.13-22-49.51-38.31l-2.69-8.29h-2v49.51h1.79c5.15-7.17,9.63-11.88,14.56-11.88,2.46,0,4,.68,7.39,2.92,10.75,6.72,20.16,9,30.69,9,28.67,0,50.18-16.58,50.18-40.77C997.74,550.42,914.63,559.6,914.63,513.68Z"/><path d="M1250,594.77c-12.54,38.75-22.85,42.78-47.49,42.78h-15.23c-9.85,0-10.53-3.58-10.53-33.82V526.22c0-30.91,2-33.37,13-33.82l4.7-.23v-2.68H998.63v44.12h2l2.47-7.61c10.08-31.59,22.4-33.6,33.37-33.6h4.93c10.08,0,10.75,3.13,10.75,33.37v78c0,30.91-2,33.37-13.21,33.82l-4.71.22v2.69h220.21V587.15h-2Zm-144.27,9c0,30.91-2,33.37-13.21,33.82l-4.37.2-4.37-.2c-11.2-.45-13.22-2.91-13.22-33.82v-78c0-1.88,0-3.76,0-5.64,0-5.29,0-10.59.48-15.86.23-2.77.5-5.81,1.79-8.32a6,6,0,0,1,4-3.15c2.56-.64,5.4-.43,8-.49,2.86-.06,5.73-.07,8.58.13a16.33,16.33,0,0,1,6.34,1.29,8.16,8.16,0,0,1,3.76,4.54,35.75,35.75,0,0,1,1.8,10.11c.44,5.93.45,11.9.45,17.84Zm52.66,0c0,30.91-2,33.37-13.22,33.82l-3.92.18-3.93-.18c-11.2-.45-13.22-2.91-13.22-33.82V526.22c0-30.91,2-33.37,13.22-33.82l1.63-.08h4.59l1.63.08c11.2.45,13.22,2.91,13.22,33.82Z"/><path d="M1222,533.62h2l2.47-7.62c10.08-31.58,22.4-33.6,33.37-33.6h4.93c10.08,0,10.75,3.14,10.75,33.38v78c0,30.91-2,33.37-13.21,33.82l-4.71.23v2.69h54.21v-2.69l-4.7-.23c-11.2-.45-13.22-2.91-13.22-33.82v-78c0-30.24.67-33.38,10.53-33.38h5.15c11,0,23.07,2,33.38,33.6l2.46,7.62h2V489.49H1222Z"/><path d="M1370,513.68c0-14.78,10.52-24.19,28.44-24.19,17.25,0,35.17,11.87,41.67,32.25l2.46,7.62h2V486.58h-1.79c-5.83,7.61-9.19,10.08-12.77,10.08-2.69,0-4.48-1.35-7.62-3.14a49.38,49.38,0,0,0-24.86-6.94c-23.52,0-42.78,15.9-42.78,39.2,0,49.5,82,40.54,82,85.34,0,20.38-15,29.35-34,29.35-28.22,0-44.13-22-49.5-38.31l-2.69-8.29h-2v49.51h1.8c5.15-7.17,9.63-11.88,14.56-11.88,2.46,0,4,.68,7.39,2.92,10.75,6.72,20.16,9,30.69,9,28.67,0,50.17-16.58,50.17-40.77C1453.12,550.42,1370,559.6,1370,513.68Z"/></g></g></svg>