<svg xmlns="http://www.w3.org/2000/svg" viewBox="0 0 1460.06 679.55"><defs><style>.cls-1,.cls-7{font-size:224px;font-family:AWConquerorStdDidot-Light, AWConqueror Std Didot;font-weight:300;}.cls-1{letter-spacing:-0.12em;}.cls-2{letter-spacing:-0.06em;}.cls-3,.cls-7{letter-spacing:-0.1em;}.cls-4{letter-spacing:-0.04em;}.cls-5{font-size:242px;font-family:FreightBigProBook-Italic, FreightBig Pro;font-style:italic;letter-spacing:-0.04em;}.cls-6{letter-spacing:0em;}.cls-8{letter-spacing:-0.12em;}.cls-9{letter-spacing:-0.12em;}.cls-10{letter-spacing:-0.08em;}.cls-11{letter-spacing:-0.06em;}</style></defs><g id="Layer_2" data-name="Layer 2"><g id="Text"><g id="_6" data-name="6"><text class="cls-1" transform="translate(700.61 196.63)">B<tspan class="cls-2" x="124.09" y="0">U</tspan><tspan class="cls-3" x="283.8" y="0">L</tspan><tspan class="cls-4" x="396.25" y="0">L</tspan></text><text class="cls-5" transform="translate(432.46 196.63)">th<tspan class="cls-6" x="145.92" y="0">e</tspan></text><path d="M482,164.81q13.2-29.33,25.6-59C511.73,95.9,515.77,86,519.56,76c1.87-5,3.75-10,5.44-15.1a145.49,145.49,0,0,0,4.42-15.31l2,.37a145,145,0,0,1-4.52,15.57c-1.71,5.1-3.61,10.13-5.5,15.16-3.83,10-7.9,20-12,29.87q-12.43,29.7-25.75,59Z"/><text class="cls-7" transform="translate(0 355)">P<tspan class="cls-8" x="119.61" y="0">E</tspan><tspan class="cls-9" x="231.83" y="0">R</tspan><tspan class="cls-10" x="357.27" y="0">C</tspan><tspan class="cls-11" x="489.43" y="0">H</tspan><tspan x="649.14" y="0">E</tspan><tspan class="cls-4" x="765.84" y="0">D </tspan><tspan class="cls-10" x="977.74" y="0">O</tspan><tspan class="cls-4" x="1126.7" y="0">N</tspan></text><path d="M805.49,355H805v0Z"/><rect x="760.06" y="203.99" width="25.37" height="2.69"/><rect x="760.06" y="352.33" width="25.37" height="2.69"/><path d="M954.5,679.55c-10.52,0-19.93-2.24-30.68-9-3.36-2.24-4.93-2.91-7.4-2.91-4.92,0-9.4,4.71-14.56,11.87h-1.79v-49.5h2l2.69,8.29c5.37,16.35,21.28,38.3,49.5,38.3,19,0,34.05-9,34.05-29.34,0-44.8-82-35.84-82-85.35,0-23.29,19.27-39.2,42.79-39.2a49.29,49.29,0,0,1,24.86,7c3.14,1.79,4.93,3.13,7.62,3.13,3.58,0,6.94-2.46,12.77-10.08h1.79v42.79h-2l-2.46-7.62c-6.5-20.38-24.42-32.25-41.67-32.25-17.92,0-28.44,9.4-28.44,24.19,0,45.92,83.1,36.73,83.1,88.93C1004.68,663,983.18,679.55,954.5,679.55Z"/><path d="M1095.07,673.93l-.34,0v2.69h.67V674Z"/><path d="M1095.07,673.93l-.34,0v2.69h.67V674Zm52.32-148.26v2.68l.78,0,.77,0v-2.68Zm.78,148.24-.78,0v2.69h1.55V674Z"/><path d="M1144.24,673.73l3.93.18-.78,0v2.69h-52V674l-.33,0,4.37-.2c11.2-.45,13.21-2.91,13.21-33.82V562.4c0-5.95,0-11.91-.46-17.85a35.34,35.34,0,0,0-1.8-10.1,8.17,8.17,0,0,0-3.75-4.55,16.18,16.18,0,0,0-6.34-1.28c-2.86-.2-5.72-.19-8.58-.13-2.62,0-5.46-.15-8,.49a5.92,5.92,0,0,0-4,3.15c-1.29,2.51-1.56,5.55-1.8,8.32-.45,5.26-.45,10.57-.47,15.85,0,1.89,0,3.77,0,5.65v78c0,30.91,2,33.37,13.22,33.82l4.37.2-.34,0v2.69h-53.54V674l4.71-.22c11.2-.45,13.21-2.91,13.21-33.82V562c0-30.24-.67-33.37-10.75-33.37h-4.93c-11,0-23.29,2-33.37,33.6l-2.47,7.61h-2V525.67h141.81v2.68l.78,0-2.3.11-1.63.08C1133,529,1131,531.49,1131,562.4v77.51C1131,670.82,1133,673.28,1144.24,673.73Z"/><path d="M1259.39,623.33l-2.47,7.62c-12.54,38.75-22.85,42.78-47.49,42.78H1194.2c-9.85,0-10.53-3.58-10.53-33.82V562.4c0-30.91,2-33.37,13-33.82l4.7-.23v-2.68h-54v2.68l.78,0,2.29.11,1.63.08c11.2.45,13.22,2.91,13.22,33.82v77.51c0,30.91-2,33.37-13.22,33.82l-3.92.18-.78,0v2.69h114V623.33Z"/><path d="M1264.52,676.64V674l4.7-.22c11.2-.45,13.22-2.91,13.22-33.82V562c0-30.24-.68-33.37-10.76-33.37h-4.92c-11,0-23.3,2-33.38,33.6l-2.46,7.61h-2V525.67h125.44v44.12h-2l-2.46-7.61c-10.3-31.59-22.4-33.6-33.38-33.6h-5.15c-9.85,0-10.53,3.13-10.53,33.37v78c0,30.91,2,33.37,13.22,33.82l4.7.22v2.69Z"/><path d="M1409.89,679.55c-10.53,0-19.94-2.24-30.69-9-3.36-2.24-4.93-2.91-7.39-2.91-4.93,0-9.41,4.71-14.56,11.87h-1.79v-49.5h2l2.69,8.29c5.38,16.35,21.28,38.3,49.51,38.3,19,0,34-9,34-29.34,0-44.8-82-35.84-82-85.35,0-23.29,19.26-39.2,42.78-39.2a49.33,49.33,0,0,1,24.87,7c3.13,1.79,4.93,3.13,7.61,3.13,3.59,0,7-2.46,12.77-10.08h1.79v42.79h-2l-2.47-7.62c-6.49-20.38-24.41-32.25-41.66-32.25-17.92,0-28.45,9.4-28.45,24.19,0,45.92,83.1,36.73,83.1,88.93C1460.06,663,1438.56,679.55,1409.89,679.55Z"/><polygon points="1172.8 525.67 1172.8 528.5 1145.87 528.5 1148.17 528.39 1147.39 528.35 1147.39 525.67 1172.8 525.67"/></g></g></g></svg>