<svg xmlns="http://www.w3.org/2000/svg" viewBox="0 0 1233.33 543.77"><defs><style>.cls-1{font-size:242px;font-family:FreightBigProBook-Italic, FreightBig Pro;font-style:italic;}.cls-2,.cls-4{font-size:224px;font-family:AWConquerorStdDidot-Light, AWConqueror Std Didot;font-weight:300;}.cls-2,.cls-8{letter-spacing:-0.06em;}.cls-3{letter-spacing:-0.08em;}.cls-4{letter-spacing:-0.1em;}.cls-5{letter-spacing:-0.1em;}.cls-6{letter-spacing:-0.09em;}.cls-7{letter-spacing:-0.07em;}.cls-9{letter-spacing:-0.04em;}</style></defs><g id="Layer_2" data-name="Layer 2"><g id="Text"><g id="_7" data-name="7"><text class="cls-1" transform="translate(291.53 312.26)">&amp;</text><text class="cls-2" transform="translate(602.84 312.26)">R<tspan class="cls-3" x="138.65" y="0">E</tspan><tspan x="259.61" y="0">–</tspan></text><text class="cls-4" transform="translate(0 473.89)">C<tspan class="cls-5" x="127.46" y="0">OLL</tspan><tspan class="cls-6" x="496.83" y="0">E</tspan><tspan class="cls-7" x="615.77" y="0">C</tspan><tspan class="cls-8" x="750.17" y="0">T</tspan><tspan class="cls-5" x="876.28" y="0">IO</tspan><tspan class="cls-9" x="1066.45" y="0">N</tspan></text><path d="M664.57,312.28h-.49v0Z"/><path d="M177.5,156.8c-10.53,0-19.94-2.24-30.69-9-3.36-2.24-4.93-2.91-7.39-2.91-4.93,0-9.41,4.7-14.56,11.87h-1.79V107.3h2l2.69,8.28c5.38,16.36,21.28,38.31,49.51,38.31,19,0,34-9,34-29.35,0-44.8-82-35.84-82-85.34C129.34,15.9,148.6,0,172.12,0A49.39,49.39,0,0,1,197,6.94c3.13,1.8,4.93,3.14,7.61,3.14,3.59,0,7-2.46,12.77-10.08h1.79V42.78h-2l-2.47-7.61C208.19,14.78,190.27,2.91,173,2.91c-17.92,0-28.45,9.41-28.45,24.19,0,45.92,83.11,36.74,83.11,88.93C227.68,140.22,206.17,156.8,177.5,156.8Z"/><path d="M227.23,153.89V151.2l4.7-.22c11.2-.45,13.22-2.92,13.22-33.83V39.65c0-30.91-2-33.38-13.22-33.83l-4.7-.22V2.91H335.64V42.56h-2l-2.47-7.62C322.65,8.29,306.3,5.82,285.47,5.82H274c-9.85,0-10.52,3.59-10.52,33.83V75h13.21c10.08,0,21.5-.45,26.43-18.82l1.35-4.92h2v50.17h-2l-1.35-4.93c-4.93-18.36-16.35-18.81-26.43-18.81H263.52v39.42c0,30.24.67,33.83,10.52,33.83H290c22.84,0,35.39-4.26,45.69-35.84l2.47-7.62h2v46.37Z"/><path d="M415.16,90.94H380.22v26.21c0,30.91,2,32.93,19.93,33.83l4.71.22v2.69H343.93V151.2l4.7-.22c11.2-.45,13.22-2.92,13.22-33.83V39.65c0-30.91-2-33.38-13.22-33.83l-4.7-.22V2.91h70.33c31.81,0,53.32,19,53.32,45.92C467.58,73,449.88,90.94,415.16,90.94Zm-.22-85.12h-24.2c-9.85,0-10.52,3.59-10.52,33.83V88.26h35.84c21.72,0,28.44-19.72,28.44-40.1C444.5,29.34,437.11,5.82,414.94,5.82Z"/><path d="M482.81,104.16V39.65c0-30.91-2-33.38-13.22-33.83l-4.7-.22V2.91h54.2V5.6l-4.7.22c-11.2.45-13.22,2.92-13.22,33.83v64.29c0,28.44,17.7,46.81,51.3,46.81,32.93,0,50.62-21.73,50.62-48.83V54.21c0-22.85-7.84-47.71-22-48.39l-4.7-.22V2.91h48.83V5.6l-2.47.22c-11.87.9-16.35,16.8-16.35,48.39v47.71c0,32.26-22.85,54.43-61.37,54.43C506.77,156.35,482.81,136.19,482.81,104.16Z"/><path d="M624.6,153.89V151.2l4.7-.22c11.2-.45,13.22-2.92,13.22-33.83V39.65c0-30.91-2-33.38-13.22-33.83l-4.7-.22V2.91h54V5.6l-4.7.22c-11,.45-13,2.92-13,33.83v77.5c0,30.24.68,33.83,10.53,33.83h15.23c24.64,0,35-4,47.49-42.79l2.47-7.61h2v53.31Z"/><path d="M860.91,156.8c-7.16-8.74-11.2-10.75-15.23-10.75-2.91,0-5.37,1.34-9.18,3.58a48.81,48.81,0,0,1-25.76,7.17c-46.59,0-69.67-38.53-69.67-78.18,0-40.09,23.52-78.62,69-78.62a51.5,51.5,0,0,1,25.77,6.94c3.13,1.8,5.15,3.14,7.61,3.14,3.81,0,6.95-2.46,13-10.08h1.8V42.56h-2l-2.46-7.62c-5.38-16.8-20.61-32.25-43.69-32.25-35.39,0-47.93,38.75-47.93,75.71,0,37.18,13.22,75.71,48.61,75.71,24.41,0,40.09-18.37,47.26-39l2.69-7.62h2V156.8Z"/><path d="M1122.06,151l-3.74.17v2.69h6.94V151.2Z"/><path d="M1121.23,151c-8.51-.45-15.68-9.19-24.64-23.75-2.24-3.8-8.29-14.11-12.09-20.16-9.19-14.33-18.6-21-38.76-27.1,10.31.22,19.49-.45,29.8-4.26,14.33-5.6,25.31-18.36,25.31-34.72,0-25-21.89-37.78-47.71-38.07H974.93V5.6l4.7.23c11.2.44,13.22,2.91,13.22,33.82V75H906.16V39.65c0-30.91,2-33.38,13.22-33.82l4.7-.23V2.91H869.87V5.6l4.71.23c11.2.44,13.21,2.91,13.21,33.82v77.5c0,30.92-2,33.38-13.21,33.83l-4.71.22v2.69h54.21V151.2l-4.7-.22c-11.2-.45-13.22-2.91-13.22-33.83V77.73h86.69v39.42c0,30.92-2,33.38-13.22,33.83l-4.7.22v2.69h54.2V151.2l-4.7-.22c-11.2-.45-13.22-2.91-13.22-33.83V80h19.3c15.68,0,21.73,4.48,34.5,26.66,4.25,6.94,11,20.38,15.45,28.67,4.71,8.73,7.4,14.33,9.41,18.59h28.45V151.2l3.74-.17Zm-110-73.7V39.65c0-30.91,2-33.38,13.22-33.82l4.7-.23,24,.23c16.8,0,26.88,12.54,26.88,35.61,0,19-4.93,35.84-31.81,35.84Z"/><path d="M1229.2,107.52l-2.47,7.62C1216.43,146.72,1203.88,151,1181,151h-15.91c-9.85,0-10.52-3.59-10.52-33.83V77.73h13.21c10.08,0,21.5.45,26.43,18.82l1.35,4.92h2V51.3h-2l-1.35,4.93C1189.32,74.59,1177.9,75,1167.82,75h-13.21V39.65c0-30.24.67-33.82,10.52-33.82h11.43c20.83,0,37.18,2.46,45.69,29.12l2.47,7.61h2V2.91H1118.32V5.6l4.7.23c11.2.44,13.22,2.91,13.22,33.82v77.5c0,30.92-2,33.38-13.22,33.83l-1,.05-3.74.17v2.69h112.89V107.52Z"/></g></g></g></svg>