<svg width="953" height="315" viewBox="0 0 953 315" fill="none" xmlns="http://www.w3.org/2000/svg">
<g clip-path="url(#clip0)">
<path d="M0.72607 149.801L9.68018 148.833C18.3926 147.865 22.5064 146.413 22.7485 144.961L52.273 5.56641C52.5152 3.87207 51.063 3.63041 38.7207 2.17822L32.4287 1.45215L32.1865 0H135.039L138.427 42.835L137.217 43.0772L136.248 39.689C127.778 14.5205 122.212 2.17822 97.044 2.17822H71.8755L57.355 70.9072L74.5376 70.6655C96.8018 69.9394 101.158 66.5513 108.176 51.3052L109.628 47.917L111.08 48.1592L100.916 97.044L99.4639 96.8018L99.706 93.6558C101.642 75.7476 96.56 74.5377 72.6015 73.5694L56.8711 73.0855L40.8989 147.865L76.2314 149.075C105.03 148.591 118.34 130.199 131.893 108.902L134.312 105.514L135.522 105.756L116.646 151.253H0L0.72607 149.801Z" fill="black"/>
<path d="M136.003 141.331C136.003 135.039 140.601 130.683 145.925 130.683C152.943 130.683 155.848 138.911 151.007 144.235C151.007 145.687 154.153 148.349 156.573 148.107C164.802 147.623 175.692 129.473 185.614 105.272C182.226 80.5879 179.564 56.145 172.062 56.145H164.076L153.669 75.7476L151.733 75.0215C160.93 52.7573 170.61 45.2549 177.386 45.2549C189.244 45.2549 194.81 63.8892 198.44 84.9439H198.924C210.298 57.1133 216.59 45.2549 230.627 45.2549C238.129 45.2549 244.663 50.5791 244.663 57.8394C244.663 64.1314 240.065 68.4873 234.983 68.4873C228.207 68.4873 224.819 60.0171 229.175 55.6611C229.175 54.209 226.271 52.5151 223.851 52.5151C216.106 52.999 208.12 67.0351 199.408 89.2998C203.28 115.194 205.942 143.509 213.687 143.509L221.431 143.267L232.079 123.906L234.015 124.632C224.819 146.655 215.38 154.157 208.362 154.157C195.536 154.157 189.97 132.86 186.34 110.112H185.856C172.546 141.331 164.802 154.157 150.281 154.157C142.537 154.157 136.003 148.833 136.003 141.331Z" fill="black"/>
<path d="M242.244 89.7837H341.949L339.529 97.044H239.823L242.244 89.7837Z" fill="black"/>
<path d="M74.5405 248.309H39.5967V274.517C39.5967 305.429 41.6128 307.445 59.5327 308.341L64.2363 308.565V311.253H3.30859V308.565L8.01269 308.341C19.2124 307.893 21.2285 305.429 21.2285 274.517V197.014C21.2285 166.102 19.2124 163.638 8.01269 163.189L3.30859 162.966V160.277H73.6445C105.452 160.277 126.956 179.317 126.956 206.197C126.956 230.389 109.26 248.309 74.5405 248.309ZM74.3164 163.189H50.1245C40.2685 163.189 39.5967 166.773 39.5967 197.014V245.621H75.4365C97.1645 245.621 103.884 225.909 103.884 205.525C103.884 186.709 96.4922 163.189 74.3164 163.189H74.3164Z" fill="black"/>
<path d="M206.025 314.165C158.762 314.165 132.777 276.309 132.777 235.541C132.777 194.773 158.762 157.366 206.025 157.366C253.065 157.366 279.273 194.773 279.273 235.541C279.273 276.309 253.065 314.165 206.025 314.165ZM206.025 160.277C166.377 160.277 153.833 196.79 153.833 235.765C153.833 274.293 166.377 311.253 206.025 311.253C245.449 311.253 257.993 274.741 257.993 235.765C257.993 197.237 245.449 160.277 206.025 160.277V160.277Z" fill="black"/>
<path d="M336.393 314.165C325.864 314.165 316.456 311.925 305.704 305.205C302.345 302.965 300.776 302.293 298.312 302.293C293.385 302.293 288.904 306.997 283.753 314.165H281.961V264.661H283.977L286.665 272.949C292.041 289.301 307.944 311.253 336.168 311.253C355.208 311.253 370.216 302.293 370.216 281.909C370.216 237.109 288.232 246.069 288.232 196.565C288.232 173.27 307.496 157.366 331.017 157.366C339.774 157.433 348.355 159.829 355.88 164.31C359.017 166.102 360.809 167.445 363.496 167.445C367.08 167.445 370.44 164.981 376.265 157.366H378.057V200.149H376.04L373.576 192.533C367.08 172.149 349.16 160.277 331.912 160.277C313.992 160.277 303.465 169.686 303.465 184.47C303.465 230.389 386.568 221.205 386.568 273.397C386.568 297.589 365.064 314.165 336.393 314.165Z" fill="black"/>
<path d="M395.079 311.253V308.565L399.783 308.341C410.982 307.893 412.999 305.429 412.999 274.517V197.014C412.999 166.102 410.982 163.638 399.783 163.189L395.079 162.966V160.277H449.287V162.966L444.583 163.189C433.383 163.638 431.367 166.102 431.367 197.014V274.517C431.367 305.429 433.383 307.893 444.583 308.341L449.287 308.565V311.253H395.079Z" fill="black"/>
<path d="M494.308 311.253V308.565L499.012 308.341C510.212 307.893 512.228 305.429 512.228 274.517V196.565C512.228 166.326 511.556 163.189 501.476 163.189H496.548C485.571 163.189 473.252 165.206 463.172 196.79L460.708 204.405H458.691V160.277H584.131V204.405H582.115L579.651 196.79C569.348 165.206 557.251 163.189 546.275 163.189H541.123C531.268 163.189 530.596 166.326 530.596 196.565V274.517C530.596 305.429 532.611 307.893 543.812 308.341L548.516 308.565V311.253L494.308 311.253Z" fill="black"/>
<path d="M593.761 311.253V308.565L598.465 308.341C609.664 307.893 611.681 305.429 611.681 274.517V197.014C611.681 166.102 609.664 163.638 598.465 163.189L593.761 162.966V160.277H647.969V162.966L643.265 163.189C632.064 163.638 630.049 166.102 630.049 197.014V274.517C630.049 305.429 632.064 307.893 643.265 308.341L647.969 308.565V311.253H593.761Z" fill="black"/>
<path d="M720.541 314.165C673.277 314.165 647.293 276.309 647.293 235.541C647.293 194.773 673.277 157.366 720.541 157.366C767.581 157.366 793.789 194.773 793.789 235.541C793.789 276.309 767.581 314.165 720.541 314.165ZM720.541 160.277C680.894 160.277 668.35 196.79 668.35 235.765C668.35 274.293 680.894 311.253 720.541 311.253C759.965 311.253 772.509 274.741 772.509 235.765C772.509 197.237 759.965 160.277 720.541 160.277V160.277Z" fill="black"/>
<path d="M931.771 313.493L813.948 175.062V257.941C813.948 282.133 822.236 307.669 835.9 308.341L840.604 308.565V311.253H791.996V308.565L794.46 308.341C805.66 307.445 810.588 291.541 810.588 257.941V194.998C810.588 166.102 806.332 163.638 796.028 163.189L791.996 162.966V160.277H826.94L930.876 284.821V211.573C930.876 188.726 923.036 163.861 908.924 163.189L904.22 162.966V160.277H952.828V162.966L950.363 163.189C938.716 164.085 934.235 179.989 934.235 211.573V313.493H931.771Z" fill="black"/>
</g>
<defs>
<clipPath id="clip0">
<rect width="952.828" height="314.165" fill="white"/>
</clipPath>
</defs>
</svg>
