<?xml version="1.0" encoding="UTF-8"?><svg xmlns="http://www.w3.org/2000/svg" viewBox="0 0 114.12 121.05"><g id="a"/><g id="b"><g id="c"><path d="M56.93,121.05c-16.67,0-30-6.15-39.49-15.9l-15.13,15.9-2.31-2.31,15.13-16.16C5.13,91.3,0,76.17,0,60.27,0,28.98,20.77,0,56.93,0c16.67,0,30.01,6.41,39.75,16.16L111.81,0l2.31,2.31-15.13,16.16c9.75,11.28,15.13,26.42,15.13,42.06,0,31.29-21.03,60.52-57.19,60.52Zm-31.03-30.01L86.43,26.93c-4.36-14.1-13.34-23.59-29.49-23.59C29.24,3.33,22.82,29.75,22.82,60.52c0,11.03,.77,21.54,3.08,30.52ZM87.71,30.52L27.18,94.89c4.62,13.59,13.59,22.82,29.75,22.82,27.44,0,33.85-26.16,33.85-56.93,0-10.77-.77-21.29-3.08-30.26Z"/></g></g></svg>