<?xml version="1.0" encoding="UTF-8"?><svg xmlns="http://www.w3.org/2000/svg" viewBox="0 0 30.39 50.4"><defs><style>.d{fill:#231f20;}</style></defs><g id="a"/><g id="b"><g id="c"><path class="d" d="M11.81,47.45c0-2.81,3.02-5.62,3.02-11.88-6.19,0-9.07,3.02-11.88,3.02-1.3,0-2.95-.86-2.95-3.38s1.66-3.38,2.95-3.38c2.81,0,5.69,3.1,11.88,3.02,0-4.68-1.3-7.13-3.74-9.65,2.59-2.66,3.82-4.97,3.74-9.65-6.12-.07-9.07,3.02-11.88,3.02-1.3,0-2.95-.86-2.95-3.38s1.66-3.38,2.95-3.38c2.81,0,5.76,3.02,11.88,3.02,0-6.26-3.02-9.07-3.02-11.88,0-1.3,.86-2.95,3.38-2.95s3.38,1.66,3.38,2.95c0,2.81-3.02,5.62-3.02,11.88,6.19,0,9.07-3.02,11.88-3.02,1.3,0,2.95,.86,2.95,3.38s-1.66,3.38-2.95,3.38c-2.81,0-5.69-3.1-11.88-3.02,0,4.68,1.3,7.13,3.75,9.65-2.59,2.66-3.82,4.97-3.75,9.65,6.12,.07,9.07-3.02,11.88-3.02,1.3,0,2.95,.86,2.95,3.38s-1.66,3.38-2.95,3.38c-2.81,0-5.76-3.02-11.88-3.02-.07,6.26,3.02,9.07,3.02,11.88,0,1.3-.86,2.95-3.38,2.95s-3.38-1.66-3.38-2.95Z"/></g></g></svg>