<svg width="25" height="23" viewBox="0 0 25 23" fill="none" xmlns="http://www.w3.org/2000/svg">
<path d="M19.5523 22.274C21.0117 21.2637 20.7872 19.8043 20.1698 18.9624C18.8788 17.2223 16.2407 17.1662 12.9851 12.6758C18.2613 10.9358 20.4504 12.4513 22.4711 11.7777C23.4814 11.4971 24.4918 10.4306 23.9305 8.80282C23.4253 7.11892 22.022 6.8944 21.0117 7.23118C18.991 7.84861 18.0368 10.3745 12.7606 12.0584C12.7606 6.55762 14.8935 4.92985 14.8935 2.79691C14.8935 1.73044 14.22 0.439453 12.4799 0.439453C10.7399 0.439453 10.0664 1.73044 10.0664 2.79691C10.0664 4.87372 12.1432 6.50149 12.1993 12.0584C6.92307 10.3745 6.02499 7.84861 3.94818 7.23118C2.93784 6.8944 1.53459 7.11892 1.02942 8.80282C0.468121 10.4306 1.47846 11.4971 2.4888 11.7777C4.50948 12.4513 6.69855 10.9358 11.9748 12.6758C8.71923 17.1662 6.08112 17.2223 4.79013 18.9624C4.1727 19.8043 3.94818 21.2637 5.40756 22.274C6.75468 23.2282 8.1018 22.6669 8.71923 21.825C9.95409 20.085 9.2244 17.503 12.4799 13.0126C15.6794 17.4468 15.0058 20.085 16.2407 21.825C16.8581 22.6669 18.2052 23.2282 19.5523 22.274Z" fill="black"/>
</svg>
